<svg width="186" height="200" viewBox="0 0 186 200" fill="none" xmlns="http://www.w3.org/2000/svg">
<path d="M64.3462 77.6561L147.582 39.6817L136.05 133.613L51.5448 170.033L64.3462 77.6561Z" fill="black"/>
<g filter="url(#filter0_f_34_75972)">
<path d="M132.934 130.706L122.352 120.487L50.7732 154.794L60.5019 164.189L132.934 130.706Z" fill="url(#paint0_linear_34_75972)"/>
</g>
<g filter="url(#filter1_f_34_75972)">
<path d="M142.384 47.6016L131.305 37.232L122.508 120.308L133.09 130.527L142.384 47.6016Z" fill="url(#paint1_linear_34_75972)"/>
</g>
<path d="M135.323 133.013L122.352 120.487L39.4863 158.387L51.6045 170.09L135.323 133.013Z" stroke="black" stroke-width="0.474542"/>
<path d="M147.587 39.4498L134.118 26.7728L122.508 120.308L135.479 132.834L147.587 39.4498Z" stroke="black" stroke-width="0.474542"/>
<rect width="93.3218" height="92.3921" transform="matrix(0.891922 -0.406918 -0.124816 1.01666 50.6921 64.4703)" fill="black"/>
<defs>
<filter id="filter0_f_34_75972" x="41.2824" y="110.996" width="101.142" height="62.6834" filterUnits="userSpaceOnUse" color-interpolation-filters="sRGB">
<feFlood flood-opacity="0" result="BackgroundImageFix"/>
<feBlend mode="normal" in="SourceGraphic" in2="BackgroundImageFix" result="shape"/>
<feGaussianBlur stdDeviation="4.74542" result="effect1_foregroundBlur_34_75972"/>
</filter>
<filter id="filter1_f_34_75972" x="112.068" y="26.7921" width="40.7563" height="114.175" filterUnits="userSpaceOnUse" color-interpolation-filters="sRGB">
<feFlood flood-opacity="0" result="BackgroundImageFix"/>
<feBlend mode="normal" in="SourceGraphic" in2="BackgroundImageFix" result="shape"/>
<feGaussianBlur stdDeviation="5.21996" result="effect1_foregroundBlur_34_75972"/>
</filter>
<linearGradient id="paint0_linear_34_75972" x1="77.0954" y1="124.875" x2="96.5899" y2="165.935" gradientUnits="userSpaceOnUse">
<stop offset="0.263581" stop-color="#12E179"/>
<stop offset="0.606819" stop-color="#12E179" stop-opacity="0"/>
</linearGradient>
<linearGradient id="paint1_linear_34_75972" x1="108.833" y1="69.2225" x2="152.69" y2="76.9855" gradientUnits="userSpaceOnUse">
<stop offset="0.225446" stop-color="#13F584"/>
<stop offset="0.747304" stop-color="#13F584" stop-opacity="0"/>
</linearGradient>
</defs>
</svg>
