<svg width="164" height="117" viewBox="0 0 164 117" fill="none" xmlns="http://www.w3.org/2000/svg">
<path d="M77.2675 18.9817L162.521 56.9391L86.8381 109.933L1.82116 69.995L77.2675 18.9817Z" fill="black"/>
<g filter="url(#filter0_f_34_75957)">
<path d="M86.7646 105.668V90.9573L12.2615 59.4002V72.9247L86.7646 105.668Z" fill="url(#paint0_linear_34_75957)"/>
</g>
<g filter="url(#filter1_f_34_75957)">
<path d="M153.2 58.2139L152.963 43.0285L87.0017 90.9573V105.668L153.2 58.2139Z" fill="url(#paint1_linear_34_75957)"/>
</g>
<path d="M86.7648 108.99V90.9573L1.82178 53.2312V70.0774L86.7648 108.99Z" stroke="black" stroke-width="0.474542"/>
<path d="M162.691 56.7903L162.454 38.2831L87.002 90.9573V108.99L162.691 56.7903Z" stroke="black" stroke-width="0.474542"/>
<rect width="93.3218" height="92.392" transform="matrix(0.913545 0.406737 -0.819152 0.573576 77.2676 0)" fill="black"/>
<g clip-path="url(#clip0_34_75957)">
<path d="M86.8894 48.6577C87.7779 48.8064 88.8059 48.6041 89.4465 48.1556C90.0871 47.707 90.2114 47.1024 89.7568 46.6531L87.6715 44.5836C85.6113 42.5408 85.3672 39.9925 86.9985 37.5935L88.6505 35.1641C89.0097 34.6357 88.7737 34.0665 88.062 33.7497C87.349 33.4322 86.3025 33.429 85.4571 33.7423L81.5844 35.183C77.7576 36.6059 73.255 37.0394 69.2282 36.3721L65.1533 35.6989C64.2635 35.5511 63.2367 35.7525 62.5961 36.201C61.9555 36.6496 61.8325 37.2533 62.2858 37.7035L64.3711 39.773C66.4314 41.8158 66.6766 44.3633 65.0442 46.7631L63.3909 49.1933C63.0317 49.7218 63.2704 50.2907 63.9834 50.6081C64.6964 50.9256 65.7441 50.928 66.5855 50.6142L70.4596 49.1742C74.2838 47.7516 78.7878 47.3186 82.8144 47.9845L86.8894 48.6577ZM84.2094 45.9346C79.1546 45.0976 73.5013 45.6419 68.6991 47.4281L68.3236 47.5675L68.4835 47.3321C70.5318 44.3198 70.2238 41.1214 67.6385 38.5567L67.4381 38.3568L67.8332 38.422C72.8881 39.259 78.5413 38.7146 83.3436 36.9285L83.719 36.7891L83.5591 37.0245C81.5095 40.0362 81.8174 43.2346 84.4027 45.7992L84.6046 45.9998L84.2094 45.9346Z" fill="#12E179"/>
<path d="M94.1571 38.1367L95.2129 39.1844C96.1268 40.0909 96.2342 41.2201 95.5113 42.2835L94.6746 43.5119C94.3467 43.9932 94.5618 44.5105 95.2099 44.7991C95.858 45.0876 96.8105 45.0902 97.5753 44.8048L99.5365 44.0756C101.234 43.4446 103.231 43.2523 105.014 43.5482L107.08 43.8903C107.884 44.0225 108.816 43.8399 109.396 43.4354C109.976 43.0308 110.094 42.4829 109.681 42.0692L108.624 41.0209C107.711 40.1151 107.602 38.9851 108.325 37.9218L109.162 36.6919C109.49 36.2106 109.275 35.6948 108.627 35.4062C107.977 35.1171 107.026 35.1151 106.261 35.4005L104.3 36.1296C102.603 36.7607 100.607 36.9522 98.8222 36.6571L96.7525 36.3146C95.9462 36.1827 95.0131 36.3676 94.4346 36.7743C93.8561 37.1809 93.7448 37.7289 94.1571 38.1367ZM104.346 38.4038C103.994 39.3999 104.091 40.3978 104.625 41.3071C102.916 41.2188 101.152 41.3887 99.4935 41.8013C99.8433 40.806 99.7485 39.8072 99.2139 38.8979C100.922 38.9856 102.686 38.8158 104.346 38.4038Z" fill="#12E179"/>
<path d="M85.9229 58.703L84.8671 57.6553C83.9546 56.7494 83.8458 55.6195 84.5687 54.5562L85.4052 53.3263C85.7319 52.8458 85.5168 52.3285 84.8687 52.04C84.2192 51.7508 83.2681 51.7489 82.5033 52.0343L80.5421 52.7634C78.8451 53.3945 76.848 53.5868 75.0644 53.2908L73.0026 52.9491C72.1975 52.8149 71.2642 52.9983 70.6829 53.4037C70.1017 53.8091 69.9852 54.3576 70.3993 54.7704L71.4551 55.8181C72.369 56.7246 72.479 57.8537 71.7535 58.9172L70.9168 60.1457C70.5903 60.6276 70.8054 61.1449 71.4549 61.4341C72.1043 61.7232 73.0555 61.7252 73.8202 61.4398L75.7815 60.7106C77.4772 60.0804 79.4743 59.8881 81.2591 60.1832L83.3317 60.5269C84.1378 60.6573 85.0683 60.4727 85.6468 60.066C86.2253 59.6594 86.3339 59.1116 85.9229 58.703ZM75.7358 58.4365C76.0869 57.4404 75.9908 56.4425 75.4562 55.5331C77.1642 55.6209 78.9294 55.4516 80.5879 55.039C80.238 56.0343 80.3329 57.0331 80.8675 57.9424C79.1595 57.8547 77.3943 58.0239 75.7358 58.4365Z" fill="#12E179"/>
</g>
<defs>
<filter id="filter0_f_34_75957" x="2.77063" y="49.9094" width="93.4849" height="65.2495" filterUnits="userSpaceOnUse" color-interpolation-filters="sRGB">
<feFlood flood-opacity="0" result="BackgroundImageFix"/>
<feBlend mode="normal" in="SourceGraphic" in2="BackgroundImageFix" result="shape"/>
<feGaussianBlur stdDeviation="4.74542" result="effect1_foregroundBlur_34_75957"/>
</filter>
<filter id="filter1_f_34_75957" x="76.5618" y="32.5886" width="87.0786" height="83.5194" filterUnits="userSpaceOnUse" color-interpolation-filters="sRGB">
<feFlood flood-opacity="0" result="BackgroundImageFix"/>
<feBlend mode="normal" in="SourceGraphic" in2="BackgroundImageFix" result="shape"/>
<feGaussianBlur stdDeviation="5.21996" result="effect1_foregroundBlur_34_75957"/>
</filter>
<linearGradient id="paint0_linear_34_75957" x1="52.123" y1="59.6375" x2="34.5649" y2="100.685" gradientUnits="userSpaceOnUse">
<stop offset="0.263581" stop-color="#12E179"/>
<stop offset="0.606819" stop-color="#12E179" stop-opacity="0"/>
</linearGradient>
<linearGradient id="paint1_linear_34_75957" x1="114.288" y1="47.0621" x2="138.342" y2="85.8411" gradientUnits="userSpaceOnUse">
<stop offset="0.225446" stop-color="#13F584"/>
<stop offset="0.747304" stop-color="#13F584" stop-opacity="0"/>
</linearGradient>
<clipPath id="clip0_34_75957">
<rect width="48.4033" height="48.4033" fill="white" transform="matrix(0.913545 0.406737 -0.819152 0.573576 77.7737 20.2505)"/>
</clipPath>
</defs>
</svg>
