<svg width="183" height="147" viewBox="0 0 183 147" fill="none" xmlns="http://www.w3.org/2000/svg">
<path d="M103.346 39.1611L12.0863 55.5209L73.6006 125.466L165.077 107.119L103.346 39.1611Z" fill="black"/>
<g filter="url(#filter0_f_34_76014)">
<path d="M74.6308 121.328L77.94 106.994L157.329 94.2701L154.287 107.448L74.6308 121.328Z" fill="url(#paint0_linear_34_76014)"/>
</g>
<g filter="url(#filter1_f_34_76014)">
<path d="M20.8433 59.0179L24.4895 44.2792L77.7101 106.937L74.4009 121.271L20.8433 59.0179Z" fill="url(#paint1_linear_34_76014)"/>
</g>
<path d="M73.8836 124.565L77.9401 106.994L168.847 90.7849L165.057 107.199L73.8836 124.565Z" stroke="black" stroke-width="0.474542"/>
<path d="M11.9545 55.3347L16.3479 37.3593L77.71 106.937L73.6536 124.507L11.9545 55.3347Z" stroke="black" stroke-width="0.474542"/>
<rect width="93.3221" height="92.3923" transform="matrix(-0.977905 0.175304 0.665794 0.757045 107.616 20.666)" fill="black"/>
<g clip-path="url(#clip0_34_76014)">
<path d="M116.659 62.1451L108.609 52.9919C109.493 52.2336 109.473 50.9964 108.386 49.7604C106.855 48.0194 103.78 46.9309 101.531 47.3341C100.699 47.4833 100.095 47.8165 99.7417 48.2649L85.4774 45.5239C85.4257 45.4583 85.3719 45.3926 85.3141 45.3269C83.7829 43.5859 80.7075 42.4974 78.4586 42.9006C76.2096 43.3037 75.6257 45.0482 77.1568 46.7892C77.2147 46.8549 77.2753 46.9194 77.3374 46.9831L71.123 53.3953C70.1844 53.1784 69.239 53.1229 68.4068 53.2721C66.1578 53.6752 65.5739 55.4197 67.1051 57.1607C68.1921 58.3968 70.0574 59.3031 71.8527 59.5811L79.9026 68.7342C79.0186 69.4925 79.0385 70.7297 80.1255 71.9657C81.6567 73.7067 84.7321 74.7952 86.981 74.392C87.8133 74.2428 88.4169 73.9096 88.7702 73.4612L103.035 76.2022C103.086 76.2678 103.14 76.3336 103.198 76.3992C104.729 78.1403 107.804 79.2287 110.053 78.8256C112.302 78.4224 112.886 76.678 111.355 74.9369C111.297 74.8712 111.237 74.8068 111.175 74.743L117.389 68.3309C118.327 68.5476 119.273 68.6032 120.105 68.454C122.354 68.0508 122.938 66.3064 121.407 64.5653C120.32 63.3295 118.455 62.4231 116.659 62.1451ZM118.254 66.3491C117.504 66.4835 116.479 66.1207 115.969 65.5404C115.458 64.96 115.653 64.3785 116.403 64.2441C117.152 64.1098 118.177 64.4726 118.688 65.0529C119.198 65.6333 119.004 66.2147 118.254 66.3491ZM105.667 50.2479C106.178 50.8282 105.983 51.4097 105.233 51.5441C104.484 51.6785 103.459 51.3156 102.948 50.7353C102.438 50.155 102.632 49.5735 103.382 49.4391C104.132 49.3047 105.157 49.6675 105.667 50.2479ZM80.3098 45.0055C81.0595 44.8712 82.0846 45.234 82.595 45.8143C83.1054 46.3947 82.9107 46.9761 82.1611 47.1105C81.4114 47.2449 80.3863 46.8821 79.8759 46.3018C79.3655 45.7214 79.5602 45.1399 80.3098 45.0055ZM70.2581 55.3771C71.0077 55.2427 72.0328 55.6055 72.5432 56.1858C73.0536 56.7662 72.859 57.3477 72.1093 57.4821C71.3597 57.6164 70.3345 57.2536 69.8241 56.6733C69.3138 56.0929 69.5083 55.5115 70.2581 55.3771ZM82.8447 71.4783C82.3343 70.898 82.5289 70.3165 83.2786 70.1821C84.0282 70.0477 85.0534 70.4106 85.5638 70.9909C86.0741 71.5712 85.8795 72.1527 85.1298 72.2871C84.3802 72.4215 83.3551 72.0587 82.8447 71.4783ZM108.202 76.7207C107.452 76.855 106.427 76.4922 105.917 75.9119C105.407 75.3315 105.601 74.7501 106.351 74.6157C107.101 74.4813 108.126 74.8441 108.636 75.4244C109.146 76.0048 108.952 76.5863 108.202 76.7207ZM104.5 72.5107C103.319 72.7224 102.598 73.304 102.4 74.0605L88.9222 71.4706C88.7809 71.154 88.5689 70.8287 88.2828 70.5035C86.9629 69.0026 84.4959 67.9877 82.3996 67.9942L74.794 59.3463C76.3293 58.7018 76.5823 57.1993 75.2623 55.6984C74.9763 55.3732 74.6363 55.0709 74.258 54.7966L80.1299 48.738C81.4232 49.2272 82.8315 49.4272 84.0124 49.2155C85.1932 49.0038 85.9141 48.4222 86.1118 47.6657L99.5897 50.2556C99.7311 50.5722 99.9431 50.8975 100.229 51.2227C101.549 52.7236 104.016 53.7385 106.112 53.7319L113.718 62.3799C112.183 63.0243 111.93 64.5269 113.25 66.0277C113.536 66.3529 113.876 66.6553 114.254 66.9295L108.382 72.9881C107.089 72.499 105.68 72.299 104.5 72.5107Z" fill="#13F584"/>
<path d="M106.664 65.8085C107.11 66.3156 106.543 66.8382 104.968 67.3815C104.02 67.7056 102.967 67.9714 101.809 68.179C96.8338 69.0709 93.1748 68.1852 90.8369 65.5268C89.7738 64.318 89.5567 63.1829 90.1812 62.1163C90.4804 61.5942 91.1712 60.9426 92.2602 60.1604C91.2894 60.032 90.604 59.9058 90.1952 59.7893C89.4353 59.5698 88.8527 59.2295 88.4517 58.7737C87.5193 57.7134 87.1134 56.5291 87.2366 55.2321C87.3759 53.8315 88.139 53.0009 89.5417 52.7495C91.3479 52.4257 93.3639 53.0545 95.5831 54.6372C95.7486 54.7558 95.8877 54.8791 96.0003 55.0071C96.3066 55.3554 96.3341 55.5521 96.076 55.5984C95.8048 55.647 95.1766 55.6469 94.1895 55.6045C93.2024 55.562 92.4751 55.5798 92.0119 55.6628C91.3503 55.7814 90.8179 55.9599 90.4192 56.2033C89.9438 56.4901 89.8356 56.7764 90.0878 57.0632C90.2545 57.2527 90.807 57.3671 91.7565 57.4104C92.8765 57.4646 94.0872 57.378 95.384 57.1455C96.1912 57.0008 97.0261 56.7919 97.8867 56.5249C98.1508 56.442 98.339 56.4557 98.4381 56.5684C98.4876 56.6247 98.5422 56.7217 98.5974 56.8541L99.9152 60.0333C99.1523 60.0455 98.4125 60.1189 97.6914 60.2481C96.2821 60.5008 95.302 60.9018 94.7578 61.45C94.0654 62.1434 94.1607 62.992 95.0481 64.001C96.0121 65.0972 97.206 65.7667 98.6277 66.0158C99.6613 66.1982 100.895 66.1549 102.344 65.8952C103.614 65.6675 104.505 65.5136 105.004 65.4361C105.803 65.3344 106.349 65.45 106.664 65.8085Z" fill="#13F584"/>
</g>
<defs>
<filter id="filter0_f_34_76014" x="65.1401" y="84.7793" width="101.68" height="46.0397" filterUnits="userSpaceOnUse" color-interpolation-filters="sRGB">
<feFlood flood-opacity="0" result="BackgroundImageFix"/>
<feBlend mode="normal" in="SourceGraphic" in2="BackgroundImageFix" result="shape"/>
<feGaussianBlur stdDeviation="4.74542" result="effect1_foregroundBlur_34_76014"/>
</filter>
<filter id="filter1_f_34_76014" x="10.4034" y="33.8392" width="77.7465" height="97.8715" filterUnits="userSpaceOnUse" color-interpolation-filters="sRGB">
<feFlood flood-opacity="0" result="BackgroundImageFix"/>
<feBlend mode="normal" in="SourceGraphic" in2="BackgroundImageFix" result="shape"/>
<feGaussianBlur stdDeviation="5.21996" result="effect1_foregroundBlur_34_76014"/>
</filter>
<linearGradient id="paint0_linear_34_76014" x1="118.598" y1="84.8579" x2="125.866" y2="129.189" gradientUnits="userSpaceOnUse">
<stop offset="0.263581" stop-color="#12E179"/>
<stop offset="0.606819" stop-color="#12E179" stop-opacity="0"/>
</linearGradient>
<linearGradient id="paint1_linear_34_76014" x1="61.1086" y1="57.5658" x2="28.7996" y2="89.2812" gradientUnits="userSpaceOnUse">
<stop offset="0.225446" stop-color="#13F584"/>
<stop offset="0.747304" stop-color="#13F584" stop-opacity="0"/>
</linearGradient>
<clipPath id="clip0_34_76014">
<rect width="47.4542" height="47.4543" fill="white" transform="matrix(0.977905 -0.175304 0.665794 0.757045 55.2559 47.06)"/>
</clipPath>
</defs>
</svg>
