<svg width="186" height="200" viewBox="0 0 186 200" fill="none" xmlns="http://www.w3.org/2000/svg">
<path d="M121.468 77.6561L38.2321 39.6815L49.7643 133.613L134.27 170.033L121.468 77.6561Z" fill="black"/>
<g filter="url(#filter0_f_34_75995)">
<path d="M52.8804 130.706L63.4625 120.487L135.041 154.794L125.313 164.189L52.8804 130.706Z" fill="url(#paint0_linear_34_75995)"/>
</g>
<g filter="url(#filter1_f_34_75995)">
<path d="M43.4302 47.6015L54.5093 37.2319L63.3069 120.308L52.7249 130.527L43.4302 47.6015Z" fill="url(#paint1_linear_34_75995)"/>
</g>
<path d="M50.4911 133.013L63.4627 120.487L146.328 158.388L134.21 170.09L50.4911 133.013Z" stroke="black" stroke-width="0.474542"/>
<path d="M38.2277 39.4498L51.6963 26.7727L63.3069 120.308L50.3354 132.834L38.2277 39.4498Z" stroke="black" stroke-width="0.474542"/>
<rect width="93.3221" height="92.3923" transform="matrix(-0.891921 -0.40692 0.124817 1.01666 135.123 64.4705)" fill="black"/>
<g clip-path="url(#clip0_34_75995)">
<path fill-rule="evenodd" clip-rule="evenodd" d="M112.923 76.5784C112.702 75.8296 112.107 75.0984 111.489 74.8167C110.872 74.5349 110.396 74.7777 110.344 75.4016L110.062 78.7362C109.932 80.2785 108.932 81.0731 107.491 80.7798L104.375 80.1457C103.792 80.027 103.44 80.4423 103.526 81.1462C103.613 81.85 104.115 82.6552 104.736 83.0859L108.057 85.3884C109.593 86.4533 110.918 88.3086 111.465 90.1598L112.647 94.1621C112.868 94.9108 113.463 95.6421 114.081 95.9238C114.698 96.2056 115.174 95.9627 115.226 95.3389L115.508 92.0044C115.638 90.462 116.638 89.6674 118.079 89.9607L121.195 90.5948C121.778 90.7135 122.13 90.2982 122.044 89.5943C121.957 88.8905 121.455 88.0853 120.834 87.6546L117.513 85.3521C115.977 84.2872 114.652 82.4319 114.105 80.5808L112.923 76.5784ZM109.901 84.0543C111.053 83.8986 111.922 83.2076 112.381 82.0824C113.188 83.7852 114.34 85.3986 115.67 86.6862C114.518 86.8419 113.648 87.533 113.189 88.6581C112.382 86.9553 111.23 85.3419 109.901 84.0543Z" fill="#13F584"/>
<path d="M95.5905 77.5255C96.3211 77.8588 96.9961 78.8039 97.0983 79.6366L100.985 111.297C101.088 112.13 100.578 112.535 99.8478 112.202C99.1173 111.868 98.4423 110.923 98.34 110.091L94.453 78.4297C94.3507 77.5971 94.86 77.1922 95.5905 77.5255Z" fill="#13F584"/>
<path d="M85.6569 77.9748C85.5547 77.1421 84.8796 76.197 84.1491 75.8637C83.4186 75.5305 82.9093 75.9353 83.0116 76.7679L85.9731 100.89C86.0754 101.723 86.7504 102.668 87.4809 103.002C88.2114 103.335 88.7207 102.93 88.6185 102.097L85.6569 77.9748Z" fill="#13F584"/>
<path d="M91.9792 83.7056C91.8769 82.8729 91.2019 81.9278 90.4714 81.5945C89.7409 81.2612 89.2316 81.6661 89.3338 82.4987L91.555 100.591C91.6572 101.423 92.3323 102.368 93.0628 102.702C93.7933 103.035 94.3026 102.63 94.2003 101.797L91.9792 83.7056Z" fill="#13F584"/>
<path d="M103.606 86.8751C103.503 86.0424 102.828 85.0972 102.098 84.764C101.367 84.4307 100.858 84.8355 100.96 85.6682L103.737 108.283C103.839 109.116 104.514 110.061 105.245 110.394C105.975 110.727 106.484 110.323 106.382 109.49L103.606 86.8751Z" fill="#13F584"/>
<path d="M108.697 92.7563C109.428 93.0896 110.103 94.0347 110.205 94.8674L111.686 106.929C111.788 107.761 111.279 108.166 110.548 107.833C109.818 107.5 109.143 106.554 109.041 105.722L107.56 93.6605C107.458 92.8278 107.967 92.423 108.697 92.7563Z" fill="#13F584"/>
</g>
<defs>
<filter id="filter0_f_34_75995" x="43.3893" y="110.996" width="101.143" height="62.6836" filterUnits="userSpaceOnUse" color-interpolation-filters="sRGB">
<feFlood flood-opacity="0" result="BackgroundImageFix"/>
<feBlend mode="normal" in="SourceGraphic" in2="BackgroundImageFix" result="shape"/>
<feGaussianBlur stdDeviation="4.74542" result="effect1_foregroundBlur_34_75995"/>
</filter>
<filter id="filter1_f_34_75995" x="32.9901" y="26.792" width="40.7568" height="114.175" filterUnits="userSpaceOnUse" color-interpolation-filters="sRGB">
<feFlood flood-opacity="0" result="BackgroundImageFix"/>
<feBlend mode="normal" in="SourceGraphic" in2="BackgroundImageFix" result="shape"/>
<feGaussianBlur stdDeviation="5.21996" result="effect1_foregroundBlur_34_75995"/>
</filter>
<linearGradient id="paint0_linear_34_75995" x1="108.719" y1="124.875" x2="89.2245" y2="165.935" gradientUnits="userSpaceOnUse">
<stop offset="0.263581" stop-color="#12E179"/>
<stop offset="0.606819" stop-color="#12E179" stop-opacity="0"/>
</linearGradient>
<linearGradient id="paint1_linear_34_75995" x1="76.981" y1="69.2225" x2="33.124" y2="76.9856" gradientUnits="userSpaceOnUse">
<stop offset="0.225446" stop-color="#13F584"/>
<stop offset="0.747304" stop-color="#13F584" stop-opacity="0"/>
</linearGradient>
<clipPath id="clip0_34_75995">
<rect width="47.4542" height="47.4543" fill="white" transform="matrix(0.891921 0.40692 0.124817 1.01666 79.5604 58.8264)"/>
</clipPath>
</defs>
</svg>
