<svg width="164" height="117" viewBox="0 0 164 117" fill="none" xmlns="http://www.w3.org/2000/svg">
<path d="M86.3731 18.9817L1.11914 56.9391L76.8025 109.933L161.82 69.9949L86.3731 18.9817Z" fill="black"/>
<g filter="url(#filter0_f_34_76029)">
<path d="M76.8761 105.668V90.9573L151.379 59.4002V72.9247L76.8761 105.668Z" fill="url(#paint0_linear_34_76029)"/>
</g>
<g filter="url(#filter1_f_34_76029)">
<path d="M10.4398 58.2138L10.6771 43.0285L76.6387 90.9572V105.668L10.4398 58.2138Z" fill="url(#paint1_linear_34_76029)"/>
</g>
<path d="M76.876 108.99V90.9573L161.819 53.2312V70.0774L76.876 108.99Z" stroke="black" stroke-width="0.474542"/>
<path d="M0.948967 56.7903L1.18624 38.2831L76.6387 90.9573V108.99L0.948967 56.7903Z" stroke="black" stroke-width="0.474542"/>
<rect width="93.3221" height="92.3923" transform="matrix(-0.913546 0.406736 0.819153 0.573575 86.3735 5.72205e-06)" fill="black"/>
<g clip-path="url(#clip0_34_76029)">
<path d="M72.1543 60.4976L69.7415 60.4193C68.6672 60.3845 67.2054 59.9472 66.4933 59.4486L63.9017 57.6339C63.1891 57.135 62.9631 56.39 63.3995 55.9786L64.3799 55.0539L72.1543 60.4976Z" fill="#13F584"/>
<path d="M102.851 52.8441L103.832 51.9196C104.269 51.508 104.041 50.7631 103.329 50.2644L100.738 48.4498C100.025 47.9508 98.5642 47.5138 97.4903 47.4788L95.0767 47.4004L102.851 52.8441Z" fill="#13F584"/>
<path d="M66.7709 42.1544C58.2941 44.2679 57.2238 50.0429 64.3801 55.0539L72.1546 60.4976L74.4568 59.9236L66.6824 54.4799C60.6094 50.2275 61.5205 45.309 68.7145 43.5153C75.9085 41.7217 86.7014 43.722 92.7745 47.9744L103.141 55.2328C106.361 57.4876 105.879 60.0865 102.065 61.0376L97.4602 62.1856L95.5166 60.8247L92.4468 61.5901L96.334 64.3119L104.008 62.3985C109.094 61.1305 109.736 57.6651 105.443 54.6588L95.0767 47.4004C87.9203 42.3894 75.2468 40.0411 66.7709 42.1544Z" fill="#13F584"/>
<path d="M82.6283 47.4283L70.3496 50.4897C67.8075 51.1235 67.4858 52.8566 69.6323 54.3596L74.8152 57.9887C78.391 60.4925 84.7322 61.668 88.9678 60.6119L95.1074 59.0811C99.343 58.0251 99.8782 55.1351 96.3023 52.6313L91.1195 49.0022C88.9735 47.4991 85.1704 46.7945 82.6283 47.4283ZM93.2335 53.3965C95.3773 54.8976 95.0551 56.6333 92.5162 57.2663L86.3762 58.7972C83.8368 59.4304 80.0283 58.7245 77.8845 57.2234L72.7017 53.5943C71.9876 53.0943 72.0949 52.5154 72.9407 52.3045L85.2194 49.2431C86.0667 49.0318 87.3361 49.2675 88.0502 49.7675L93.2335 53.3965Z" fill="#13F584"/>
<path d="M89.2773 54.9982L90.5729 55.9054L88.9186 56.9332L87.383 57.316L84.4328 57.4363L83.1372 56.5291L89.2773 54.9982Z" fill="#13F584"/>
<path d="M74.964 45.3407C74.0692 44.7141 72.142 44.5063 70.658 44.8763C69.1739 45.2463 68.6971 46.0535 69.592 46.6801C70.2373 47.1319 71.4187 47.3615 72.5851 47.3187L75.3377 49.2461L77.6399 48.672L74.8866 46.7442C75.5314 46.3357 75.6085 45.792 74.964 45.3407Z" fill="#13F584"/>
<path d="M87.129 52.7655C87.667 53.1423 87.5856 53.5745 86.9497 53.733C86.3138 53.8916 85.3648 53.7163 84.8268 53.3396L83.5312 52.4324C82.9928 52.0554 83.0738 51.6229 83.7097 51.4643C84.3456 51.3058 85.295 51.4814 85.8334 51.8584L87.129 52.7655Z" fill="#13F584"/>
<path d="M81.7569 54.105C82.2949 54.4817 82.2131 54.914 81.5776 55.0724C80.9422 55.2309 79.9927 55.0557 79.4547 54.679L78.1591 53.7718C77.6207 53.3948 77.7022 52.9622 78.3376 52.8038C78.9731 52.6453 79.923 52.8208 80.4613 53.1978L81.7569 54.105Z" fill="#13F584"/>
</g>
<defs>
<filter id="filter0_f_34_76029" x="67.3851" y="49.9094" width="93.4851" height="65.2495" filterUnits="userSpaceOnUse" color-interpolation-filters="sRGB">
<feFlood flood-opacity="0" result="BackgroundImageFix"/>
<feBlend mode="normal" in="SourceGraphic" in2="BackgroundImageFix" result="shape"/>
<feGaussianBlur stdDeviation="4.74542" result="effect1_foregroundBlur_34_76029"/>
</filter>
<filter id="filter1_f_34_76029" x="1.62125e-05" y="32.5886" width="87.0786" height="83.5194" filterUnits="userSpaceOnUse" color-interpolation-filters="sRGB">
<feFlood flood-opacity="0" result="BackgroundImageFix"/>
<feBlend mode="normal" in="SourceGraphic" in2="BackgroundImageFix" result="shape"/>
<feGaussianBlur stdDeviation="5.21996" result="effect1_foregroundBlur_34_76029"/>
</filter>
<linearGradient id="paint0_linear_34_76029" x1="111.518" y1="59.6375" x2="129.076" y2="100.685" gradientUnits="userSpaceOnUse">
<stop offset="0.263581" stop-color="#12E179"/>
<stop offset="0.606819" stop-color="#12E179" stop-opacity="0"/>
</linearGradient>
<linearGradient id="paint1_linear_34_76029" x1="49.3524" y1="47.0621" x2="25.2982" y2="85.8412" gradientUnits="userSpaceOnUse">
<stop offset="0.225446" stop-color="#13F584"/>
<stop offset="0.747304" stop-color="#13F584" stop-opacity="0"/>
</linearGradient>
<clipPath id="clip0_34_76029">
<rect width="47.4542" height="47.4542" fill="white" transform="matrix(0.970296 -0.241922 0.819152 0.573576 39.8613 45.1727)"/>
</clipPath>
</defs>
</svg>
