<svg width="183" height="147" viewBox="0 0 183 147" fill="none" xmlns="http://www.w3.org/2000/svg">
<path d="M79.2422 39.1611L170.502 55.5209L108.988 125.466L17.5124 107.119L79.2422 39.1611Z" fill="black"/>
<g filter="url(#filter0_f_34_75983)">
<path d="M107.958 121.328L104.648 106.994L25.2595 94.27L28.3019 107.448L107.958 121.328Z" fill="url(#paint0_linear_34_75983)"/>
</g>
<g filter="url(#filter1_f_34_75983)">
<path d="M161.745 59.0179L158.099 44.2791L104.879 106.937L108.188 121.271L161.745 59.0179Z" fill="url(#paint1_linear_34_75983)"/>
</g>
<path d="M108.705 124.565L104.648 106.994L13.7419 90.7847L17.5315 107.199L108.705 124.565Z" stroke="black" stroke-width="0.474542"/>
<path d="M170.634 55.3347L166.24 37.3593L104.879 106.937L108.935 124.507L170.634 55.3347Z" stroke="black" stroke-width="0.474542"/>
<rect width="93.3218" height="92.392" transform="matrix(0.977905 0.175305 -0.665793 0.757047 74.9724 20.6659)" fill="black"/>
<g clip-path="url(#clip0_34_75983)">
<path d="M104.886 73.6113C103.005 73.2741 100.572 73.9334 98.8508 75.141L96.1801 74.6623L95.3773 72.2638C95.296 72.0206 95.0475 71.8475 94.6868 71.7829L87.3047 70.4595L89.4205 68.0537L96.8025 69.3771C97.1634 69.4418 97.607 69.3928 98.0357 69.241L102.264 67.7445L104.935 68.2232C103.451 72.0115 110.785 72.4046 114.187 68.6626C117.397 64.8858 111.462 62.9014 106.787 66.117L103.553 65.5373C103.192 65.4726 102.749 65.5215 102.32 65.6733L98.0914 67.1699L91.2727 65.9475L94.3805 62.4138L98.8484 63.2148C99.2093 63.2794 99.6528 63.2305 100.082 63.0787L105.064 61.3155C106.856 62.9186 111.757 61.8901 113.845 59.4607C115.45 57.6361 114.838 55.8079 112.481 55.3854C109.381 54.7924 104.903 57.0832 104.45 59.4813L100.137 61.0075L96.2329 60.3075L99.2747 56.8488C104.981 50.0601 93.5233 47.0357 85.9545 53.2418L85.727 53.201C80.4887 52.1034 71.8853 56.5598 72.4745 60.5377C65.1601 61.4777 59.6625 67.7332 63.5546 70.6802C57.0807 73.3931 56.5717 79.299 62.0502 80.1229L62.2777 80.1637C58.3553 87.0287 71.295 88.3669 77.4503 81.6645L80.4922 78.2056L84.3967 78.9056L85.2156 81.3516C81.902 83.2368 81.6794 86.2908 84.8365 86.8192C87.1934 87.2418 90.4164 86.1011 92.0211 84.2765C94.1924 81.8622 92.1896 79.5955 88.4492 80.2071L87.5032 77.3812C87.4218 77.138 87.1734 76.965 86.8126 76.9003L82.3447 76.0994L85.4524 72.5656L92.2711 73.788L93.074 76.1865C93.1553 76.4297 93.4037 76.6027 93.7645 76.6674L96.9986 77.2472C95.5153 81.0361 102.85 81.4282 106.251 77.6865C107.855 75.862 107.243 74.0338 104.886 73.6113ZM110.97 66.6936C111.827 66.8472 112.049 67.5118 111.466 68.1751C109.986 69.7546 107.035 69.2251 108.358 67.618C108.941 66.9547 110.113 66.5401 110.97 66.6936ZM110.629 57.4917C111.485 57.6453 111.708 58.3099 111.125 58.9731C109.645 60.5526 106.694 60.0232 108.017 58.416C108.6 57.7528 109.772 57.3381 110.629 57.4917ZM90.6019 63.129C88.4269 65.45 84.0939 64.6706 86.0372 62.3107C86.5487 61.7291 86.3543 61.1484 85.603 61.0137C84.8518 60.8791 83.828 61.2414 83.3165 61.823C80.7555 64.6693 83.1569 67.3312 87.5722 66.5738L83.7112 70.9641C81.6481 69.0455 75.8578 70.2386 73.3962 73.103C72.8848 73.6845 73.0791 74.2651 73.8305 74.3998C74.5818 74.5345 75.6055 74.1722 76.117 73.5906C78.2906 71.2701 82.6254 72.0487 80.6816 74.4089L74.7295 81.1768C70.4744 85.7189 61.9886 84.1962 65.7937 79.5749C66.377 78.9116 67.5486 78.497 68.4053 78.6505C69.1566 78.7852 70.1803 78.4229 70.6918 77.8413C71.2033 77.2597 71.0089 76.679 70.2576 76.5443C68.3763 76.2071 65.9438 76.8664 64.2224 78.074L63.9024 78.0167C61.4388 77.575 60.7991 75.6641 62.4764 73.7569C63.6068 72.4716 65.877 71.6681 67.5372 71.9657C69.3839 72.2376 71.1468 70.2341 69.3895 69.8595L67.9326 69.5984C62.1653 68.3625 67.9483 61.7929 74.0164 62.6807L75.4735 62.9419C77.3221 63.2131 79.0824 61.2102 77.3258 60.8357C75.6657 60.5381 75.2346 59.2503 76.3649 57.9651C78.0422 56.0579 81.4111 54.8655 83.8748 55.3072L84.1947 55.3645C83.6125 56.7763 84.3805 58.0095 86.2619 58.3467C87.0132 58.4814 88.037 58.1191 88.5484 57.5375C89.0599 56.9559 88.8655 56.3752 88.1143 56.2405C87.2575 56.0869 87.0351 55.4224 87.6184 54.7591C91.8716 50.2177 100.36 51.7393 96.5542 56.361L90.602 63.129L90.6019 63.129ZM88.8042 82.3075C89.6609 82.461 89.8835 83.1256 89.3002 83.7889C87.8206 85.3684 84.8692 84.8389 86.1926 83.2318C86.7759 82.5685 87.9475 82.1539 88.8042 82.3075ZM100.918 78.1232C100.061 77.9696 99.8387 77.3051 100.422 76.6418C101.902 75.0622 104.853 75.5918 103.53 77.1989C102.946 77.8622 101.775 78.2768 100.918 78.1232Z" fill="#13F584"/>
</g>
<defs>
<filter id="filter0_f_34_75983" x="15.7687" y="84.7792" width="101.68" height="46.0398" filterUnits="userSpaceOnUse" color-interpolation-filters="sRGB">
<feFlood flood-opacity="0" result="BackgroundImageFix"/>
<feBlend mode="normal" in="SourceGraphic" in2="BackgroundImageFix" result="shape"/>
<feGaussianBlur stdDeviation="4.74542" result="effect1_foregroundBlur_34_75983"/>
</filter>
<filter id="filter1_f_34_75983" x="94.4387" y="33.8392" width="77.7463" height="97.8714" filterUnits="userSpaceOnUse" color-interpolation-filters="sRGB">
<feFlood flood-opacity="0" result="BackgroundImageFix"/>
<feBlend mode="normal" in="SourceGraphic" in2="BackgroundImageFix" result="shape"/>
<feGaussianBlur stdDeviation="5.21996" result="effect1_foregroundBlur_34_75983"/>
</filter>
<linearGradient id="paint0_linear_34_75983" x1="63.9904" y1="84.8578" x2="56.7221" y2="129.189" gradientUnits="userSpaceOnUse">
<stop offset="0.263581" stop-color="#12E179"/>
<stop offset="0.606819" stop-color="#12E179" stop-opacity="0"/>
</linearGradient>
<linearGradient id="paint1_linear_34_75983" x1="121.48" y1="57.5657" x2="153.789" y2="89.281" gradientUnits="userSpaceOnUse">
<stop offset="0.225446" stop-color="#13F584"/>
<stop offset="0.747304" stop-color="#13F584" stop-opacity="0"/>
</linearGradient>
<clipPath id="clip0_34_75983">
<rect width="47.4542" height="47.4542" fill="white" transform="matrix(0.977905 0.175305 -0.665793 0.757047 79.6101 46.8933)"/>
</clipPath>
</defs>
</svg>
