<svg width="517" height="795" viewBox="0 0 517 795" fill="none" xmlns="http://www.w3.org/2000/svg">
<g filter="url(#filter0_f_297_220159)">
<path d="M315.318 575.853C323.66 458.347 336.475 222.497 337.305 219.146L293.488 219.146L315.318 575.853Z" fill="#27F68E"/>
<path d="M297.007 583.532C305.349 466.026 318.164 230.176 318.994 226.825L275.177 226.825L297.007 583.532Z" fill="#27F68E"/>
<path d="M275.426 545.139C283.768 427.633 296.583 191.783 297.413 188.432L253.596 188.432L275.426 545.139Z" fill="#27F68E"/>
<path d="M222.453 560.496C230.795 442.99 243.61 207.14 244.439 203.789L200.623 203.789L222.453 560.496Z" fill="#27F68E"/>
<path d="M185.83 545.139C194.172 427.633 206.987 191.783 207.817 188.432L164 188.432L185.83 545.139Z" fill="#27F68E"/>
<path d="M241.418 631C249.76 513.494 262.575 277.644 263.405 274.293L219.588 274.293L241.418 631Z" fill="#27F68E"/>
<path d="M322.178 520.707C333.872 403.201 351.837 167.351 353 164L291.575 164L322.178 520.707Z" fill="#27F68E"/>
</g>
<defs>
<filter id="filter0_f_297_220159" x="0" y="0" width="517" height="795" filterUnits="userSpaceOnUse" color-interpolation-filters="sRGB">
<feFlood flood-opacity="0" result="BackgroundImageFix"/>
<feBlend mode="normal" in="SourceGraphic" in2="BackgroundImageFix" result="shape"/>
<feGaussianBlur stdDeviation="82" result="effect1_foregroundBlur_297_220159"/>
</filter>
</defs>
</svg>
