<svg width="184" height="183" viewBox="0 0 184 183" fill="none" xmlns="http://www.w3.org/2000/svg">
<path d="M43.667 51.6321H139.819C153.843 51.6321 165.162 63.1707 165.162 77.195V103.216C165.162 131.494 142.084 154.801 113.577 154.801H69.6883C41.4104 154.801 18.104 131.494 18.104 103.216V77.195C18.104 63.1707 29.6426 51.6321 43.667 51.6321Z" fill="white" fill-opacity="0.2"/>
<path d="M159.51 126.524C171.957 122.223 180.78 110.464 180.78 96.4306C180.78 84.2133 173.993 73.5826 163.812 68.373C164.72 71.088 165.169 73.803 165.169 76.7471V102.989C165.16 111.363 163.124 119.508 159.51 126.524Z" fill="url(#paint0_linear_34_64718)"/>
<path d="M23.3999 127.778C10.958 123.43 2.13768 111.544 2.13768 97.3598C2.13768 85.0109 8.92256 74.2657 19.0999 69C18.1923 71.7442 17.7429 74.4884 17.7429 77.4643V103.989C17.7517 112.453 19.7872 120.686 23.3999 127.778Z" fill="url(#paint1_linear_34_64718)"/>
<path d="M112.001 79.2306H71.2767C63.1318 79.2306 55.8949 75.1582 51.364 68.8203H49.0986V69.4991C52.9419 77.8731 61.5452 83.7526 71.2679 83.7526H111.992C121.944 83.7526 130.318 77.8731 134.162 69.4991V68.8203H131.896C127.612 75.1582 120.366 79.2306 112.001 79.2306Z" fill="url(#paint2_linear_34_64718)"/>
<path d="M69.2388 149.37C40.2821 149.37 16.7466 125.844 16.7466 96.8781V100.501C16.7466 129.458 40.2733 152.993 69.2388 152.993H114.036C142.992 152.993 166.748 129.466 166.748 100.501V96.8781C166.748 125.835 142.992 149.37 114.036 149.37H69.2388Z" fill="#71FDB7"/>
<path d="M68.78 27.4268H114.485C139.369 27.4268 160.19 45.7528 164.033 69.5087C160.868 59.0984 151.137 51.6322 139.827 51.6322H43.6666C32.3572 51.6322 22.6256 59.0984 19.2319 69.5087C23.3044 45.7528 43.8958 27.4268 68.78 27.4268Z" fill="url(#paint3_linear_34_64718)"/>
<path d="M69.4602 25.1619H113.808C115.165 25.1619 116.293 26.0698 116.293 27.4273C116.293 28.106 116.064 28.5556 115.844 29.0139C113.129 32.8572 109.735 36.2509 105.433 38.7455C101.361 41.0109 96.6099 42.3684 91.6295 42.3684C86.6491 42.3684 81.8979 41.0109 77.8255 38.7455C73.5239 36.2597 70.1301 32.866 67.4152 28.7936C66.7365 27.6653 67.186 26.0786 68.3231 25.3999C68.5611 25.1619 69.0107 25.1619 69.4602 25.1619ZM108.827 29.9131H74.4406C76.0273 31.7201 78.0635 33.3068 80.0997 34.4351C83.4934 36.2421 87.5658 37.3792 91.6383 37.3792C95.9399 37.3792 99.7832 36.2509 103.177 34.4351C105.204 33.3068 107.241 31.7201 108.827 29.9131Z" fill="black"/>
<path d="M68.7822 25.1619H114.487C127.383 25.1619 139.371 29.6839 148.424 37.6084C157.697 45.5241 164.264 56.6131 166.521 69.0596C166.75 70.4171 165.842 71.5454 164.485 71.7746C163.127 72.0038 161.999 71.3251 161.77 69.9676C160.183 65.4456 157.248 61.3731 153.396 58.6582C149.552 55.714 144.801 54.1362 139.821 54.1362H43.6688C38.4681 54.1362 33.7169 55.7228 30.094 58.6582C26.0215 61.3731 23.0774 65.4456 21.4995 70.1968C21.2703 71.5542 19.9129 72.233 18.5554 71.7834C17.4271 71.3339 16.7484 70.1968 16.9687 69.0685C19.0049 56.6219 25.5632 45.5417 34.8452 37.6172C44.1184 29.6839 55.8861 25.1619 68.7822 25.1619ZM114.487 29.9131H68.7822C57.0144 29.9131 46.3838 34.2147 38.0097 41.2225C33.4877 45.0657 29.8648 49.5965 26.9207 54.7973L27.1498 54.5681C31.6718 51.1744 37.5601 49.1382 43.6688 49.1382H139.821C145.929 49.1382 151.589 51.1744 156.111 54.5681L156.34 54.7973C153.625 49.5965 149.782 45.0657 145.251 41.2225C137.115 34.2147 126.255 29.9131 114.487 29.9131Z" fill="black"/>
<path d="M61.7648 137.384C61.7648 136.026 63.1223 135.118 64.2506 135.118C65.6081 135.347 66.7364 136.476 66.516 137.833C66.2868 140.319 66.0665 142.813 66.2868 145.299C66.516 147.785 66.9656 150.28 67.6443 152.765C67.8735 154.123 67.1948 155.48 65.8373 155.71C64.4798 156.159 63.1223 155.26 62.8931 153.902C62.2144 151.188 61.7648 148.473 61.5357 145.758C61.3153 143.034 61.3153 140.098 61.7648 137.384Z" fill="black"/>
<path d="M117.651 137.833C117.422 136.476 118.33 135.347 119.687 135.118C121.045 135.118 122.173 136.026 122.402 137.384C122.631 140.098 122.852 143.043 122.631 145.758C122.402 148.473 121.953 151.188 121.274 153.902C120.824 155.26 119.467 156.168 118.33 155.71C116.972 155.48 116.064 154.123 116.523 152.765C117.202 150.28 117.651 147.785 117.651 145.299C117.88 142.813 117.88 140.319 117.651 137.833Z" fill="black"/>
<path d="M43.6681 49.1464H139.82C147.515 49.1464 154.303 52.3109 159.504 57.5205C164.484 62.5008 167.648 69.5086 167.648 77.204V103.225C167.648 118.158 161.54 131.503 151.808 141.464C142.077 151.196 128.502 157.304 113.57 157.304H69.6806C54.7483 157.304 41.4027 151.196 31.4419 141.464C21.7104 131.512 15.6017 118.158 15.6017 103.225V77.1951C15.6017 69.4998 18.7662 62.492 23.9758 57.5117C28.965 52.3109 35.9727 49.1464 43.6681 49.1464ZM139.829 54.118H43.6681C37.3302 54.118 31.4507 56.6037 27.3783 60.9054C23.0767 64.9778 20.5909 70.8573 20.5909 77.1951V103.216C20.5909 116.791 26.0208 129.009 35.0736 137.832C43.8973 146.885 56.1146 152.315 69.6894 152.315H113.578C127.153 152.315 139.371 146.885 148.423 137.832C157.247 129.009 162.906 116.791 162.906 103.216V77.1951C162.906 70.8573 160.191 64.9778 156.119 60.9054C151.817 56.6125 146.158 54.118 139.829 54.118Z" fill="black"/>
<path d="M22.8568 129.009C16.2986 126.743 10.4103 122.221 6.33785 116.562C2.49459 111.132 0 104.116 0 96.8786C0 90.3204 1.80704 84.4321 4.98037 79.2313C8.14489 73.8014 12.8961 69.4998 18.5552 66.5644C19.6835 65.8857 21.041 66.3353 21.7197 67.6927C21.9489 68.1423 21.9489 68.821 21.9489 69.4998C21.4993 70.6281 21.041 71.9855 20.8206 73.343C20.5914 74.4713 20.5914 75.8288 20.5914 77.1863V103.208C20.5914 107.28 21.041 111.123 21.9489 114.746C22.8568 118.589 24.2143 122.212 26.0213 125.606C26.7001 126.964 26.2505 128.321 24.893 129C24.2143 129.238 23.5356 129.238 22.8568 129.009ZM10.4103 113.847C12.6757 117.012 15.611 119.727 19.0047 121.992C18.326 119.956 17.6473 117.92 17.1977 115.883C16.2898 111.811 15.611 107.509 15.611 103.216V77.1951C15.611 76.0668 15.8402 74.9297 15.8402 74.0306C13.1253 76.0668 10.8598 78.7818 9.05281 81.7259C6.56703 86.0275 4.98037 91.2283 4.98037 96.8874C4.98037 103.216 7.01659 109.096 10.4103 113.847Z" fill="black"/>
<path d="M164.264 121.542C167.658 119.506 170.602 116.791 173.088 113.398C176.482 108.646 178.289 102.767 178.289 96.4291C178.289 90.9991 176.931 85.7984 174.216 81.2676C172.409 78.3234 170.144 75.8377 167.429 73.5722C167.658 74.7005 167.658 75.8377 167.658 76.7368V102.978C167.658 107.28 167.208 111.573 166.071 115.645C165.622 117.699 164.943 119.735 164.264 121.542ZM176.931 116.342C172.859 122.001 167.2 126.294 160.412 128.788C159.733 129.017 159.055 129.017 158.376 128.788C157.248 128.11 156.789 126.523 157.248 125.395C159.055 122.001 160.412 118.378 161.32 114.535C162.228 110.691 162.907 106.839 162.907 102.996V76.7456C162.907 75.3881 162.678 74.2598 162.457 72.9023C162.228 71.774 162.008 70.4165 161.549 69.2794C161.32 68.6007 161.32 67.9219 161.549 67.2432C162.228 66.1149 163.815 65.6565 164.943 66.3353C170.373 69.0502 175.124 73.5722 178.289 78.7818C181.453 83.9825 183.269 90.0912 183.269 96.4291C183.269 103.895 181.004 110.683 176.931 116.342Z" fill="black"/>
<path d="M46.832 69.9594H49.0974C52.9406 78.3334 61.5439 84.2129 71.2666 84.2129H111.991C121.943 84.2129 130.317 78.3334 134.16 69.9594H136.426C145.479 69.9594 152.945 77.4255 152.945 86.4783V103.447C152.945 121.773 138.012 136.705 119.457 136.705H63.8005C45.4745 136.705 30.313 121.773 30.313 103.447V86.4783C30.3218 77.4255 37.788 69.9594 46.832 69.9594Z" fill="black"/>
<path d="M89.6009 93.716C89.6009 92.808 90.5089 91.9089 91.408 91.9089C92.5363 91.9089 93.215 92.8169 93.215 93.716V118.6C93.215 119.508 92.5363 120.407 91.408 120.407C90.5001 120.407 89.6009 119.499 89.6009 118.6V93.716Z" fill="url(#paint4_linear_34_64718)"/>
<path d="M99.1032 97.1088C99.1032 96.2008 100.011 95.3017 100.91 95.3017C102.039 95.3017 102.717 96.2097 102.717 97.1088V115.206C102.717 116.334 102.039 117.013 100.91 117.013C100.002 117.013 99.1032 116.334 99.1032 115.206V97.1088Z" fill="url(#paint5_linear_34_64718)"/>
<path d="M108.605 94.844C108.605 93.9361 109.513 93.037 110.413 93.037C111.541 93.037 112.22 93.9449 112.22 94.844V117.472C112.22 118.6 111.541 119.279 110.413 119.279C109.505 119.279 108.605 118.6 108.605 117.472V94.844Z" fill="url(#paint6_linear_34_64718)"/>
<path d="M117.429 101.632C117.429 100.503 118.337 99.8247 119.237 99.8247C120.365 99.8247 121.044 100.503 121.044 101.632V110.905C121.044 111.813 120.365 112.712 119.237 112.712C118.329 112.712 117.429 111.804 117.429 110.905V101.632Z" fill="url(#paint7_linear_34_64718)"/>
<path d="M80.5477 97.1088C80.5477 96.2008 81.4556 95.3017 82.3548 95.3017C83.4831 95.3017 84.1618 96.2097 84.1618 97.1088V115.206C84.1618 116.334 83.4831 117.013 82.3548 117.013C81.4468 117.013 80.5477 116.334 80.5477 115.206V97.1088Z" fill="url(#paint8_linear_34_64718)"/>
<path d="M71.0462 94.844C71.0462 93.9361 71.9541 93.037 72.8532 93.037C73.9815 93.037 74.6602 93.9449 74.6602 94.844V117.472C74.6602 118.6 73.9815 119.279 72.8532 119.279C71.9453 119.279 71.0462 118.6 71.0462 117.472V94.844Z" fill="url(#paint9_linear_34_64718)"/>
<path d="M62.2222 101.632C62.2222 100.503 63.1301 99.8247 64.0292 99.8247C65.1575 99.8247 65.8362 100.503 65.8362 101.632V110.905C65.8362 111.813 65.1575 112.712 64.0292 112.712C63.1213 112.712 62.2222 111.804 62.2222 110.905V101.632Z" fill="url(#paint10_linear_34_64718)"/>
<defs>
<linearGradient id="paint0_linear_34_64718" x1="159.51" y1="97.4487" x2="180.78" y2="97.4487" gradientUnits="userSpaceOnUse">
<stop stop-color="#13F584"/>
<stop offset="1" stop-color="#8EFFC7"/>
</linearGradient>
<linearGradient id="paint1_linear_34_64718" x1="23.3999" y1="98.3889" x2="2.13768" y2="98.3889" gradientUnits="userSpaceOnUse">
<stop stop-color="#13F584"/>
<stop offset="1" stop-color="#8EFFC7"/>
</linearGradient>
<linearGradient id="paint2_linear_34_64718" x1="49.0986" y1="76.2865" x2="134.162" y2="76.2865" gradientUnits="userSpaceOnUse">
<stop stop-color="#13F584"/>
<stop offset="1" stop-color="#8EFFC7"/>
</linearGradient>
<linearGradient id="paint3_linear_34_64718" x1="19.2319" y1="48.4677" x2="164.033" y2="48.4677" gradientUnits="userSpaceOnUse">
<stop stop-color="#13F584"/>
<stop offset="1" stop-color="#8EFFC7"/>
</linearGradient>
<linearGradient id="paint4_linear_34_64718" x1="62.2222" y1="106.158" x2="121.044" y2="106.158" gradientUnits="userSpaceOnUse">
<stop stop-color="#13F584"/>
<stop offset="1" stop-color="#8EFFC7"/>
</linearGradient>
<linearGradient id="paint5_linear_34_64718" x1="62.2222" y1="106.158" x2="121.044" y2="106.158" gradientUnits="userSpaceOnUse">
<stop stop-color="#13F584"/>
<stop offset="1" stop-color="#8EFFC7"/>
</linearGradient>
<linearGradient id="paint6_linear_34_64718" x1="62.2222" y1="106.158" x2="121.044" y2="106.158" gradientUnits="userSpaceOnUse">
<stop stop-color="#13F584"/>
<stop offset="1" stop-color="#8EFFC7"/>
</linearGradient>
<linearGradient id="paint7_linear_34_64718" x1="62.2222" y1="106.158" x2="121.044" y2="106.158" gradientUnits="userSpaceOnUse">
<stop stop-color="#13F584"/>
<stop offset="1" stop-color="#8EFFC7"/>
</linearGradient>
<linearGradient id="paint8_linear_34_64718" x1="62.2222" y1="106.158" x2="121.044" y2="106.158" gradientUnits="userSpaceOnUse">
<stop stop-color="#13F584"/>
<stop offset="1" stop-color="#8EFFC7"/>
</linearGradient>
<linearGradient id="paint9_linear_34_64718" x1="62.2222" y1="106.158" x2="121.044" y2="106.158" gradientUnits="userSpaceOnUse">
<stop stop-color="#13F584"/>
<stop offset="1" stop-color="#8EFFC7"/>
</linearGradient>
<linearGradient id="paint10_linear_34_64718" x1="62.2222" y1="106.158" x2="121.044" y2="106.158" gradientUnits="userSpaceOnUse">
<stop stop-color="#13F584"/>
<stop offset="1" stop-color="#8EFFC7"/>
</linearGradient>
</defs>
</svg>
