<svg width="12" height="12" viewBox="0 0 12 12" fill="none" xmlns="http://www.w3.org/2000/svg">
<path d="M6 1.08434C7.59036 1.08434 7.80723 1.08434 8.45783 1.08434C9.03615 1.08434 9.3253 1.22892 9.54217 1.30121C9.83133 1.44578 10.0482 1.51807 10.2651 1.73494C10.4819 1.95181 10.6265 2.16868 10.6988 2.45783C10.7711 2.6747 10.8434 2.96386 10.9157 3.54217C10.9157 4.19277 10.9157 4.33735 10.9157 6C10.9157 7.66265 10.9157 7.80723 10.9157 8.45783C10.9157 9.03615 10.7711 9.3253 10.6988 9.54217C10.5542 9.83133 10.4819 10.0482 10.2651 10.2651C10.0482 10.4819 9.83133 10.6265 9.54217 10.6988C9.3253 10.7711 9.03615 10.8434 8.45783 10.9157C7.80723 10.9157 7.66265 10.9157 6 10.9157C4.33735 10.9157 4.19277 10.9157 3.54217 10.9157C2.96386 10.9157 2.6747 10.7711 2.45783 10.6988C2.16868 10.5542 1.95181 10.4819 1.73494 10.2651C1.51807 10.0482 1.37349 9.83133 1.30121 9.54217C1.22892 9.3253 1.15663 9.03615 1.08434 8.45783C1.08434 7.80723 1.08434 7.66265 1.08434 6C1.08434 4.33735 1.08434 4.19277 1.08434 3.54217C1.08434 2.96386 1.22892 2.6747 1.30121 2.45783C1.44578 2.16868 1.51807 1.95181 1.73494 1.73494C1.95181 1.51807 2.16868 1.37349 2.45783 1.30121C2.6747 1.22892 2.96386 1.15663 3.54217 1.08434C4.19277 1.08434 4.40964 1.08434 6 1.08434ZM6 0C4.33735 0 4.19277 0 3.54217 0C2.89157 0 2.45783 0.144579 2.09639 0.289157C1.73494 0.433735 1.37349 0.650603 1.01205 1.01205C0.650603 1.37349 0.506025 1.66265 0.289157 2.09639C0.144579 2.45783 0.0722892 2.89157 0 3.54217C0 4.19277 0 4.40964 0 6C0 7.66265 0 7.80723 0 8.45783C0 9.10843 0.144579 9.54217 0.289157 9.90361C0.433735 10.2651 0.650603 10.6265 1.01205 10.988C1.37349 11.3494 1.66265 11.494 2.09639 11.7108C2.45783 11.8554 2.89157 11.9277 3.54217 12C4.19277 12 4.40964 12 6 12C7.59036 12 7.80723 12 8.45783 12C9.10843 12 9.54217 11.8554 9.90361 11.7108C10.2651 11.5663 10.6265 11.3494 10.988 10.988C11.3494 10.6265 11.494 10.3374 11.7108 9.90361C11.8554 9.54217 11.9277 9.10843 12 8.45783C12 7.80723 12 7.59036 12 6C12 4.40964 12 4.19277 12 3.54217C12 2.89157 11.8554 2.45783 11.7108 2.09639C11.5663 1.73494 11.3494 1.37349 10.988 1.01205C10.6265 0.650603 10.3374 0.506025 9.90361 0.289157C9.54217 0.144579 9.10843 0.0722892 8.45783 0C7.80723 0 7.66265 0 6 0Z" fill="white"/>
<path d="M6 2.89157C4.26506 2.89157 2.89157 4.26506 2.89157 6C2.89157 7.73494 4.26506 9.10843 6 9.10843C7.73494 9.10843 9.10843 7.73494 9.10843 6C9.10843 4.26506 7.73494 2.89157 6 2.89157ZM6 8.0241C4.91566 8.0241 3.9759 7.15663 3.9759 6C3.9759 4.91566 4.84337 3.9759 6 3.9759C7.08434 3.9759 8.0241 4.84337 8.0241 6C8.0241 7.08434 7.08434 8.0241 6 8.0241Z" fill="white"/>
<path d="M9.18072 3.54217C9.57997 3.54217 9.90361 3.21852 9.90361 2.81928C9.90361 2.42004 9.57997 2.09639 9.18072 2.09639C8.78148 2.09639 8.45783 2.42004 8.45783 2.81928C8.45783 3.21852 8.78148 3.54217 9.18072 3.54217Z" fill="white"/>
</svg>
