<svg width="12" height="10" viewBox="0 0 12 10" fill="none" xmlns="http://www.w3.org/2000/svg">
<path d="M0.824937 4.19735C4.04616 2.82141 6.19414 1.91431 7.26889 1.47604C10.3375 0.224695 10.9751 0.00732386 11.3907 6.95864e-05C11.4822 -0.00143255 11.6865 0.020777 11.8189 0.126097C11.9307 0.215027 11.9615 0.33516 11.9762 0.419475C11.9909 0.503791 12.0092 0.695864 11.9947 0.845944C11.8284 2.55894 11.1088 6.71592 10.7428 8.63451C10.5879 9.44633 10.2829 9.71853 9.98764 9.74517C9.34596 9.80306 8.8587 9.32941 8.2372 8.92999C7.26468 8.30498 6.71527 7.91591 5.77127 7.30602C4.68032 6.60118 5.38754 6.21379 6.00927 5.58068C6.17198 5.41499 8.99923 2.89377 9.05395 2.66506C9.06079 2.63645 9.06714 2.52983 9.00253 2.47353C8.93793 2.41723 8.84257 2.43648 8.77375 2.45179C8.67621 2.4735 7.1226 3.48026 4.11292 5.47208C3.67193 5.76897 3.2725 5.91362 2.91462 5.90604C2.52009 5.89768 1.76117 5.68733 1.19699 5.50753C0.504996 5.287 -0.0449838 5.1704 0.00290711 4.79587C0.0278516 4.60079 0.301862 4.40129 0.824937 4.19735Z" fill="white"/>
</svg>
