<svg width="14" height="14" viewBox="0 0 14 14" fill="none" xmlns="http://www.w3.org/2000/svg">
<path fill-rule="evenodd" clip-rule="evenodd" d="M11.475 1.94063C10.2094 0.675 8.52188 0 6.75 0C3.0375 0 0 3.0375 0 6.75C0 7.93125 0.337505 9.1125 0.92813 10.125L0 13.5L3.54376 12.5719C4.55626 13.0781 5.65312 13.4156 6.75 13.4156C10.4625 13.4156 13.5 10.3781 13.5 6.66562C13.5 4.89375 12.7406 3.20625 11.475 1.94063ZM6.75 12.3188C5.7375 12.3188 4.72501 12.0656 3.88126 11.5594L3.71249 11.475L1.60312 12.0656L2.19376 10.0406L2.02499 9.7875C1.43437 8.85938 1.18124 7.84688 1.18124 6.83438C1.18124 3.79688 3.7125 1.26562 6.75 1.26562C8.26875 1.26562 9.61876 1.85625 10.7156 2.86875C11.8125 3.96562 12.3188 5.31563 12.3188 6.83438C12.3188 9.7875 9.87187 12.3188 6.75 12.3188ZM9.78751 8.1C9.61876 8.01562 8.77501 7.59375 8.60626 7.59375C8.43751 7.50938 8.35312 7.50938 8.26874 7.67813C8.18436 7.84688 7.84689 8.18437 7.76251 8.35312C7.67814 8.4375 7.59374 8.4375 7.42499 8.4375C7.25624 8.35312 6.75001 8.18437 6.07501 7.59375C5.56876 7.17188 5.23126 6.58125 5.14688 6.4125C5.06251 6.24375 5.14689 6.15937 5.23126 6.075C5.31564 5.99062 5.4 5.90625 5.48438 5.82187C5.56875 5.7375 5.56876 5.65313 5.65314 5.56875C5.73751 5.48438 5.65314 5.4 5.65314 5.31563C5.65314 5.23125 5.31563 4.3875 5.14688 4.05C5.06251 3.79688 4.89376 3.79688 4.80939 3.79688C4.72501 3.79688 4.64061 3.79688 4.47186 3.79688C4.38749 3.79688 4.21874 3.79687 4.04999 3.96562C3.88124 4.13437 3.45938 4.55625 3.45938 5.4C3.45938 6.24375 4.04999 7.00313 4.13437 7.17188C4.21874 7.25625 5.31561 9.02812 7.00311 9.70312C8.43749 10.2937 8.69064 10.125 9.02814 10.125C9.36563 10.125 10.0406 9.70312 10.125 9.36563C10.2937 8.94375 10.2938 8.60625 10.2094 8.60625C10.125 8.18438 9.95625 8.18438 9.78751 8.1Z" fill="white"/>
</svg>
