<svg width="17" height="12" viewBox="0 0 17 12" fill="none" xmlns="http://www.w3.org/2000/svg">
<path d="M16.0875 1.82143C15.8813 1.07143 15.3656 0.535714 14.6438 0.321429C13.4063 1.91586e-07 8.14687 0 8.14687 0C8.14687 0 2.99063 1.91586e-07 1.65001 0.321429C0.928131 0.535714 0.412497 1.07143 0.206247 1.82143C-3.1502e-06 3.21429 0 6 0 6C0 6 3.13483e-06 8.78571 0.309378 10.1786C0.515628 10.9286 1.03125 11.4643 1.75312 11.6786C2.99062 12 8.25 12 8.25 12C8.25 12 13.4062 12 14.7469 11.6786C15.4687 11.4643 15.9844 10.9286 16.1906 10.1786C16.5 8.78571 16.5 6 16.5 6C16.5 6 16.5 3.21429 16.0875 1.82143ZM6.59999 8.57143V3.42857L10.9313 6L6.59999 8.57143Z" fill="white"/>
</svg>
