<svg width="40" height="40" viewBox="0 0 40 40" fill="none" xmlns="http://www.w3.org/2000/svg">
<g clip-path="url(#clip0_214_122208)">
<path fill-rule="evenodd" clip-rule="evenodd" d="M19.936 0.605469C23.5417 0.646615 26.7991 1.53279 29.7083 3.26401C32.5827 4.96066 34.9738 7.36637 36.6529 10.2511C38.3736 13.1777 39.2544 16.4549 39.2954 20.0826C39.1932 25.0461 37.6277 29.2854 34.5988 32.8006C31.5699 36.3158 27.6906 38.4904 23.6748 39.3241V25.4079H27.4714L28.33 19.9391H22.581V16.3573C22.5491 15.6147 22.7839 14.8852 23.243 14.3008C23.7028 13.7147 24.5124 13.4066 25.6719 13.3766H29.1435V8.58615C29.0937 8.57012 28.6211 8.50675 27.7256 8.39602C26.71 8.2772 25.6887 8.21373 24.6662 8.2059C22.352 8.21658 20.5217 8.86937 19.1755 10.1643C17.8292 11.4588 17.1415 13.3318 17.1123 15.7831V19.9391H12.7373V25.4079H17.1123V39.3241C12.1814 38.4904 8.30214 36.3158 5.27324 32.8006C2.24433 29.2854 0.678863 25.0461 0.57666 20.0826C0.617551 16.4547 1.49837 13.1776 3.21913 10.2511C4.89825 7.36637 7.28936 4.96066 10.1638 3.26401C13.0728 1.53313 16.3302 0.646948 19.936 0.605469Z" fill="white"/>
</g>
<defs>
<clipPath id="clip0_214_122208">
<rect width="40" height="40" fill="white"/>
</clipPath>
</defs>
</svg>
