<svg width="40" height="40" viewBox="0 0 40 40" fill="none" xmlns="http://www.w3.org/2000/svg">
<g clip-path="url(#clip0_214_122222)">
<path d="M17.0972 15.7793L24.5167 20.0004L17.0972 24.2215V15.7793Z" fill="white"/>
<path d="M20 0C8.95469 0 0 8.95469 0 20C0 31.0453 8.95469 40 20 40C31.0453 40 40 31.0453 40 20C40 8.95469 31.0453 0 20 0ZM33.6 26.8773C33.2742 28.1063 32.3117 29.0742 31.0906 29.4031C28.8766 30 20 30 20 30C20 30 11.1234 30 8.90938 29.4031C7.68828 29.0742 6.72578 28.1063 6.4 26.8773C5.80625 24.6484 5.80625 20 5.80625 20C5.80625 20 5.80625 15.3516 6.4 13.1227C6.72578 11.8938 7.68828 10.9258 8.90938 10.5969C11.1234 10 20 10 20 10C20 10 28.8766 10 31.0906 10.5969C32.3117 10.9258 33.2742 11.8938 33.6 13.1227C34.1937 15.3516 34.1937 20 34.1937 20C34.1937 20 34.1937 24.6484 33.6 26.8773Z" fill="white"/>
</g>
<defs>
<clipPath id="clip0_214_122222">
<rect width="40" height="40" fill="white"/>
</clipPath>
</defs>
</svg>
