<svg width="702" height="702" viewBox="0 0 702 702" fill="none" xmlns="http://www.w3.org/2000/svg">
<path d="M533.654 231.828C511.982 198.457 481.597 171.647 445.787 154.3L443.885 158.227C478.979 175.227 508.756 201.501 529.994 234.205L533.654 231.828Z" fill="url(#paint0_linear_380_238376)"/>
<path d="M167.673 469.499C189.345 502.87 219.73 529.68 255.54 547.027L257.442 543.1C222.348 526.099 192.571 499.826 171.333 467.122L167.673 469.499Z" fill="url(#paint1_linear_380_238376)"/>
<path d="M559.672 413.294C574.271 364.575 571.392 312.286 551.532 265.463L547.515 267.167C566.977 313.053 569.799 364.296 555.492 412.041L559.672 413.294Z" fill="url(#paint2_linear_380_238376)"/>
<path d="M149.226 266.818C129.681 313.773 127.154 366.08 142.081 414.7L146.253 413.42C131.625 365.772 134.101 314.511 153.254 268.495L149.226 266.818Z" fill="url(#paint3_linear_380_238376)"/>
<path d="M437.514 550.824C481.676 531.662 518.26 498.433 541.57 456.313L537.752 454.2C514.909 495.477 479.055 528.042 435.777 546.82L437.514 550.824Z" fill="url(#paint4_linear_380_238376)"/>
<path d="M263.813 150.503C219.651 169.665 183.066 202.894 159.757 245.014L163.575 247.127C186.418 205.849 222.271 173.285 265.55 154.506L263.813 150.503Z" fill="url(#paint5_linear_380_238376)"/>
<g filter="url(#filter0_f_380_238376)">
<circle cx="350.664" cy="350.663" r="200.936" stroke="#13F584" stroke-opacity="0.2" stroke-width="23.3776"/>
</g>
<circle cx="350.664" cy="350.663" r="212.068" stroke="#13F584" stroke-opacity="0.2" stroke-width="1.11322"/>
<defs>
<filter id="filter0_f_380_238376" x="0.000137329" y="-0.000106812" width="701.327" height="701.327" filterUnits="userSpaceOnUse" color-interpolation-filters="sRGB">
<feFlood flood-opacity="0" result="BackgroundImageFix"/>
<feBlend mode="normal" in="SourceGraphic" in2="BackgroundImageFix" result="shape"/>
<feGaussianBlur stdDeviation="69.0195" result="effect1_foregroundBlur_380_238376"/>
</filter>
<linearGradient id="paint0_linear_380_238376" x1="529.892" y1="233.775" x2="446.957" y2="154.18" gradientUnits="userSpaceOnUse">
<stop stop-color="#02F484" stop-opacity="0"/>
<stop offset="0.447522" stop-color="#02F484"/>
<stop offset="1" stop-color="#02F484" stop-opacity="0"/>
</linearGradient>
<linearGradient id="paint1_linear_380_238376" x1="171.435" y1="467.551" x2="254.37" y2="547.146" gradientUnits="userSpaceOnUse">
<stop stop-color="#02F484" stop-opacity="0"/>
<stop offset="0.447522" stop-color="#02F484"/>
<stop offset="1" stop-color="#02F484" stop-opacity="0"/>
</linearGradient>
<linearGradient id="paint2_linear_380_238376" x1="560.505" y1="400.758" x2="552.156" y2="267.172" gradientUnits="userSpaceOnUse">
<stop stop-color="#02F484" stop-opacity="0"/>
<stop offset="0.447522" stop-color="#02F484"/>
<stop offset="1" stop-color="#02F484" stop-opacity="0"/>
</linearGradient>
<linearGradient id="paint3_linear_380_238376" x1="140.822" y1="300.569" x2="149.171" y2="434.155" gradientUnits="userSpaceOnUse">
<stop stop-color="#02F484" stop-opacity="0"/>
<stop offset="0.447522" stop-color="#02F484"/>
<stop offset="1" stop-color="#02F484" stop-opacity="0"/>
</linearGradient>
<linearGradient id="paint4_linear_380_238376" x1="440.834" y1="548.816" x2="539.911" y2="456.975" gradientUnits="userSpaceOnUse">
<stop stop-color="#02F484" stop-opacity="0"/>
<stop offset="0.447522" stop-color="#02F484"/>
<stop offset="1" stop-color="#02F484" stop-opacity="0"/>
</linearGradient>
<linearGradient id="paint5_linear_380_238376" x1="260.493" y1="152.511" x2="161.416" y2="244.351" gradientUnits="userSpaceOnUse">
<stop stop-color="#02F484" stop-opacity="0"/>
<stop offset="0.447522" stop-color="#02F484"/>
<stop offset="1" stop-color="#02F484" stop-opacity="0"/>
</linearGradient>
</defs>
</svg>
