<svg width="65" height="21" viewBox="0 0 65 21" fill="none" xmlns="http://www.w3.org/2000/svg">
<path d="M12.5453 5.74908L10.3355 8.86258H0.0175781V5.74908H12.5453Z" fill="#00A76F"/>
<path d="M12.7367 1.00006L10.5269 4.11355H0.0175781V1.00006H6.37712H12.7367Z" fill="#00A76F"/>
<path d="M33.8249 10.4796L31.6326 13.6104H27.8047L28.7443 12.2711L29.997 10.4796H30.0144H33.8249Z" fill="#00A76F"/>
<path d="M53.3474 10.4971H50.2329V13.6106H53.3474V10.4971Z" fill="#00A76F"/>
<path d="M49.2931 13.6106H33.6509L35.8432 10.4971H47.1008L48.3187 12.2365L49.2931 13.6106Z" fill="#00A76F"/>
<path d="M28.6747 10.4971C28.5181 11.2625 28.1353 11.9408 27.6133 12.4626C27.0913 12.9844 26.3954 13.3671 25.6472 13.5237C25.3862 13.5758 25.1078 13.6106 24.8294 13.6106H14.3896L14.7724 13.0714L15.5032 12.0452L15.4858 12.0278L16.5646 10.4971H28.6747Z" fill="#00A76F"/>
<path d="M0.0175781 10.4971V13.6106H10.8053L12.9977 10.4971H0.0175781ZM7.308 13.3497L7.221 13.2975V13.2801L7.308 13.3497Z" fill="#00A76F"/>
<path d="M1.70516 17.142H0.40019V18.2205H1.93135V18.5509H0V15.507H1.89655V15.8375H0.40019V16.8116H1.70516V17.142Z" fill="white"/>
<path d="M2.99252 16.2897L3.00992 16.5332C3.16652 16.3419 3.39271 16.2375 3.67111 16.2375C3.9843 16.2375 4.19309 16.3592 4.31489 16.6028C4.38449 16.4984 4.48889 16.4114 4.61068 16.3419C4.73248 16.2723 4.87168 16.2375 5.02827 16.2375C5.51546 16.2375 5.77645 16.4984 5.77645 17.0202V18.5335H5.39366V17.055C5.39366 16.8985 5.35886 16.7767 5.28927 16.6897C5.21967 16.6028 5.09787 16.568 4.92387 16.568C4.78468 16.568 4.66288 16.6028 4.57588 16.6897C4.48889 16.7767 4.41929 16.8985 4.41929 17.0376V18.5335H4.0365V17.055C4.0365 16.7245 3.8799 16.568 3.54931 16.568C3.28832 16.568 3.13172 16.6723 3.02732 16.8985V18.5509H2.64453V16.2897H2.99252Z" fill="white"/>
<path d="M8.54335 17.4377C8.54335 17.7855 8.45635 18.0638 8.29975 18.2726C8.14316 18.4813 7.93436 18.5857 7.65597 18.5857C7.37758 18.5857 7.16878 18.4987 7.01219 18.3247V19.4032H6.62939V16.2897H6.97739L6.99479 16.5332C7.15138 16.3419 7.37758 16.2375 7.65597 16.2375C7.93436 16.2375 8.14316 16.3419 8.29975 16.5506C8.45635 16.7593 8.54335 17.0376 8.54335 17.4029V17.4377ZM8.16056 17.4029C8.16056 17.142 8.10836 16.9506 8.00396 16.7941C7.89956 16.6549 7.74297 16.568 7.55157 16.568C7.32538 16.568 7.15138 16.6723 7.02959 16.8811V17.9595C7.15138 18.1682 7.32538 18.2726 7.55157 18.2726C7.74297 18.2726 7.88216 18.203 7.98656 18.0464C8.10836 17.9073 8.16056 17.6812 8.16056 17.4029Z" fill="white"/>
<path d="M9.20441 17.403C9.20441 17.1769 9.23921 16.9855 9.32621 16.8116C9.41321 16.6377 9.535 16.4985 9.6916 16.4115C9.8482 16.3072 10.0222 16.2724 10.2136 16.2724C10.5268 16.2724 10.7704 16.3768 10.9618 16.5855C11.1532 16.7942 11.2402 17.0725 11.2402 17.4378V17.4726C11.2402 17.6987 11.2054 17.89 11.1184 18.064C11.0314 18.2379 10.9096 18.377 10.753 18.464C10.5964 18.5684 10.4224 18.6032 10.2136 18.6032C9.90039 18.6032 9.6568 18.4988 9.46541 18.2901C9.27401 18.0814 9.18701 17.8031 9.18701 17.4552V17.403H9.20441ZM9.5872 17.4378C9.5872 17.6813 9.6394 17.89 9.7612 18.0466C9.88299 18.2031 10.0396 18.2727 10.231 18.2727C10.4224 18.2727 10.579 18.2031 10.7008 18.0466C10.8226 17.89 10.8748 17.6813 10.8748 17.403C10.8748 17.1595 10.8226 16.9508 10.7008 16.7942C10.579 16.6377 10.4224 16.5681 10.231 16.5681C10.0396 16.5681 9.88299 16.6377 9.7786 16.7942C9.6742 16.9508 9.5872 17.1595 9.5872 17.4378Z" fill="white"/>
<path d="M14.0066 18.0115L14.4416 16.2896H14.8244L14.1632 18.5334H13.85L13.3106 16.8288L12.7713 18.5334H12.4581L11.7969 16.2896H12.1797L12.6147 17.9767L13.1366 16.2896H13.4498L14.0066 18.0115Z" fill="white"/>
<path d="M16.4253 18.5857C16.1121 18.5857 15.8685 18.4814 15.6771 18.29C15.4857 18.0813 15.3813 17.8204 15.3813 17.4899V17.4203C15.3813 17.1942 15.4161 17.0029 15.5031 16.8289C15.5901 16.655 15.7119 16.5159 15.8685 16.4115C16.0251 16.3071 16.1817 16.2549 16.3731 16.2549C16.6689 16.2549 16.8951 16.3593 17.0517 16.5506C17.2083 16.742 17.2953 17.0203 17.2953 17.3855V17.5247H15.7641C15.7641 17.7508 15.8337 17.9247 15.9555 18.0639C16.0773 18.2031 16.2339 18.2726 16.4253 18.2726C16.5645 18.2726 16.6689 18.2378 16.7733 18.1857C16.8603 18.1335 16.9473 18.0639 17.0169 17.9595L17.2605 18.1509C17.0865 18.4466 16.8081 18.5857 16.4253 18.5857ZM16.3731 16.568C16.2165 16.568 16.0947 16.6202 15.9903 16.742C15.8859 16.8463 15.8163 17.0203 15.7989 17.2116H16.9299V17.1768C16.9125 16.9855 16.8603 16.8289 16.7733 16.7246C16.6863 16.6202 16.5297 16.568 16.3731 16.568Z" fill="white"/>
<path d="M19.105 16.6376C19.0528 16.6202 18.9832 16.6202 18.9136 16.6202C18.6526 16.6202 18.496 16.7246 18.3916 16.9507V18.5509H18.0088V16.2897H18.3916V16.5506C18.5134 16.3419 18.7048 16.2549 18.931 16.2549C19.0006 16.2549 19.0702 16.2723 19.105 16.2897V16.6376Z" fill="white"/>
<path d="M19.731 15.6982C19.731 15.6287 19.7484 15.5765 19.7832 15.5417C19.818 15.5069 19.8702 15.4721 19.9572 15.4721C20.0441 15.4721 20.0963 15.4895 20.1311 15.5417C20.1659 15.5765 20.1833 15.6287 20.1833 15.6982C20.1833 15.7678 20.1659 15.82 20.1311 15.8548C20.0963 15.8896 20.0441 15.9243 19.9572 15.9243C19.8702 15.9243 19.818 15.907 19.7832 15.8548C19.7484 15.8026 19.731 15.7504 19.731 15.6982ZM20.1485 18.5508H19.7658V16.2896H20.1485V18.5508Z" fill="white"/>
<path d="M21.4015 16.2897L21.4189 16.568C21.5929 16.3592 21.8191 16.2375 22.0975 16.2375C22.5673 16.2375 22.8109 16.4984 22.8109 17.0376V18.5335H22.4281V17.0376C22.4281 16.8811 22.3933 16.7593 22.3237 16.6723C22.2541 16.6028 22.1323 16.5506 21.9757 16.5506C21.8539 16.5506 21.7495 16.5854 21.6451 16.6549C21.5581 16.7245 21.4711 16.8115 21.4189 16.9158V18.5161H21.0361V16.2897H21.4015Z" fill="white"/>
<path d="M23.5762 17.4029C23.5762 17.0551 23.6632 16.7768 23.8198 16.568C23.9764 16.3593 24.2026 16.2549 24.4636 16.2549C24.7419 16.2549 24.9507 16.3593 25.1073 16.5506L25.1247 16.3071H25.4727V18.4987C25.4727 18.7944 25.3857 19.0206 25.2117 19.1945C25.0377 19.3684 24.8115 19.438 24.5157 19.438C24.3592 19.438 24.2026 19.4032 24.046 19.3336C23.8894 19.2641 23.7676 19.1771 23.698 19.0553L23.8894 18.8292C24.046 19.038 24.2548 19.1423 24.4983 19.1423C24.6897 19.1423 24.8289 19.0901 24.9333 18.9858C25.0377 18.8814 25.0899 18.7249 25.0899 18.5335V18.3422C24.9333 18.5161 24.7245 18.6031 24.4636 18.6031C24.2026 18.6031 23.9938 18.4987 23.8198 18.29C23.6632 18.0465 23.5762 17.7682 23.5762 17.4029ZM23.959 17.4377C23.959 17.6986 24.0112 17.89 24.1156 18.0291C24.22 18.1683 24.3592 18.2552 24.5505 18.2552C24.7941 18.2552 24.9681 18.1509 25.0899 17.9248V16.8985C24.9681 16.6898 24.7941 16.568 24.5505 16.568C24.3592 16.568 24.22 16.6376 24.1156 16.7942C24.0112 16.9333 23.959 17.1594 23.959 17.4377Z" fill="white"/>
<path d="M28.6221 17.1941C28.2741 17.0897 28.0305 16.968 27.8739 16.8288C27.7173 16.6897 27.6477 16.5157 27.6477 16.2896C27.6477 16.0461 27.7347 15.8548 27.9261 15.6982C28.1175 15.5417 28.3611 15.4721 28.6743 15.4721C28.8831 15.4721 29.0745 15.5069 29.2311 15.5939C29.3877 15.6808 29.5269 15.7852 29.6139 15.9243C29.7009 16.0635 29.7531 16.22 29.7531 16.394H29.3529C29.3529 16.2026 29.3007 16.0635 29.1789 15.9591C29.0571 15.8548 28.9005 15.8026 28.6917 15.8026C28.5003 15.8026 28.3437 15.8548 28.2393 15.9243C28.1349 16.0113 28.0653 16.1331 28.0653 16.2896C28.0653 16.4114 28.1175 16.5157 28.2219 16.6027C28.3263 16.6897 28.5003 16.7592 28.7613 16.8288C29.0049 16.8984 29.2137 16.9854 29.3529 17.0549C29.4921 17.1419 29.5965 17.2463 29.6661 17.3506C29.7357 17.4724 29.7705 17.5942 29.7705 17.7507C29.7705 17.9942 29.6661 18.1855 29.4747 18.3421C29.2833 18.4812 29.0223 18.5682 28.7091 18.5682C28.5003 18.5682 28.3089 18.5334 28.1349 18.4464C27.9609 18.3595 27.8217 18.2551 27.7173 18.116C27.6129 17.9768 27.5781 17.8203 27.5781 17.6463H27.9783C27.9783 17.8377 28.0479 17.9768 28.1871 18.0812C28.3263 18.1855 28.5003 18.2377 28.7265 18.2377C28.9353 18.2377 29.0919 18.2029 29.2137 18.116C29.3181 18.029 29.3877 17.9072 29.3877 17.7681C29.3877 17.6289 29.3355 17.5072 29.2311 17.4202C29.0745 17.3506 28.8831 17.2811 28.6221 17.1941Z" fill="white"/>
<path d="M30.3621 17.403C30.3621 17.1769 30.3969 16.9855 30.4839 16.8116C30.5709 16.6377 30.6927 16.4985 30.8493 16.4115C31.0059 16.3072 31.1799 16.2724 31.3713 16.2724C31.6845 16.2724 31.9281 16.3768 32.1195 16.5855C32.3109 16.7942 32.3979 17.0725 32.3979 17.4378V17.4726C32.3979 17.6987 32.3631 17.89 32.2761 18.064C32.1891 18.2379 32.0673 18.377 31.9107 18.464C31.7541 18.5684 31.5801 18.6032 31.3713 18.6032C31.0581 18.6032 30.8145 18.4988 30.6231 18.2901C30.4317 18.0814 30.3447 17.8031 30.3447 17.4552V17.403H30.3621ZM30.7449 17.4378C30.7449 17.6813 30.7971 17.89 30.9189 18.0466C31.0407 18.2031 31.1973 18.2727 31.3887 18.2727C31.5801 18.2727 31.7367 18.2031 31.8585 18.0466C31.9803 17.89 32.0325 17.6813 32.0325 17.403C32.0325 17.1595 31.9803 16.9508 31.8585 16.7942C31.7367 16.6377 31.5801 16.5681 31.3887 16.5681C31.1973 16.5681 31.0407 16.6377 30.9363 16.7942C30.8319 16.9508 30.7449 17.1595 30.7449 17.4378Z" fill="white"/>
<path d="M33.581 18.5508H33.1982V15.3503H33.581V18.5508Z" fill="white"/>
<path d="M35.8605 18.3246C35.7039 18.4986 35.4951 18.5855 35.1994 18.5855C34.9558 18.5855 34.7818 18.516 34.6426 18.3768C34.5208 18.2377 34.4512 18.0289 34.4512 17.7506V16.2896H34.834V17.7506C34.834 18.0985 34.9732 18.255 35.2516 18.255C35.5473 18.255 35.7387 18.1507 35.8431 17.9246V16.2896H36.2259V18.5334H35.8605V18.3246Z" fill="white"/>
<path d="M37.6178 15.7505V16.2897H38.0354V16.5854H37.6178V17.9769C37.6178 18.0639 37.6352 18.1334 37.67 18.1856C37.7048 18.2378 37.7744 18.2552 37.8614 18.2552C37.9136 18.2552 37.9658 18.2552 38.0528 18.2378V18.5509C37.9484 18.5857 37.8614 18.5857 37.757 18.5857C37.583 18.5857 37.4612 18.5335 37.3742 18.4291C37.2872 18.3248 37.235 18.1856 37.235 17.9943V16.6028H36.8174V16.3071H37.235V15.7679H37.6178V15.7505Z" fill="white"/>
<path d="M38.7661 15.6982C38.7661 15.6287 38.7835 15.5765 38.8183 15.5417C38.8531 15.5069 38.9053 15.4721 38.9923 15.4721C39.0619 15.4721 39.1315 15.4895 39.1663 15.5417C39.2011 15.5765 39.2185 15.6287 39.2185 15.6982C39.2185 15.7678 39.2011 15.82 39.1663 15.8548C39.1315 15.8896 39.0793 15.9243 38.9923 15.9243C38.9227 15.9243 38.8531 15.907 38.8183 15.8548C38.7835 15.8026 38.7661 15.7504 38.7661 15.6982ZM39.1837 18.5508H38.8009V16.2896H39.1837V18.5508Z" fill="white"/>
<path d="M39.9666 17.403C39.9666 17.1769 40.0014 16.9855 40.0884 16.8116C40.1754 16.6377 40.2972 16.4985 40.4538 16.4115C40.6104 16.3072 40.7844 16.2724 40.9758 16.2724C41.289 16.2724 41.5326 16.3768 41.724 16.5855C41.9154 16.7942 42.0024 17.0725 42.0024 17.4378V17.4726C42.0024 17.6987 41.9676 17.89 41.8806 18.064C41.7936 18.2379 41.6718 18.377 41.5152 18.464C41.3586 18.5684 41.1846 18.6032 40.9758 18.6032C40.6626 18.6032 40.419 18.4988 40.2276 18.2901C40.0362 18.0814 39.9492 17.8031 39.9492 17.4552V17.403H39.9666ZM40.3494 17.4378C40.3494 17.6813 40.4016 17.89 40.5234 18.0466C40.6452 18.2031 40.8018 18.2727 40.9932 18.2727C41.1846 18.2727 41.3412 18.2031 41.463 18.0466C41.5848 17.89 41.637 17.6813 41.637 17.403C41.637 17.1595 41.5848 16.9508 41.463 16.7942C41.3412 16.6377 41.1846 16.5681 40.9932 16.5681C40.8018 16.5681 40.6452 16.6377 40.5408 16.7942C40.4364 16.9508 40.3494 17.1595 40.3494 17.4378Z" fill="white"/>
<path d="M43.1335 16.2897L43.1509 16.568C43.3249 16.3592 43.551 16.2375 43.8294 16.2375C44.2992 16.2375 44.5428 16.4984 44.5428 17.0376V18.5335H44.16V17.0376C44.16 16.8811 44.1252 16.7593 44.0556 16.6723C43.986 16.6028 43.8642 16.5506 43.7076 16.5506C43.5858 16.5506 43.4814 16.5854 43.3771 16.6549C43.2901 16.7245 43.2031 16.8115 43.1509 16.9158V18.5161H42.7681V16.2897H43.1335Z" fill="white"/>
<path d="M48.4578 17.7509H47.1877L46.9093 18.551H46.4917L47.6575 15.5245H48.0055L49.1712 18.551H48.7536L48.4578 17.7509ZM47.3095 17.4204H48.336L47.8141 16.0115L47.3095 17.4204Z" fill="white"/>
<path d="M50.2674 18.5509H49.8672V15.507H50.2674V18.5509Z" fill="white"/>
<path d="M52.9993 17.3508V18.5335H52.5991V15.507H53.7127C54.0433 15.507 54.3043 15.594 54.4957 15.7679C54.6871 15.9419 54.7741 16.168 54.7741 16.4463C54.7741 16.742 54.6871 16.9681 54.4957 17.1246C54.3043 17.2812 54.0433 17.3682 53.7127 17.3682H52.9993V17.3508ZM52.9993 17.0377H53.7127C53.9215 17.0377 54.0955 16.9855 54.1999 16.8811C54.3217 16.7768 54.3739 16.6376 54.3739 16.4463C54.3739 16.2723 54.3217 16.1158 54.1999 16.0114C54.0781 15.9071 53.9215 15.8549 53.7301 15.8375H52.9819V17.0377H52.9993Z" fill="white"/>
<path d="M55.3826 17.403C55.3826 17.1769 55.4174 16.9855 55.5044 16.8116C55.5914 16.6377 55.7132 16.4985 55.8698 16.4115C56.0264 16.3072 56.2004 16.2724 56.3918 16.2724C56.705 16.2724 56.9486 16.3768 57.14 16.5855C57.3314 16.7942 57.4184 17.0725 57.4184 17.4378V17.4726C57.4184 17.6987 57.3836 17.89 57.2966 18.064C57.2096 18.2379 57.0878 18.377 56.9312 18.464C56.7746 18.5684 56.6006 18.6032 56.3918 18.6032C56.0786 18.6032 55.835 18.4988 55.6436 18.2901C55.4522 18.0814 55.3652 17.8031 55.3652 17.4552V17.403H55.3826ZM55.7654 17.4378C55.7654 17.6813 55.8176 17.89 55.9394 18.0466C56.0612 18.2031 56.2178 18.2727 56.4092 18.2727C56.6006 18.2727 56.7572 18.2031 56.879 18.0466C57.0008 17.89 57.053 17.6813 57.053 17.403C57.053 17.1595 57.0008 16.9508 56.879 16.7942C56.7572 16.6377 56.6006 16.5681 56.4092 16.5681C56.2178 16.5681 56.0612 16.6377 55.9568 16.7942C55.8524 16.9508 55.7654 17.1595 55.7654 17.4378Z" fill="white"/>
<path d="M59.2632 16.6376C59.211 16.6202 59.1414 16.6202 59.0718 16.6202C58.8108 16.6202 58.6542 16.7246 58.5498 16.9507V18.5509H58.167V16.2897H58.5498V16.5506C58.6716 16.3419 58.863 16.2549 59.0892 16.2549C59.1588 16.2549 59.2284 16.2723 59.2632 16.2897V16.6376Z" fill="white"/>
<path d="M60.5157 15.7505V16.2897H60.9333V16.5854H60.5157V17.9769C60.5157 18.0639 60.5331 18.1334 60.5679 18.1856C60.6027 18.2378 60.6723 18.2552 60.7593 18.2552C60.8115 18.2552 60.8637 18.2552 60.9507 18.2378V18.5509C60.8463 18.5857 60.7593 18.5857 60.6549 18.5857C60.4809 18.5857 60.3591 18.5335 60.2721 18.4291C60.1851 18.3248 60.1329 18.1856 60.1329 17.9943V16.6028H59.7153V16.3071H60.1329V15.7679H60.5157V15.7505Z" fill="white"/>
<path d="M63.056 18.551C63.0386 18.4988 63.0212 18.4292 63.0038 18.3075C62.8298 18.4988 62.6036 18.5858 62.36 18.5858C62.1338 18.5858 61.9598 18.5162 61.8206 18.3944C61.6814 18.2727 61.6118 18.1161 61.6118 17.9248C61.6118 17.6987 61.6988 17.5074 61.8728 17.3856C62.0468 17.2638 62.3078 17.1943 62.621 17.1943H63.0038V17.0203C63.0038 16.8812 62.969 16.7768 62.882 16.7072C62.795 16.6203 62.6906 16.5855 62.534 16.5855C62.3948 16.5855 62.273 16.6203 62.186 16.6899C62.099 16.7594 62.0468 16.8464 62.0468 16.9334H61.664C61.664 16.829 61.6988 16.7072 61.7858 16.6029C61.8728 16.4985 61.9772 16.4116 62.1164 16.3594C62.2556 16.2898 62.3948 16.2724 62.5688 16.2724C62.8298 16.2724 63.0386 16.342 63.1778 16.4637C63.317 16.5855 63.404 16.7768 63.404 17.0029V18.0466C63.404 18.2553 63.4388 18.4118 63.491 18.5336V18.5684H63.056V18.551ZM62.4122 18.2553C62.534 18.2553 62.6558 18.2205 62.7602 18.1683C62.8646 18.0987 62.9516 18.0292 63.0038 17.9248V17.4552H62.708C62.2382 17.4552 61.9946 17.5943 61.9946 17.8726C61.9946 17.9944 62.0294 18.0814 62.1164 18.1509C62.186 18.2205 62.2904 18.2553 62.4122 18.2553Z" fill="white"/>
<path d="M64.6743 18.5508H64.2915V15.3503H64.6743V18.5508Z" fill="white"/>
<path d="M64.97 5.20955V5.78354C64.97 6.1662 64.9178 6.51408 64.8308 6.86196C64.622 7.64468 64.2045 8.32304 63.6303 8.86225C63.1431 9.31448 62.5341 9.66236 61.8555 9.8363C61.5075 9.92327 61.1421 9.97545 60.7767 9.97545H53.8865C53.7125 9.97545 53.5385 9.95805 53.3645 9.94066V10.4799H50.25V6.86196H60.5505C60.9333 6.86196 61.2813 6.70541 61.5249 6.4619C61.6815 6.30536 61.8033 6.11402 61.8729 5.9053C61.8903 5.85312 61.9077 5.80093 61.9077 5.74875C61.9251 5.66178 61.9251 5.59221 61.9251 5.50524C61.9251 5.36609 61.9077 5.22694 61.8555 5.08779C61.6815 4.53119 61.1595 4.13113 60.5505 4.13113H50.25V4.09634L52.164 1.38291L52.4249 1.01764H53.3819V1.05243C53.5559 1.03503 53.7299 1.01764 53.9039 1.01764H60.7941C61.1769 1.01764 61.5249 1.06982 61.8729 1.15679C63.3171 1.53945 64.4655 2.68744 64.8482 4.13113C64.9178 4.46161 64.97 4.82688 64.97 5.20955Z" fill="white"/>
<path d="M47.1004 10.4799H43.2899L42.1589 8.86225L38.8182 4.11374C38.6964 3.9398 38.4528 3.9398 38.331 4.11374L34.9903 8.86225L33.8593 10.4799H30.0488L31.1798 8.86225L33.3721 5.74875L34.5205 4.13113L36.0343 1.99169C36.4693 1.38291 37.1653 1.01764 37.9308 1.01764H39.2706C40.0188 1.01764 40.7322 1.38291 41.1672 1.99169L41.5325 2.49611L42.6809 4.13113L43.8293 5.74875L46.0216 8.86225L46.474 9.52321L47.1004 10.4799Z" fill="white"/>
<path d="M28.7439 9.67994C28.7439 9.95824 28.7091 10.2365 28.6569 10.4974H24.8116C25.0378 10.4974 25.2466 10.4105 25.3858 10.2539C25.525 10.1148 25.6294 9.90606 25.6294 9.67994C25.6294 9.2277 25.264 8.86243 24.8116 8.86243H18.6348C18.6174 8.86243 18.5826 8.86243 18.5652 8.86243C18.339 8.86243 18.1128 8.82764 17.8866 8.79285C17.8518 8.79285 17.817 8.77546 17.7822 8.77546H17.7648C17.7126 8.75807 17.6604 8.75807 17.6082 8.74067C17.4864 8.70588 17.382 8.6711 17.2776 8.63631C17.2254 8.61892 17.1732 8.60152 17.121 8.56673C17.0688 8.54934 17.0166 8.51455 16.9644 8.49716C16.9122 8.47976 16.86 8.44498 16.8078 8.42758C16.7556 8.3928 16.7034 8.3754 16.6512 8.34061C16.599 8.32322 16.5642 8.28843 16.5294 8.25365C16.512 8.25365 16.512 8.23625 16.512 8.23625C16.4772 8.21886 16.4424 8.18407 16.3902 8.14928C16.338 8.11449 16.2858 8.07971 16.2336 8.02753C16.1814 7.99274 16.1466 7.95795 16.0944 7.92316C16.0422 7.88838 15.99 7.83619 15.9552 7.80141C15.9378 7.78401 15.9204 7.76662 15.903 7.74923C15.8682 7.71444 15.8334 7.67965 15.7986 7.64486C15.7812 7.62747 15.7812 7.62747 15.7638 7.61007C15.729 7.57529 15.6942 7.5405 15.6594 7.50571C15.642 7.48832 15.6246 7.47092 15.6072 7.45353C15.5724 7.40135 15.5376 7.36656 15.4854 7.31438C15.4506 7.2622 15.3984 7.21002 15.3636 7.14044C15.0852 6.72299 14.8765 6.25336 14.7721 5.74894C14.7721 5.71415 14.7547 5.67936 14.7547 5.64458C14.7199 5.41846 14.6851 5.17494 14.6851 4.94882C14.6851 4.70531 14.7025 4.47919 14.7547 4.25307C14.7547 4.21828 14.7721 4.1835 14.7721 4.14871C14.9287 3.38338 15.3114 2.70502 15.8334 2.18321C16.3728 1.644 17.0862 1.26134 17.8692 1.10479C18.1128 1.05261 18.3564 1.03522 18.6174 1.03522H27.8913L27.2823 1.90491L25.699 4.14871H18.687C18.4608 4.14871 18.252 4.23568 18.1128 4.39222C17.9736 4.53137 17.8692 4.7401 17.8692 4.96622C17.8692 5.41846 18.2346 5.78373 18.687 5.78373H24.8116C25.09 5.78373 25.3684 5.81851 25.6294 5.87069C26.569 6.06203 27.3867 6.60123 27.9609 7.34917C28.3089 7.80141 28.5525 8.34061 28.6743 8.91461C28.7265 9.12334 28.7439 9.40164 28.7439 9.67994Z" fill="white"/>
</svg>
