<svg width="266" height="266" viewBox="0 0 266 266" fill="none" xmlns="http://www.w3.org/2000/svg">
<path fill-rule="evenodd" clip-rule="evenodd" d="M150.582 33.8204C151.135 34.7852 150.764 36.0129 149.753 36.4743C139.439 41.1789 126.35 41.1785 116.036 36.4742C115.025 36.0128 114.654 34.7852 115.206 33.8204C118.872 27.4186 123.534 21.2877 129.349 15.4402C131.316 13.4627 134.474 13.4627 136.44 15.4402C142.255 21.2877 146.916 27.4189 150.582 33.8204ZM132.894 63.6477C141.27 63.6477 148.06 70.4377 148.06 78.8137C148.06 87.1897 141.27 93.9792 132.894 93.9792C124.518 93.9792 117.728 87.1892 117.728 78.8137C117.728 70.4382 124.518 63.6477 132.894 63.6477ZM144.398 161.847C145.526 161.847 146.482 161.13 146.798 160.047C159.956 114.912 168.974 75.1037 154.661 41.9719C154.208 40.9221 152.955 40.5007 151.916 40.978C140.234 46.3427 125.553 46.3427 113.872 40.978C112.833 40.5007 111.58 40.9221 111.127 41.9719C96.814 75.1037 105.831 114.912 118.99 160.047C119.306 161.13 120.262 161.847 121.39 161.847H144.398ZM111.709 158.524C112.521 158.049 112.926 157.09 112.666 156.186C110.431 148.413 108.247 140.515 106.298 132.555C105.913 130.982 103.925 130.485 102.9 131.739C90.5904 146.804 88.0885 160.552 88.6612 177.26C88.7122 178.746 90.6682 179.259 91.4417 177.988C96.4711 169.722 104.584 162.687 111.709 158.524ZM162.874 131.8C161.85 130.545 159.861 131.041 159.475 132.614C157.527 140.566 155.345 148.454 153.112 156.218C152.853 157.121 153.257 158.08 154.067 158.554C161.179 162.722 169.265 169.742 174.282 177.988C175.056 179.259 177.012 178.746 177.062 177.26C177.634 160.574 175.14 146.841 162.874 131.8Z" fill="#F8F8F8" fill-opacity="0.05"/>
<path fill-rule="evenodd" clip-rule="evenodd" d="M150.582 33.8204C151.135 34.7852 150.764 36.0129 149.753 36.4743C139.439 41.1789 126.35 41.1785 116.036 36.4742C115.025 36.0128 114.654 34.7852 115.206 33.8204C118.872 27.4186 123.534 21.2877 129.349 15.4402C131.316 13.4627 134.474 13.4627 136.44 15.4402C142.255 21.2877 146.916 27.4189 150.582 33.8204ZM132.894 63.6477C141.27 63.6477 148.06 70.4377 148.06 78.8137C148.06 87.1897 141.27 93.9792 132.894 93.9792C124.518 93.9792 117.728 87.1892 117.728 78.8137C117.728 70.4382 124.518 63.6477 132.894 63.6477ZM144.398 161.847C145.526 161.847 146.482 161.13 146.798 160.047C159.956 114.912 168.974 75.1037 154.661 41.9719C154.208 40.9221 152.955 40.5007 151.916 40.978C140.234 46.3427 125.553 46.3427 113.872 40.978C112.833 40.5007 111.58 40.9221 111.127 41.9719C96.814 75.1037 105.831 114.912 118.99 160.047C119.306 161.13 120.262 161.847 121.39 161.847H144.398ZM111.709 158.524C112.521 158.049 112.926 157.09 112.666 156.186C110.431 148.413 108.247 140.515 106.298 132.555C105.913 130.982 103.925 130.485 102.9 131.739C90.5904 146.804 88.0885 160.552 88.6612 177.26C88.7122 178.746 90.6682 179.259 91.4417 177.988C96.4711 169.722 104.584 162.687 111.709 158.524ZM162.874 131.8C161.85 130.545 159.861 131.041 159.475 132.614C157.527 140.566 155.345 148.454 153.112 156.218C152.853 157.121 153.257 158.08 154.067 158.554C161.179 162.722 169.265 169.742 174.282 177.988C175.056 179.259 177.012 178.746 177.062 177.26C177.634 160.574 175.14 146.841 162.874 131.8Z" fill="url(#paint0_linear_928_443167)" fill-opacity="0.2"/>
<path d="M159.961 132.733C160.254 131.537 161.739 131.2 162.486 132.116C174.655 147.037 177.132 160.64 176.562 177.242C176.529 178.232 175.224 178.575 174.709 177.729C169.64 169.397 161.488 162.323 154.32 158.123C153.699 157.759 153.399 157.031 153.593 156.356C155.826 148.589 158.01 140.694 159.961 132.733ZM103.287 132.056C104.035 131.14 105.52 131.478 105.812 132.674C107.764 140.643 109.95 148.548 112.186 156.324C112.38 156.999 112.079 157.728 111.457 158.092C104.277 162.288 96.0958 169.377 91.0146 177.729C90.4993 178.575 89.1951 178.232 89.1611 177.242C88.5914 160.617 91.0754 147 103.287 132.056ZM152.125 41.4326C152.932 41.0622 153.87 41.4005 154.202 42.1699C168.433 75.1113 159.485 114.742 146.317 159.906V159.907C146.064 160.777 145.304 161.347 144.397 161.347H121.391C120.485 161.347 119.724 160.776 119.471 159.907L119.47 159.906C106.303 114.742 97.3556 75.1112 111.586 42.1699C111.919 41.4005 112.856 41.0621 113.663 41.4326C125.477 46.8582 140.311 46.8582 152.125 41.4326ZM132.895 63.1475C124.242 63.1475 117.229 70.1619 117.229 78.8135C117.229 87.4651 124.242 94.4795 132.895 94.4795C141.546 94.4793 148.561 87.4655 148.561 78.8135C148.56 70.1615 141.546 63.1477 132.895 63.1475ZM129.704 15.793C131.475 14.0121 134.315 14.0121 136.086 15.793C141.871 21.6108 146.505 27.7077 150.148 34.0693C150.56 34.7886 150.278 35.685 149.545 36.0195C139.363 40.6638 126.426 40.6635 116.244 36.0195C115.511 35.685 115.229 34.7886 115.641 34.0693C119.284 27.7073 123.918 21.6109 129.704 15.793Z" stroke="#13F584" stroke-opacity="0.3"/>
<path fill-rule="evenodd" clip-rule="evenodd" d="M138.287 166.847C139.392 166.847 140.287 167.743 140.287 168.847V184.581C140.287 185.464 140.87 186.235 141.699 186.538C150.115 189.609 156.473 196.956 158.144 205.951C158.363 207.13 159.492 207.951 160.684 207.812C169.042 206.837 177.085 210.685 181.654 217.472C182.366 218.53 183.848 218.825 184.925 218.142C189.795 215.048 195.846 214.275 201.37 216.112C202.457 216.474 203.679 215.987 204.188 214.96C208.387 206.494 217.119 200.674 227.21 200.674C241.395 200.674 252.894 212.173 252.894 226.358C252.894 240.543 241.395 252.042 227.21 252.042H38.5785C24.3935 252.042 12.8945 240.543 12.8945 226.358C12.8945 212.173 24.3935 200.674 38.5785 200.674C48.6696 200.674 57.4011 206.494 61.6007 214.96C62.1098 215.987 63.3311 216.474 64.4183 216.112C69.942 214.275 75.9935 215.048 80.8639 218.142C81.9404 218.825 83.4222 218.53 84.1345 217.472C88.7039 210.685 96.7458 206.837 105.105 207.812C106.297 207.951 107.426 207.13 107.645 205.951C109.316 196.956 115.674 189.609 124.089 186.538C124.919 186.235 125.502 185.464 125.502 184.581V168.847C125.502 167.743 126.397 166.847 127.502 166.847H138.287Z" fill="#F8F8F8" fill-opacity="0.05"/>
<path fill-rule="evenodd" clip-rule="evenodd" d="M138.287 166.847C139.392 166.847 140.287 167.743 140.287 168.847V184.581C140.287 185.464 140.87 186.235 141.699 186.538C150.115 189.609 156.473 196.956 158.144 205.951C158.363 207.13 159.492 207.951 160.684 207.812C169.042 206.837 177.085 210.685 181.654 217.472C182.366 218.53 183.848 218.825 184.925 218.142C189.795 215.048 195.846 214.275 201.37 216.112C202.457 216.474 203.679 215.987 204.188 214.96C208.387 206.494 217.119 200.674 227.21 200.674C241.395 200.674 252.894 212.173 252.894 226.358C252.894 240.543 241.395 252.042 227.21 252.042H38.5785C24.3935 252.042 12.8945 240.543 12.8945 226.358C12.8945 212.173 24.3935 200.674 38.5785 200.674C48.6696 200.674 57.4011 206.494 61.6007 214.96C62.1098 215.987 63.3311 216.474 64.4183 216.112C69.942 214.275 75.9935 215.048 80.8639 218.142C81.9404 218.825 83.4222 218.53 84.1345 217.472C88.7039 210.685 96.7458 206.837 105.105 207.812C106.297 207.951 107.426 207.13 107.645 205.951C109.316 196.956 115.674 189.609 124.089 186.538C124.919 186.235 125.502 185.464 125.502 184.581V168.847C125.502 167.743 126.397 166.847 127.502 166.847H138.287Z" fill="url(#paint1_linear_928_443167)"/>
<path d="M127.502 167.347H138.287C139.116 167.347 139.787 168.019 139.787 168.847V184.581C139.787 185.691 140.518 186.638 141.528 187.007C149.78 190.019 156.014 197.224 157.652 206.042C157.92 207.484 159.293 208.477 160.742 208.308C168.911 207.355 176.773 211.117 181.239 217.75C182.106 219.037 183.892 219.39 185.192 218.564C189.937 215.55 195.833 214.797 201.213 216.586C202.529 217.024 204.012 216.439 204.636 215.182C208.754 206.879 217.316 201.173 227.21 201.173C241.119 201.173 252.394 212.449 252.394 226.358C252.393 240.267 241.119 251.542 227.21 251.542H38.5781C24.6695 251.541 13.3947 240.267 13.3945 226.358C13.3945 212.449 24.6695 201.174 38.5781 201.173C48.4718 201.173 57.0338 206.88 61.1523 215.182C61.7759 216.439 63.2602 217.024 64.5762 216.586C69.9562 214.797 75.8513 215.55 80.5957 218.564C81.8964 219.39 83.6823 219.038 84.5488 217.75C89.0158 211.116 96.8775 207.355 105.047 208.308C106.496 208.477 107.869 207.485 108.137 206.042C109.775 197.225 116.009 190.019 124.261 187.007C125.271 186.638 126.002 185.69 126.002 184.581V168.847C126.002 168.019 126.674 167.347 127.502 167.347Z" stroke="#13F584" stroke-opacity="0.3"/>
<defs>
<linearGradient id="paint0_linear_928_443167" x1="132.894" y1="13.957" x2="132.894" y2="252.042" gradientUnits="userSpaceOnUse">
<stop stop-color="#13F584" stop-opacity="0.51"/>
<stop offset="1" stop-color="#13F584" stop-opacity="0"/>
</linearGradient>
<linearGradient id="paint1_linear_928_443167" x1="132.894" y1="166.847" x2="132.894" y2="252.042" gradientUnits="userSpaceOnUse">
<stop stop-color="#13F584" stop-opacity="0.51"/>
<stop offset="1" stop-color="#13F584" stop-opacity="0"/>
</linearGradient>
</defs>
</svg>
