<svg width="266" height="266" viewBox="0 0 266 266" fill="none" xmlns="http://www.w3.org/2000/svg">
<g clip-path="url(#clip0_918_375290)">
<path d="M219.365 182.718C220.239 182.537 220.89 181.798 220.94 180.906C221.107 177.911 221.115 174.91 220.963 171.915C220.918 171.014 220.258 170.266 219.373 170.09L207.423 167.707C206.579 167.539 205.94 166.849 205.815 165.997C205.372 162.975 204.732 159.984 203.899 157.045C203.666 156.221 203.962 155.333 204.658 154.833L214.577 147.698C215.307 147.173 215.599 146.225 215.274 145.386C214.738 144.004 214.164 142.627 213.547 141.258C212.932 139.89 212.281 138.547 211.603 137.229C211.191 136.429 210.287 136.018 209.41 136.216L197.492 138.908C196.656 139.097 195.795 138.731 195.333 138.009C193.685 135.437 191.871 132.976 189.902 130.641C189.347 129.983 189.254 129.047 189.688 128.303L195.829 117.777C196.284 116.998 196.162 116.009 195.518 115.377C193.377 113.278 191.126 111.294 188.775 109.434C188.075 108.881 187.09 108.877 186.375 109.411L176.513 116.767C175.833 117.275 174.908 117.295 174.194 116.836C171.677 115.216 169.061 113.757 166.361 112.467C165.58 112.094 165.109 111.273 165.204 110.413L166.528 98.3402C166.627 97.4399 166.109 96.5833 165.259 96.2707C162.401 95.2196 159.489 94.3221 156.535 93.5821C155.672 93.366 154.776 93.7638 154.341 94.5398L148.314 105.295C147.9 106.033 147.068 106.428 146.232 106.303C143.377 105.876 140.498 105.625 137.612 105.552C136.746 105.53 135.981 104.971 135.717 104.146L132.022 92.588C131.746 91.7241 130.922 91.1517 130.017 91.2136C126.917 91.4258 123.831 91.8089 120.773 92.3614C119.901 92.5188 119.25 93.2446 119.169 94.1264L118.032 106.467C117.955 107.303 117.363 108 116.555 108.23C113.914 108.985 111.318 109.891 108.782 110.945C107.981 111.278 107.055 111.079 106.478 110.432L98.3998 101.375C97.7965 100.699 96.8127 100.51 96.0114 100.933C93.1972 102.42 90.4682 104.062 87.8372 105.853C87.105 106.351 86.8052 107.279 87.0897 108.118L91.0674 119.847C91.337 120.642 91.0796 121.519 90.4362 122.058C88.4392 123.732 86.5368 125.516 84.738 127.402C84.1417 128.027 83.2175 128.219 82.43 127.864L71.3497 122.87C70.5246 122.498 69.5506 122.725 68.9903 123.436C66.9776 125.99 65.1127 128.657 63.4048 131.424C62.9401 132.177 63.0442 133.145 63.6445 133.795L72.0533 142.898C72.6227 143.514 72.7443 144.419 72.3763 145.173C71.2896 147.4 70.3198 149.681 69.4708 152.009C69.1766 152.815 68.4139 153.361 67.5554 153.357L55.3488 153.3C54.4486 153.295 53.6542 153.892 53.4267 154.763C52.5913 157.963 51.9421 161.209 51.4825 164.483C51.359 165.363 51.8482 166.211 52.6644 166.562L64.0159 171.444C64.791 171.777 65.2707 172.561 65.2361 173.404C65.138 175.798 65.1629 178.195 65.3107 180.587C65.3633 181.438 64.8889 182.239 64.1077 182.583L52.8853 187.516C52.0647 187.876 51.5819 188.739 51.7232 189.625C52.2493 192.919 52.9701 196.179 53.8818 199.388C54.1252 200.245 54.9181 200.823 55.8084 200.811L68.1321 200.654C68.9783 200.643 69.7372 201.167 70.0452 201.956C70.4734 203.051 70.9292 204.142 71.4177 205.227C71.9045 206.31 72.4193 207.374 72.9554 208.42C73.3411 209.173 73.2298 210.089 72.6607 210.715L64.3697 219.835C63.7705 220.494 63.6774 221.471 64.1575 222.221C65.9559 225.031 67.9187 227.732 70.0358 230.311C70.6046 231.004 71.5708 231.215 72.3849 230.84L83.5184 225.711C84.2935 225.354 85.2078 225.53 85.8103 226.135C87.5026 227.832 89.2809 229.441 91.1383 230.955C91.7922 231.489 92.0607 232.368 91.7961 233.169L87.9221 244.9C87.6436 245.743 87.9534 246.672 88.6935 247.163C91.4492 248.992 94.3093 250.658 97.2591 252.154C98.0617 252.561 99.0352 252.362 99.6288 251.686L107.681 242.511C108.247 241.865 109.161 241.656 109.96 241.971C112.265 242.879 114.615 243.666 117.002 244.329C117.81 244.553 118.408 245.244 118.491 246.079L119.729 258.412C119.818 259.292 120.473 260.012 121.345 260.163C124.549 260.72 127.783 261.093 131.029 261.28C131.933 261.333 132.749 260.754 133.018 259.89L136.627 248.282C136.883 247.457 137.64 246.893 138.504 246.861C141.107 246.765 143.704 246.524 146.281 246.14C147.111 246.016 147.938 246.405 148.354 247.133L154.497 257.888C154.937 258.656 155.829 259.047 156.688 258.83C159.773 258.049 162.812 257.096 165.79 255.976C166.639 255.656 167.15 254.795 167.044 253.895L165.621 241.842C165.519 240.982 165.985 240.156 166.765 239.777C169.236 238.579 171.635 237.238 173.95 235.762C174.658 235.31 175.572 235.328 176.249 235.825L186.243 243.154C186.957 243.678 187.931 243.672 188.627 243.124C191.068 241.202 193.401 239.146 195.616 236.966C196.262 236.33 196.38 235.334 195.916 234.554L189.715 224.123C189.272 223.379 189.362 222.435 189.92 221.772C191.779 219.564 193.5 217.244 195.074 214.824C195.535 214.115 196.382 213.754 197.209 213.934L209.257 216.553C210.126 216.742 211.017 216.336 211.428 215.546C212.833 212.845 214.092 210.07 215.2 207.234C215.53 206.39 215.232 205.435 214.492 204.912L204.578 197.9C203.872 197.4 203.57 196.503 203.808 195.671C204.634 192.794 205.276 189.868 205.73 186.91C205.859 186.07 206.489 185.39 207.321 185.217L219.365 182.718ZM152.746 212.86C145.47 216.135 137.386 217.178 129.517 215.859C121.649 214.539 114.348 210.916 108.538 205.447C102.728 199.978 98.671 192.909 96.8789 185.134C95.0867 177.359 95.6404 169.228 98.4698 161.767C101.299 154.307 106.277 147.853 112.775 143.222C119.272 138.591 126.996 135.991 134.972 135.75C142.947 135.509 150.814 137.638 157.579 141.869C164.344 146.099 169.702 152.241 172.977 159.517C175.151 164.348 176.353 169.56 176.513 174.855C176.673 180.15 175.789 185.425 173.91 190.379C172.031 195.332 169.195 199.867 165.564 203.725C161.932 207.582 157.577 210.686 152.746 212.86Z" fill="#F8F8F8" fill-opacity="0.05"/>
<path d="M219.365 182.718C220.239 182.537 220.89 181.798 220.94 180.906C221.107 177.911 221.115 174.91 220.963 171.915C220.918 171.014 220.258 170.266 219.373 170.09L207.423 167.707C206.579 167.539 205.94 166.849 205.815 165.997C205.372 162.975 204.732 159.984 203.899 157.045C203.666 156.221 203.962 155.333 204.658 154.833L214.577 147.698C215.307 147.173 215.599 146.225 215.274 145.386C214.738 144.004 214.164 142.627 213.547 141.258C212.932 139.89 212.281 138.547 211.603 137.229C211.191 136.429 210.287 136.018 209.41 136.216L197.492 138.908C196.656 139.097 195.795 138.731 195.333 138.009C193.685 135.437 191.871 132.976 189.902 130.641C189.347 129.983 189.254 129.047 189.688 128.303L195.829 117.777C196.284 116.998 196.162 116.009 195.518 115.377C193.377 113.278 191.126 111.294 188.775 109.434C188.075 108.881 187.09 108.877 186.375 109.411L176.513 116.767C175.833 117.275 174.908 117.295 174.194 116.836C171.677 115.216 169.061 113.757 166.361 112.467C165.58 112.094 165.109 111.273 165.204 110.413L166.528 98.3402C166.627 97.4399 166.109 96.5833 165.259 96.2707C162.401 95.2196 159.489 94.3221 156.535 93.5821C155.672 93.366 154.776 93.7638 154.341 94.5398L148.314 105.295C147.9 106.033 147.068 106.428 146.232 106.303C143.377 105.876 140.498 105.625 137.612 105.552C136.746 105.53 135.981 104.971 135.717 104.146L132.022 92.588C131.746 91.7241 130.922 91.1517 130.017 91.2136C126.917 91.4258 123.831 91.8089 120.773 92.3614C119.901 92.5188 119.25 93.2446 119.169 94.1264L118.032 106.467C117.955 107.303 117.363 108 116.555 108.23C113.914 108.985 111.318 109.891 108.782 110.945C107.981 111.278 107.055 111.079 106.478 110.432L98.3998 101.375C97.7965 100.699 96.8127 100.51 96.0114 100.933C93.1972 102.42 90.4682 104.062 87.8372 105.853C87.105 106.351 86.8052 107.279 87.0897 108.118L91.0674 119.847C91.337 120.642 91.0796 121.519 90.4362 122.058C88.4392 123.732 86.5368 125.516 84.738 127.402C84.1417 128.027 83.2175 128.219 82.43 127.864L71.3497 122.87C70.5246 122.498 69.5506 122.725 68.9903 123.436C66.9776 125.99 65.1127 128.657 63.4048 131.424C62.9401 132.177 63.0442 133.145 63.6445 133.795L72.0533 142.898C72.6227 143.514 72.7443 144.419 72.3763 145.173C71.2896 147.4 70.3198 149.681 69.4708 152.009C69.1766 152.815 68.4139 153.361 67.5554 153.357L55.3488 153.3C54.4486 153.295 53.6542 153.892 53.4267 154.763C52.5913 157.963 51.9421 161.209 51.4825 164.483C51.359 165.363 51.8482 166.211 52.6644 166.562L64.0159 171.444C64.791 171.777 65.2707 172.561 65.2361 173.404C65.138 175.798 65.1629 178.195 65.3107 180.587C65.3633 181.438 64.8889 182.239 64.1077 182.583L52.8853 187.516C52.0647 187.876 51.5819 188.739 51.7232 189.625C52.2493 192.919 52.9701 196.179 53.8818 199.388C54.1252 200.245 54.9181 200.823 55.8084 200.811L68.1321 200.654C68.9783 200.643 69.7372 201.167 70.0452 201.956C70.4734 203.051 70.9292 204.142 71.4177 205.227C71.9045 206.31 72.4193 207.374 72.9554 208.42C73.3411 209.173 73.2298 210.089 72.6607 210.715L64.3697 219.835C63.7705 220.494 63.6774 221.471 64.1575 222.221C65.9559 225.031 67.9187 227.732 70.0358 230.311C70.6046 231.004 71.5708 231.215 72.3849 230.84L83.5184 225.711C84.2935 225.354 85.2078 225.53 85.8103 226.135C87.5026 227.832 89.2809 229.441 91.1383 230.955C91.7922 231.489 92.0607 232.368 91.7961 233.169L87.9221 244.9C87.6436 245.743 87.9534 246.672 88.6935 247.163C91.4492 248.992 94.3093 250.658 97.2591 252.154C98.0617 252.561 99.0352 252.362 99.6288 251.686L107.681 242.511C108.247 241.865 109.161 241.656 109.96 241.971C112.265 242.879 114.615 243.666 117.002 244.329C117.81 244.553 118.408 245.244 118.491 246.079L119.729 258.412C119.818 259.292 120.473 260.012 121.345 260.163C124.549 260.72 127.783 261.093 131.029 261.28C131.933 261.333 132.749 260.754 133.018 259.89L136.627 248.282C136.883 247.457 137.64 246.893 138.504 246.861C141.107 246.765 143.704 246.524 146.281 246.14C147.111 246.016 147.938 246.405 148.354 247.133L154.497 257.888C154.937 258.656 155.829 259.047 156.688 258.83C159.773 258.049 162.812 257.096 165.79 255.976C166.639 255.656 167.15 254.795 167.044 253.895L165.621 241.842C165.519 240.982 165.985 240.156 166.765 239.777C169.236 238.579 171.635 237.238 173.95 235.762C174.658 235.31 175.572 235.328 176.249 235.825L186.243 243.154C186.957 243.678 187.931 243.672 188.627 243.124C191.068 241.202 193.401 239.146 195.616 236.966C196.262 236.33 196.38 235.334 195.916 234.554L189.715 224.123C189.272 223.379 189.362 222.435 189.92 221.772C191.779 219.564 193.5 217.244 195.074 214.824C195.535 214.115 196.382 213.754 197.209 213.934L209.257 216.553C210.126 216.742 211.017 216.336 211.428 215.546C212.833 212.845 214.092 210.07 215.2 207.234C215.53 206.39 215.232 205.435 214.492 204.912L204.578 197.9C203.872 197.4 203.57 196.503 203.808 195.671C204.634 192.794 205.276 189.868 205.73 186.91C205.859 186.07 206.489 185.39 207.321 185.217L219.365 182.718ZM152.746 212.86C145.47 216.135 137.386 217.178 129.517 215.859C121.649 214.539 114.348 210.916 108.538 205.447C102.728 199.978 98.671 192.909 96.8789 185.134C95.0867 177.359 95.6404 169.228 98.4698 161.767C101.299 154.307 106.277 147.853 112.775 143.222C119.272 138.591 126.996 135.991 134.972 135.75C142.947 135.509 150.814 137.638 157.579 141.869C164.344 146.099 169.702 152.241 172.977 159.517C175.151 164.348 176.353 169.56 176.513 174.855C176.673 180.15 175.789 185.425 173.91 190.379C172.031 195.332 169.195 199.867 165.564 203.725C161.932 207.582 157.577 210.686 152.746 212.86Z" fill="url(#paint0_linear_918_375290)" fill-opacity="0.2"/>
<path d="M130.052 91.7124C130.722 91.6666 131.338 92.0908 131.546 92.7407L135.241 104.298C135.572 105.332 136.527 106.025 137.6 106.052C140.465 106.125 143.323 106.374 146.158 106.797C147.194 106.952 148.232 106.463 148.75 105.54L154.777 94.7847C155.104 94.201 155.774 93.9069 156.413 94.0669C159.35 94.8025 162.245 95.6948 165.086 96.7397C165.715 96.9712 166.105 97.6084 166.031 98.2856L164.707 110.359C164.589 111.436 165.178 112.456 166.146 112.917C168.827 114.198 171.424 115.648 173.923 117.256C174.807 117.826 175.96 117.804 176.812 117.168L186.674 109.812C187.212 109.411 187.946 109.417 188.465 109.827C190.802 111.675 193.04 113.647 195.168 115.734C195.645 116.202 195.74 116.94 195.397 117.526L189.256 128.051C188.712 128.983 188.832 130.148 189.52 130.963C191.474 133.282 193.276 135.725 194.912 138.279C195.485 139.172 196.555 139.632 197.602 139.396L209.52 136.704C210.179 136.555 210.853 136.865 211.158 137.458C211.833 138.769 212.48 140.104 213.091 141.463H213.092C213.705 142.823 214.274 144.192 214.808 145.567C215.049 146.188 214.834 146.898 214.285 147.292L204.366 154.427C203.495 155.054 203.129 156.16 203.418 157.181C204.245 160.099 204.88 163.069 205.32 166.07C205.475 167.125 206.268 167.987 207.325 168.198L219.275 170.581C219.941 170.714 220.43 171.273 220.464 171.94C220.614 174.918 220.606 177.902 220.44 180.878C220.403 181.538 219.921 182.092 219.264 182.229L207.219 184.728C206.177 184.944 205.396 185.793 205.236 186.833C204.785 189.771 204.148 192.677 203.328 195.534C203.032 196.564 203.405 197.682 204.29 198.308L214.204 205.32C214.76 205.713 214.978 206.428 214.734 207.052C213.633 209.872 212.381 212.63 210.984 215.316C210.68 215.9 210.016 216.207 209.362 216.065L197.315 213.445C196.28 213.22 195.225 213.673 194.654 214.551C193.092 216.954 191.383 219.258 189.537 221.451C188.846 222.272 188.731 223.447 189.285 224.379L195.486 234.81C195.835 235.397 195.744 236.139 195.266 236.61C193.064 238.777 190.744 240.82 188.317 242.731C187.802 243.136 187.075 243.145 186.538 242.751L176.545 235.421C175.697 234.799 174.558 234.781 173.681 235.34C171.382 236.807 169 238.138 166.547 239.328C165.581 239.796 164.997 240.823 165.124 241.901L166.547 253.954C166.627 254.631 166.242 255.271 165.614 255.507C162.653 256.621 159.632 257.569 156.565 258.345C155.93 258.506 155.262 258.217 154.932 257.639L148.788 246.885C148.267 245.973 147.236 245.492 146.208 245.645C143.649 246.026 141.071 246.265 138.485 246.361C137.416 246.4 136.471 247.1 136.149 248.133L132.541 259.741C132.339 260.391 131.728 260.819 131.059 260.781C127.831 260.594 124.616 260.224 121.431 259.67C120.785 259.558 120.293 259.024 120.227 258.362L118.989 246.03C118.884 244.984 118.137 244.125 117.136 243.847C114.766 243.189 112.432 242.407 110.144 241.505C109.154 241.115 108.014 241.373 107.305 242.181L99.2529 251.356C98.8064 251.865 98.0796 252.01 97.4854 251.708C94.5529 250.221 91.7092 248.565 88.9697 246.747C88.4219 246.383 88.1873 245.691 88.3965 245.057L92.2705 233.326C92.6019 232.322 92.2641 231.228 91.4541 230.568C89.61 229.064 87.8442 227.467 86.1641 225.782C85.4177 225.033 84.2803 224.81 83.3096 225.257L72.1758 230.385C71.5633 230.667 70.843 230.507 70.4219 229.994C68.3174 227.43 66.3659 224.745 64.5781 221.952C64.2229 221.396 64.2889 220.667 64.7393 220.171L73.0303 211.051C73.7429 210.267 73.8785 209.127 73.4004 208.193C72.8679 207.153 72.3569 206.096 71.874 205.022V205.021L71.5156 204.212C71.164 203.403 70.8296 202.59 70.5107 201.774C70.1289 200.797 69.1856 200.14 68.126 200.154L55.8018 200.311C55.1321 200.319 54.5434 199.885 54.3633 199.251C53.457 196.061 52.7398 192.82 52.2168 189.545C52.1124 188.89 52.4697 188.244 53.0869 187.973L64.3086 183.041C65.2869 182.61 65.8746 181.611 65.8096 180.556C65.6629 178.182 65.6379 175.801 65.7354 173.424C65.778 172.38 65.1843 171.402 64.2139 170.985L52.8623 166.103C52.2484 165.839 51.8863 165.205 51.9775 164.553C52.4344 161.298 53.0796 158.071 53.9102 154.89C54.0786 154.245 54.6695 153.796 55.3467 153.799L67.5527 153.857C68.628 153.862 69.576 153.179 69.9404 152.18C70.7834 149.869 71.7463 147.604 72.8252 145.393C73.2812 144.459 73.134 143.33 72.4209 142.558L64.0117 133.456C63.5603 132.967 63.4863 132.244 63.8301 131.687C65.5279 128.936 67.3819 126.284 69.3828 123.746C69.7976 123.219 70.5238 123.046 71.1445 123.326L82.2246 128.321C83.2109 128.765 84.3611 128.521 85.0996 127.747C86.8856 125.875 88.775 124.103 90.7578 122.441C91.5544 121.773 91.8784 120.682 91.541 119.687L87.5635 107.958C87.3495 107.327 87.576 106.635 88.1182 106.266C90.7338 104.486 93.4474 102.853 96.2451 101.375C96.8383 101.062 97.5726 101.199 98.0264 101.708L106.105 110.765C106.828 111.575 107.983 111.818 108.974 111.407C111.492 110.36 114.07 109.461 116.692 108.711C117.693 108.426 118.433 107.56 118.529 106.513L119.667 94.1724C119.728 93.5091 120.216 92.9697 120.861 92.853C123.901 92.3039 126.97 91.9233 130.052 91.7124ZM157.844 141.445C150.995 137.162 143.03 135.007 134.956 135.25C126.882 135.494 119.062 138.127 112.484 142.815C105.907 147.503 100.866 154.038 98.002 161.59C95.1376 169.143 94.5773 177.375 96.3916 185.247C98.206 193.118 102.314 200.274 108.195 205.811C114.077 211.348 121.468 215.016 129.435 216.352C137.401 217.688 145.585 216.632 152.951 213.317C157.842 211.116 162.251 207.973 165.928 204.068C169.604 200.163 172.475 195.571 174.377 190.556C176.279 185.541 177.175 180.201 177.013 174.84C176.851 169.479 175.634 164.203 173.433 159.312C170.118 151.946 164.693 145.728 157.844 141.445Z" stroke="#13F584" stroke-opacity="0.3"/>
<path d="M149.533 205.723C143.669 208.362 137.154 209.203 130.812 208.14C124.47 207.076 118.586 204.156 113.904 199.749C109.221 195.341 105.951 189.644 104.507 183.378C103.062 177.112 103.508 170.558 105.788 164.545C108.069 158.533 112.081 153.331 117.317 149.599C122.553 145.866 128.779 143.77 135.206 143.576C141.634 143.382 147.975 145.097 153.427 148.507C158.879 151.916 163.198 156.866 165.837 162.729C167.59 166.623 168.559 170.824 168.688 175.092C168.818 179.36 168.105 183.611 166.591 187.604C165.077 191.596 162.791 195.251 159.864 198.36C156.937 201.469 153.427 203.971 149.533 205.723Z" fill="#F8F8F8" fill-opacity="0.05"/>
<path d="M149.533 205.723C143.669 208.362 137.154 209.203 130.812 208.14C124.47 207.076 118.586 204.156 113.904 199.749C109.221 195.341 105.951 189.644 104.507 183.378C103.062 177.112 103.508 170.558 105.788 164.545C108.069 158.533 112.081 153.331 117.317 149.599C122.553 145.866 128.779 143.77 135.206 143.576C141.634 143.382 147.975 145.097 153.427 148.507C158.879 151.916 163.198 156.866 165.837 162.729C167.59 166.623 168.559 170.824 168.688 175.092C168.818 179.36 168.105 183.611 166.591 187.604C165.077 191.596 162.791 195.251 159.864 198.36C156.937 201.469 153.427 203.971 149.533 205.723Z" fill="url(#paint1_linear_918_375290)" fill-opacity="0.2"/>
<path d="M135.222 144.076C141.55 143.884 147.794 145.574 153.162 148.931C158.53 152.288 162.783 157.162 165.382 162.935C167.108 166.769 168.061 170.905 168.188 175.107C168.316 179.309 167.614 183.495 166.123 187.426C164.632 191.357 162.382 194.956 159.5 198.017C156.618 201.078 153.162 203.542 149.328 205.267C143.554 207.866 137.139 208.694 130.895 207.647C124.65 206.6 118.856 203.724 114.246 199.384C109.636 195.045 106.416 189.435 104.994 183.265C103.572 177.096 104.011 170.643 106.256 164.723C108.501 158.803 112.452 153.681 117.607 150.006C122.763 146.331 128.893 144.267 135.222 144.076Z" stroke="#13F584" stroke-opacity="0.3"/>
<path d="M255.692 68.0502C256.675 67.9311 257.423 67.1109 257.451 66.1213L257.749 55.5892C257.777 54.5998 257.077 53.7387 256.103 53.564L248.844 52.2621C248.003 52.1112 247.355 51.4417 247.198 50.6019C246.553 47.1713 245.496 43.8311 244.05 40.6538C243.705 39.8959 243.833 39.0006 244.402 38.3923L249.551 32.8851C250.227 32.1622 250.272 31.0537 249.658 30.2778L243.119 22.017C242.504 21.2407 241.414 21.0309 240.555 21.5237L234.279 25.125C233.538 25.5502 232.611 25.4541 231.95 24.9128C229.221 22.6777 226.228 20.7858 223.038 19.2793C222.281 18.922 221.8 18.1507 221.845 17.3152L222.249 9.89231C222.302 8.90355 221.624 8.02434 220.654 7.82485L210.333 5.70193C209.363 5.5025 208.394 6.04237 208.053 6.97162L205.55 13.7884C205.257 14.5869 204.491 15.1079 203.64 15.1223C200.131 15.1817 196.642 15.6699 193.251 16.5764C192.44 16.7932 191.572 16.5129 191.067 15.8419L186.55 9.83213C185.955 9.04093 184.871 8.8037 184.001 9.27417L174.731 14.2824C173.86 14.753 173.464 15.7899 173.8 16.721L176.327 23.7221C176.614 24.5175 176.367 25.4041 175.732 25.9625C173.143 28.24 170.834 30.8179 168.855 33.6418C168.373 34.3293 167.528 34.6728 166.71 34.4827L159.165 32.7292C158.201 32.505 157.218 33.0201 156.853 33.9404L152.971 43.736C152.607 44.6563 152.97 45.7049 153.826 46.2022L160.487 50.0721C161.216 50.496 161.597 51.3317 161.472 52.1662C160.971 55.4991 160.859 58.879 161.139 62.2377C161.209 63.0717 160.782 63.8747 160.036 64.2534L152.907 67.8713C152.024 68.3193 151.602 69.3458 151.914 70.2853L155.236 80.2843C155.548 81.2237 156.5 81.7935 157.475 81.6245L165.269 80.2733C166.1 80.1291 166.929 80.5248 167.369 81.2448C169.098 84.0718 171.142 86.6933 173.462 89.0586C174.045 89.6529 174.231 90.5378 173.904 91.3037L170.701 98.8175C170.313 99.7281 170.649 100.786 171.492 101.305L180.463 106.83C181.306 107.349 182.402 107.174 183.041 106.417L188.174 100.333C188.722 99.6845 189.617 99.4563 190.42 99.731C193.545 100.8 196.783 101.505 200.069 101.832C200.896 101.914 201.605 102.472 201.847 103.267L204.225 111.084C204.513 112.031 205.451 112.625 206.43 112.48L216.851 110.946C217.83 110.801 218.557 109.962 218.56 108.973L218.583 101.116C218.585 100.265 219.128 99.5129 219.923 99.2095C223.05 98.0171 226.029 96.4694 228.803 94.5969C229.488 94.1341 230.385 94.109 231.078 94.5605L237.787 98.9328C238.617 99.4732 239.716 99.3257 240.374 98.5858L247.376 90.7077C248.034 89.9675 248.051 88.8574 247.416 88.0972L242.535 82.2517C241.987 81.5953 241.921 80.6653 242.341 79.92C244.017 76.94 245.335 73.7715 246.265 70.4811C246.491 69.6828 247.163 69.0837 247.987 68.9839L255.692 68.0502ZM227.093 63.2411C226.172 67.7178 223.944 71.821 220.691 75.0317C217.439 78.2424 213.307 80.4165 208.818 81.2789C204.33 82.1414 199.687 81.6535 195.476 79.877C191.264 78.1005 187.675 75.1153 185.16 71.2986C182.646 67.482 181.32 63.0054 181.349 58.435C181.379 53.8647 182.763 49.4057 185.327 45.6221C187.891 41.8385 191.519 38.9001 195.753 37.1785C199.987 35.4569 204.636 35.0295 209.113 35.9502C212.086 36.5615 214.909 37.7524 217.421 39.4547C219.933 41.1571 222.086 43.3376 223.755 45.8718C225.425 48.4061 226.579 51.2443 227.151 54.2245C227.724 57.2048 227.704 60.2686 227.093 63.2411Z" fill="#F8F8F8" fill-opacity="0.05"/>
<path d="M255.692 68.0502C256.675 67.9311 257.423 67.1109 257.451 66.1213L257.749 55.5892C257.777 54.5998 257.077 53.7387 256.103 53.564L248.844 52.2621C248.003 52.1112 247.355 51.4417 247.198 50.6019C246.553 47.1713 245.496 43.8311 244.05 40.6538C243.705 39.8959 243.833 39.0006 244.402 38.3923L249.551 32.8851C250.227 32.1622 250.272 31.0537 249.658 30.2778L243.119 22.017C242.504 21.2407 241.414 21.0309 240.555 21.5237L234.279 25.125C233.538 25.5502 232.611 25.4541 231.95 24.9128C229.221 22.6777 226.228 20.7858 223.038 19.2793C222.281 18.922 221.8 18.1507 221.845 17.3152L222.249 9.89231C222.302 8.90355 221.624 8.02434 220.654 7.82485L210.333 5.70193C209.363 5.5025 208.394 6.04237 208.053 6.97162L205.55 13.7884C205.257 14.5869 204.491 15.1079 203.64 15.1223C200.131 15.1817 196.642 15.6699 193.251 16.5764C192.44 16.7932 191.572 16.5129 191.067 15.8419L186.55 9.83213C185.955 9.04093 184.871 8.8037 184.001 9.27417L174.731 14.2824C173.86 14.753 173.464 15.7899 173.8 16.721L176.327 23.7221C176.614 24.5175 176.367 25.4041 175.732 25.9625C173.143 28.24 170.834 30.8179 168.855 33.6418C168.373 34.3293 167.528 34.6728 166.71 34.4827L159.165 32.7292C158.201 32.505 157.218 33.0201 156.853 33.9404L152.971 43.736C152.607 44.6563 152.97 45.7049 153.826 46.2022L160.487 50.0721C161.216 50.496 161.597 51.3317 161.472 52.1662C160.971 55.4991 160.859 58.879 161.139 62.2377C161.209 63.0717 160.782 63.8747 160.036 64.2534L152.907 67.8713C152.024 68.3193 151.602 69.3458 151.914 70.2853L155.236 80.2843C155.548 81.2237 156.5 81.7935 157.475 81.6245L165.269 80.2733C166.1 80.1291 166.929 80.5248 167.369 81.2448C169.098 84.0718 171.142 86.6933 173.462 89.0586C174.045 89.6529 174.231 90.5378 173.904 91.3037L170.701 98.8175C170.313 99.7281 170.649 100.786 171.492 101.305L180.463 106.83C181.306 107.349 182.402 107.174 183.041 106.417L188.174 100.333C188.722 99.6845 189.617 99.4563 190.42 99.731C193.545 100.8 196.783 101.505 200.069 101.832C200.896 101.914 201.605 102.472 201.847 103.267L204.225 111.084C204.513 112.031 205.451 112.625 206.43 112.48L216.851 110.946C217.83 110.801 218.557 109.962 218.56 108.973L218.583 101.116C218.585 100.265 219.128 99.5129 219.923 99.2095C223.05 98.0171 226.029 96.4694 228.803 94.5969C229.488 94.1341 230.385 94.109 231.078 94.5605L237.787 98.9328C238.617 99.4732 239.716 99.3257 240.374 98.5858L247.376 90.7077C248.034 89.9675 248.051 88.8574 247.416 88.0972L242.535 82.2517C241.987 81.5953 241.921 80.6653 242.341 79.92C244.017 76.94 245.335 73.7715 246.265 70.4811C246.491 69.6828 247.163 69.0837 247.987 68.9839L255.692 68.0502ZM227.093 63.2411C226.172 67.7178 223.944 71.821 220.691 75.0317C217.439 78.2424 213.307 80.4165 208.818 81.2789C204.33 82.1414 199.687 81.6535 195.476 79.877C191.264 78.1005 187.675 75.1153 185.16 71.2986C182.646 67.482 181.32 63.0054 181.349 58.435C181.379 53.8647 182.763 49.4057 185.327 45.6221C187.891 41.8385 191.519 38.9001 195.753 37.1785C199.987 35.4569 204.636 35.0295 209.113 35.9502C212.086 36.5615 214.909 37.7524 217.421 39.4547C219.933 41.1571 222.086 43.3376 223.755 45.8718C225.425 48.4061 226.579 51.2443 227.151 54.2245C227.724 57.2048 227.704 60.2686 227.093 63.2411Z" fill="url(#paint2_linear_918_375290)"/>
<path d="M208.522 7.14404C208.778 6.44714 209.505 6.04233 210.232 6.19189L220.554 8.31494C221.281 8.46457 221.789 9.12339 221.749 9.86475L221.346 17.2886C221.289 18.3358 221.893 19.2908 222.824 19.731C225.977 21.22 228.936 23.0902 231.634 25.2993C232.448 25.9659 233.598 26.092 234.527 25.5591L240.804 21.9575C241.448 21.5879 242.266 21.7454 242.727 22.3276L249.266 30.5884C249.726 31.1703 249.692 32.0013 249.186 32.5435L244.037 38.0513C243.324 38.814 243.17 39.9271 243.595 40.8608C245.024 44.0013 246.069 47.303 246.706 50.6938C246.901 51.7282 247.701 52.5652 248.756 52.7544L256.015 54.0562C256.745 54.1872 257.27 54.8329 257.249 55.5747L256.951 66.1069C256.93 66.8491 256.369 67.4649 255.632 67.5542L247.927 68.4878C246.894 68.6129 246.062 69.3618 245.784 70.3452C244.864 73.5975 243.563 76.7297 241.905 79.6753C241.389 80.593 241.464 81.7487 242.151 82.5718L247.032 88.4175C247.508 88.9876 247.495 89.8203 247.002 90.3755L240 98.2534C239.507 98.8082 238.682 98.9192 238.061 98.5142L231.351 94.1411C230.482 93.5752 229.367 93.612 228.522 94.1821C225.781 96.0332 222.836 97.5639 219.745 98.7427C218.765 99.1164 218.086 100.047 218.083 101.115L218.06 108.971C218.057 109.714 217.513 110.343 216.778 110.451L206.357 111.986C205.623 112.094 204.919 111.648 204.703 110.938L202.325 103.122C202.022 102.125 201.137 101.436 200.118 101.334C196.87 101.011 193.67 100.315 190.582 99.2583C189.593 98.9201 188.478 99.1971 187.792 100.01L182.658 106.094C182.179 106.662 181.358 106.794 180.726 106.405L171.754 100.879C171.122 100.49 170.87 99.6961 171.161 99.0132L174.364 91.4995C174.773 90.5393 174.538 89.4406 173.819 88.7085C171.525 86.3702 169.504 83.7786 167.796 80.9839C167.254 80.0969 166.226 79.6 165.184 79.7808L157.39 81.1313C156.658 81.2581 155.944 80.831 155.71 80.1265L152.389 70.1274C152.155 69.4229 152.471 68.6529 153.133 68.3169L160.262 64.6997C161.197 64.2248 161.723 63.2232 161.638 62.1958C161.361 58.8759 161.471 55.5351 161.966 52.2407C162.12 51.2129 161.653 50.1718 160.738 49.6401L154.077 45.77C153.435 45.3971 153.163 44.6106 153.437 43.9204L157.318 34.1245C157.592 33.4345 158.329 33.0485 159.052 33.2163L166.597 34.9702C167.622 35.2085 168.671 34.7759 169.265 33.9292C171.221 31.138 173.503 28.5896 176.062 26.3384C176.845 25.6505 177.158 24.5496 176.798 23.5522L174.271 16.5513C174.018 15.8529 174.316 15.0751 174.969 14.7222L184.238 9.71436C184.891 9.36153 185.704 9.53904 186.15 10.1323L190.667 16.1421C191.299 16.9835 192.381 17.326 193.38 17.0591C196.731 16.1632 200.18 15.6812 203.648 15.6226C204.696 15.6048 205.652 14.9617 206.02 13.9604L208.522 7.14404ZM209.214 35.4604C204.64 34.5198 199.89 34.9565 195.564 36.7153C191.239 38.4742 187.532 41.476 184.913 45.3413C182.294 49.2068 180.88 53.7629 180.85 58.4321C180.819 63.1013 182.174 67.6746 184.743 71.5737C187.312 75.4728 190.979 78.5225 195.281 80.3374C199.583 82.1523 204.328 82.6511 208.913 81.77C213.498 80.8888 217.72 78.6673 221.043 75.3872C224.366 72.1072 226.641 67.9155 227.582 63.3423C228.207 60.3055 228.228 57.175 227.643 54.1304C227.058 51.0858 225.878 48.1861 224.173 45.5972C222.467 43.0081 220.268 40.7797 217.701 39.0405C215.135 37.3014 212.251 36.085 209.214 35.4604Z" stroke="#13F584" stroke-opacity="0.3"/>
<path d="M219.935 61.7698C219.305 64.831 217.782 67.6366 215.557 69.8319C213.333 72.0272 210.508 73.5137 207.439 74.1033C204.37 74.6929 201.195 74.3591 198.315 73.1443C195.436 71.9294 192.981 69.8879 191.262 67.2781C189.543 64.6682 188.636 61.6072 188.657 58.482C188.677 55.3569 189.624 52.308 191.377 49.7209C193.13 47.1338 195.611 45.1247 198.507 43.9477C201.402 42.7707 204.581 42.4786 207.642 43.1083C209.674 43.5265 211.605 44.3408 213.322 45.505C215.04 46.6691 216.512 48.1602 217.653 49.893C218.795 51.6259 219.584 53.5667 219.975 55.6045C220.367 57.6424 220.353 59.7373 219.935 61.7698Z" fill="#F8F8F8" fill-opacity="0.05"/>
<path d="M219.935 61.7698C219.305 64.831 217.782 67.6366 215.557 69.8319C213.333 72.0272 210.508 73.5137 207.439 74.1033C204.37 74.6929 201.195 74.3591 198.315 73.1443C195.436 71.9294 192.981 69.8879 191.262 67.2781C189.543 64.6682 188.636 61.6072 188.657 58.482C188.677 55.3569 189.624 52.308 191.377 49.7209C193.13 47.1338 195.611 45.1247 198.507 43.9477C201.402 42.7707 204.581 42.4786 207.642 43.1083C209.674 43.5265 211.605 44.3408 213.322 45.505C215.04 46.6691 216.512 48.1602 217.653 49.893C218.795 51.6259 219.584 53.5667 219.975 55.6045C220.367 57.6424 220.353 59.7373 219.935 61.7698Z" fill="url(#paint3_linear_918_375290)"/>
<path d="M198.695 44.4111C201.499 43.2715 204.577 42.9879 207.541 43.5977C209.509 44.0025 211.379 44.7917 213.042 45.9189C214.705 47.0462 216.131 48.4899 217.236 50.168C218.342 51.846 219.105 53.7259 219.484 55.6992C219.84 57.5493 219.85 59.4479 219.517 61.2998L219.445 61.6689C218.835 64.6331 217.36 67.3497 215.206 69.4756C213.052 71.6014 210.317 73.0413 207.345 73.6123C204.373 74.1832 201.298 73.86 198.51 72.6836C195.721 71.5072 193.344 69.5302 191.68 67.0029C190.015 64.4757 189.136 61.5116 189.156 58.4854C189.176 55.4591 190.093 52.5062 191.791 50.001C193.489 47.4959 195.892 45.5509 198.695 44.4111Z" stroke="#13F584" stroke-opacity="0.3"/>
<path d="M76.0976 95.7525C76.3265 95.0449 76.8993 94.4943 77.6259 94.3358L89.7517 91.6906C90.6817 91.4877 91.3398 90.6576 91.3252 89.7059L91.2564 85.2247C91.2418 84.2731 90.5587 83.4636 89.6231 83.2893L77.8478 81.0949C77.0765 80.9512 76.4669 80.3679 76.2428 79.6161C75.7691 78.0277 75.1502 76.4862 74.3939 75.0112C74.054 74.3485 74.0692 73.5529 74.4715 72.9262L81.1781 62.4782C81.6923 61.6772 81.5707 60.6249 80.8875 59.9622L77.6709 56.8421C76.9878 56.1795 75.9324 56.09 75.1474 56.6282L65.2818 63.3922C64.6338 63.8365 63.7888 63.8542 63.0983 63.4793C61.6383 62.6864 60.1085 62.0296 58.528 61.517C57.8212 61.2878 57.2714 60.7153 57.1131 59.9894L54.4676 47.8623C54.2647 46.9323 53.4346 46.2742 52.4829 46.2888L48.0019 46.3576C47.0502 46.3722 46.2407 47.0555 46.0664 47.9912L43.8745 59.7618C43.7307 60.5341 43.146 61.1443 42.3929 61.3678C40.8037 61.8395 39.2612 62.4565 37.785 63.2111C37.1228 63.5496 36.3284 63.5339 35.7025 63.1322L25.2483 56.4221C24.4473 55.908 23.395 56.0295 22.7324 56.7127L19.6123 59.9293C18.9497 60.6125 18.8602 61.668 19.3985 62.4529L26.1667 72.323C26.6111 72.9711 26.6289 73.8161 26.254 74.5067C25.4616 75.9663 24.8054 77.4958 24.2937 79.076C24.0646 79.7832 23.492 80.3335 22.7657 80.492L10.6415 83.1372C9.71158 83.3401 9.05347 84.1703 9.06808 85.122L9.13686 89.6031C9.15146 90.5547 9.83462 91.3643 10.7702 91.5386L22.5423 93.7323C23.3152 93.8763 23.9256 94.4618 24.1486 95.2156C24.6191 96.806 25.2352 98.3497 25.9892 99.8271C26.327 100.489 26.3111 101.283 25.9096 101.908L19.1949 112.37C18.6806 113.171 18.8024 114.224 19.4861 114.886L22.7061 118.007C23.3894 118.669 24.4447 118.758 25.2294 118.22L35.1034 111.447C35.7509 111.003 36.5952 110.984 37.2855 111.358C38.747 112.15 40.2783 112.806 41.8599 113.318C42.5672 113.547 43.1174 114.12 43.276 114.846L45.9232 126.971C46.1262 127.9 46.9563 128.558 47.9078 128.544L52.3893 128.475C53.3409 128.46 54.1504 127.777 54.3248 126.842L56.5187 115.068C56.6626 114.296 57.2472 113.686 58.0001 113.462C59.5887 112.991 61.1304 112.373 62.6056 111.618C63.268 111.279 64.063 111.294 64.6893 111.696L75.1451 118.406C75.946 118.92 76.9982 118.798 77.6608 118.115L80.7809 114.899C81.4436 114.215 81.533 113.16 80.9946 112.375L74.2264 102.507C73.7821 101.859 73.7641 101.014 74.1386 100.324C74.9306 98.8634 75.5864 97.3332 76.0976 95.7525ZM59.5949 96.525C57.7929 98.3831 55.4804 99.6652 52.9498 100.209C50.4191 100.753 47.7841 100.534 45.3778 99.5803C42.9715 98.6265 40.9021 96.9806 39.4313 94.8508C37.9604 92.7209 37.1541 90.2027 37.1145 87.6146C37.0748 85.0265 37.8034 82.4847 39.2083 80.3108C40.6132 78.1368 42.6312 76.4283 45.0071 75.4012C47.383 74.3741 50.0101 74.0746 52.5562 74.5406C55.1023 75.0066 57.453 76.2171 59.3111 78.0191C60.545 79.2155 61.5312 80.6432 62.2132 82.2208C62.8953 83.7983 63.2599 85.4948 63.2863 87.2133C63.3126 88.9318 63.0002 90.6386 62.3668 92.2363C61.7334 93.834 60.7915 95.2914 59.5949 96.525Z" fill="#F8F8F8" fill-opacity="0.05"/>
<path d="M76.0976 95.7525C76.3265 95.0449 76.8993 94.4943 77.6259 94.3358L89.7517 91.6906C90.6817 91.4877 91.3398 90.6576 91.3252 89.7059L91.2564 85.2247C91.2418 84.2731 90.5587 83.4636 89.6231 83.2893L77.8478 81.0949C77.0765 80.9512 76.4669 80.3679 76.2428 79.6161C75.7691 78.0277 75.1502 76.4862 74.3939 75.0112C74.054 74.3485 74.0692 73.5529 74.4715 72.9262L81.1781 62.4782C81.6923 61.6772 81.5707 60.6249 80.8875 59.9622L77.6709 56.8421C76.9878 56.1795 75.9324 56.09 75.1474 56.6282L65.2818 63.3922C64.6338 63.8365 63.7888 63.8542 63.0983 63.4793C61.6383 62.6864 60.1085 62.0296 58.528 61.517C57.8212 61.2878 57.2714 60.7153 57.1131 59.9894L54.4676 47.8623C54.2647 46.9323 53.4346 46.2742 52.4829 46.2888L48.0019 46.3576C47.0502 46.3722 46.2407 47.0555 46.0664 47.9912L43.8745 59.7618C43.7307 60.5341 43.146 61.1443 42.3929 61.3678C40.8037 61.8395 39.2612 62.4565 37.785 63.2111C37.1228 63.5496 36.3284 63.5339 35.7025 63.1322L25.2483 56.4221C24.4473 55.908 23.395 56.0295 22.7324 56.7127L19.6123 59.9293C18.9497 60.6125 18.8602 61.668 19.3985 62.4529L26.1667 72.323C26.6111 72.9711 26.6289 73.8161 26.254 74.5067C25.4616 75.9663 24.8054 77.4958 24.2937 79.076C24.0646 79.7832 23.492 80.3335 22.7657 80.492L10.6415 83.1372C9.71158 83.3401 9.05347 84.1703 9.06808 85.122L9.13686 89.6031C9.15146 90.5547 9.83462 91.3643 10.7702 91.5386L22.5423 93.7323C23.3152 93.8763 23.9256 94.4618 24.1486 95.2156C24.6191 96.806 25.2352 98.3497 25.9892 99.8271C26.327 100.489 26.3111 101.283 25.9096 101.908L19.1949 112.37C18.6806 113.171 18.8024 114.224 19.4861 114.886L22.7061 118.007C23.3894 118.669 24.4447 118.758 25.2294 118.22L35.1034 111.447C35.7509 111.003 36.5952 110.984 37.2855 111.358C38.747 112.15 40.2783 112.806 41.8599 113.318C42.5672 113.547 43.1174 114.12 43.276 114.846L45.9232 126.971C46.1262 127.9 46.9563 128.558 47.9078 128.544L52.3893 128.475C53.3409 128.46 54.1504 127.777 54.3248 126.842L56.5187 115.068C56.6626 114.296 57.2472 113.686 58.0001 113.462C59.5887 112.991 61.1304 112.373 62.6056 111.618C63.268 111.279 64.063 111.294 64.6893 111.696L75.1451 118.406C75.946 118.92 76.9982 118.798 77.6608 118.115L80.7809 114.899C81.4436 114.215 81.533 113.16 80.9946 112.375L74.2264 102.507C73.7821 101.859 73.7641 101.014 74.1386 100.324C74.9306 98.8634 75.5864 97.3332 76.0976 95.7525ZM59.5949 96.525C57.7929 98.3831 55.4804 99.6652 52.9498 100.209C50.4191 100.753 47.7841 100.534 45.3778 99.5803C42.9715 98.6265 40.9021 96.9806 39.4313 94.8508C37.9604 92.7209 37.1541 90.2027 37.1145 87.6146C37.0748 85.0265 37.8034 82.4847 39.2083 80.3108C40.6132 78.1368 42.6312 76.4283 45.0071 75.4012C47.383 74.3741 50.0101 74.0746 52.5562 74.5406C55.1023 75.0066 57.453 76.2171 59.3111 78.0191C60.545 79.2155 61.5312 80.6432 62.2132 82.2208C62.8953 83.7983 63.2599 85.4948 63.2863 87.2133C63.3126 88.9318 63.0002 90.6386 62.3668 92.2363C61.7334 93.834 60.7915 95.2914 59.5949 96.525Z" fill="url(#paint4_linear_918_375290)" fill-opacity="0.2"/>
<path d="M52.4902 46.7891C53.204 46.7781 53.8273 47.2713 53.9795 47.9688L56.625 60.0957C56.8239 61.0073 57.5101 61.712 58.374 61.9922C59.9252 62.4953 61.4264 63.1408 62.8594 63.9189C63.7029 64.377 64.7506 64.3626 65.5645 63.8047L75.4297 57.041C76.0184 56.6374 76.8109 56.7042 77.3232 57.2012L80.5391 60.3213C81.0514 60.8182 81.1432 61.6073 80.7578 62.208L74.0508 72.6562C73.5456 73.4432 73.5339 74.4293 73.9492 75.2393C74.6915 76.6869 75.2988 78.1999 75.7637 79.7588C76.0375 80.6772 76.7874 81.4064 77.7559 81.5869L89.5312 83.7812C90.233 83.912 90.7459 84.5187 90.7568 85.2324L90.8252 89.7139C90.836 90.4274 90.3427 91.0499 89.6455 91.2021L77.5195 93.8477C76.6071 94.0467 75.9018 94.7337 75.6221 95.5986C75.1203 97.15 74.4765 98.6518 73.6992 100.085C73.2417 100.929 73.2565 101.976 73.8145 102.789L80.582 112.658C80.9856 113.247 80.9188 114.038 80.4219 114.551L77.3018 117.768C76.8048 118.28 76.0156 118.371 75.415 117.985L64.959 111.275C64.1726 110.771 63.1875 110.759 62.3779 111.173C60.9301 111.914 59.4165 112.52 57.8574 112.983C56.9378 113.257 56.208 114.007 56.0273 114.977L53.833 126.75C53.7022 127.452 53.0954 127.964 52.3818 127.975L47.9004 128.044C47.1869 128.055 46.5645 127.561 46.4121 126.864L43.7646 114.739C43.5655 113.827 42.8782 113.123 42.0137 112.843C40.4612 112.34 38.958 111.696 37.5234 110.919C36.68 110.462 35.6334 110.476 34.8203 111.034L24.9463 117.808C24.3578 118.211 23.5662 118.145 23.0537 117.648L19.834 114.527C19.3213 114.03 19.2296 113.241 19.6152 112.64L26.3301 102.179C26.8342 101.393 26.8475 100.409 26.4346 99.5996C25.6947 98.1498 25.0897 96.635 24.6279 95.0742C24.3555 94.1532 23.6044 93.4221 22.6338 93.2412L10.8623 91.0469C10.1607 90.9161 9.64778 90.3093 9.63672 89.5957L9.56836 85.1143C9.55741 84.4005 10.0507 83.7782 10.748 83.626L22.8721 80.9805C23.784 80.7815 24.4895 80.0948 24.7695 79.2305C25.2718 77.6796 25.9156 76.1777 26.6934 74.7451C27.1513 73.9015 27.1372 72.8539 26.5791 72.04L19.8105 62.1699C19.4071 61.5813 19.4748 60.7896 19.9717 60.2773L23.0908 57.0605C23.5878 56.5482 24.3778 56.4572 24.9785 56.8428L35.4326 63.5527C36.2186 64.0572 37.2033 64.07 38.0127 63.6562C39.4615 62.9157 40.9754 62.3106 42.5352 61.8477C43.4552 61.5746 44.1856 60.8234 44.3662 59.8535L46.5576 48.083C46.6883 47.3812 47.296 46.8684 48.0098 46.8574L52.4902 46.7891ZM52.6465 74.0488C50.0031 73.565 47.2753 73.8761 44.8086 74.9424C42.342 76.0087 40.2466 77.7821 38.7881 80.0391C37.3296 82.296 36.5731 84.9352 36.6143 87.6221C36.6555 90.309 37.4926 92.9236 39.0195 95.1348C40.5465 97.3459 42.6953 99.0547 45.1934 100.045C47.6915 101.035 50.4274 101.263 53.0547 100.698C55.682 100.134 58.0833 98.8022 59.9541 96.873C61.1963 95.5923 62.1745 94.0795 62.832 92.4209C63.4895 90.7623 63.8134 88.9901 63.7861 87.2061C63.7588 85.4219 63.38 83.6603 62.6719 82.0225C62.008 80.487 61.0672 79.0878 59.8965 77.8955L59.6592 77.6602C57.7301 75.7894 55.2897 74.5327 52.6465 74.0488Z" stroke="#13F584" stroke-opacity="0.3"/>
<path d="M57.9357 89.0146C57.6204 90.5479 56.8574 91.9533 55.7434 93.0529C54.6293 94.1526 53.2142 94.8972 51.6769 95.1926C50.1397 95.4879 48.5494 95.3208 47.1071 94.7122C45.6649 94.1037 44.4355 93.0811 43.5744 91.7739C42.7134 90.4666 42.2593 88.9333 42.2697 87.368C42.2801 85.8027 42.7545 84.2756 43.6328 82.9799C44.5111 81.6841 45.754 80.678 47.2042 80.0886C48.6544 79.4993 50.2468 79.3533 51.78 79.669C53.8355 80.0921 55.6388 81.3145 56.7932 83.0671C57.9476 84.8197 58.3585 86.9591 57.9357 89.0146Z" fill="#F8F8F8" fill-opacity="0.05"/>
<path d="M57.9357 89.0146C57.6204 90.5479 56.8574 91.9533 55.7434 93.0529C54.6293 94.1526 53.2142 94.8972 51.6769 95.1926C50.1397 95.4879 48.5494 95.3208 47.1071 94.7122C45.6649 94.1037 44.4355 93.0811 43.5744 91.7739C42.7134 90.4666 42.2593 88.9333 42.2697 87.368C42.2801 85.8027 42.7545 84.2756 43.6328 82.9799C44.5111 81.6841 45.754 80.678 47.2042 80.0886C48.6544 79.4993 50.2468 79.3533 51.78 79.669C53.8355 80.0921 55.6388 81.3145 56.7932 83.0671C57.9476 84.8197 58.3585 86.9591 57.9357 89.0146Z" fill="url(#paint5_linear_918_375290)" fill-opacity="0.2"/>
<path d="M47.3926 80.5522C48.751 80.0002 50.2425 79.863 51.6787 80.1587C53.6044 80.5551 55.2945 81.7004 56.376 83.3423C57.4572 84.984 57.8423 86.9881 57.4463 88.9136C57.1509 90.3498 56.436 91.6666 55.3926 92.6968C54.349 93.7269 53.023 94.4249 51.583 94.7017C50.1429 94.9783 48.6528 94.8215 47.3018 94.2515C45.9506 93.6814 44.7988 92.7232 43.9922 91.4985C43.1856 90.2739 42.7598 88.8379 42.7695 87.3716C42.7793 85.9051 43.224 84.4741 44.0469 83.2603C44.8697 82.0465 46.0341 81.1043 47.3926 80.5522Z" stroke="#13F584" stroke-opacity="0.3"/>
</g>
<defs>
<linearGradient id="paint0_linear_918_375290" x1="136.179" y1="91.1226" x2="136.179" y2="261.355" gradientUnits="userSpaceOnUse">
<stop stop-color="#13F584" stop-opacity="0.51"/>
<stop offset="1" stop-color="#13F584" stop-opacity="0"/>
</linearGradient>
<linearGradient id="paint1_linear_918_375290" x1="136.19" y1="143.561" x2="136.19" y2="208.587" gradientUnits="userSpaceOnUse">
<stop stop-color="#13F584" stop-opacity="0.51"/>
<stop offset="1" stop-color="#13F584" stop-opacity="0"/>
</linearGradient>
<linearGradient id="paint2_linear_918_375290" x1="204.584" y1="5.35498" x2="204.584" y2="112.731" gradientUnits="userSpaceOnUse">
<stop stop-color="#13F584" stop-opacity="0.51"/>
<stop offset="1" stop-color="#13F584" stop-opacity="0"/>
</linearGradient>
<linearGradient id="paint3_linear_918_375290" x1="204.458" y1="42.7842" x2="204.458" y2="74.387" gradientUnits="userSpaceOnUse">
<stop stop-color="#13F584" stop-opacity="0.51"/>
<stop offset="1" stop-color="#13F584" stop-opacity="0"/>
</linearGradient>
<linearGradient id="paint4_linear_918_375290" x1="50.1967" y1="46.2637" x2="50.1967" y2="128.569" gradientUnits="userSpaceOnUse">
<stop stop-color="#13F584" stop-opacity="0.51"/>
<stop offset="1" stop-color="#13F584" stop-opacity="0"/>
</linearGradient>
<linearGradient id="paint5_linear_918_375290" x1="50.1838" y1="79.5063" x2="50.1838" y2="95.3347" gradientUnits="userSpaceOnUse">
<stop stop-color="#13F584" stop-opacity="0.51"/>
<stop offset="1" stop-color="#13F584" stop-opacity="0"/>
</linearGradient>
<clipPath id="clip0_918_375290">
<rect width="248.755" height="256" fill="white" transform="translate(9.04297 5.35498)"/>
</clipPath>
</defs>
</svg>
