<svg width="266" height="266" viewBox="0 0 266 266" fill="none" xmlns="http://www.w3.org/2000/svg">
<g clip-path="url(#clip0_919_390381)">
<path d="M176.593 216.899H38.9804C20.3702 216.899 5.22852 200.265 5.22852 179.822C5.22852 164.005 14.3449 149.941 27.9101 144.825C30.469 143.818 31.9659 141.149 31.489 138.44C31.4361 137.959 31.4184 137.475 31.4405 136.989C31.4405 112.61 49.523 92.7744 71.7453 92.7744C79.6517 92.8142 87.344 95.34 93.738 99.992C94.2767 100.381 94.7956 100.793 95.3167 101.206C95.9768 101.734 96.6237 102.282 97.2574 102.851C97.7696 103.313 98.2774 103.785 98.7676 104.273C99.4366 104.942 100.079 105.646 100.706 106.368C101.079 106.792 101.463 107.205 101.821 107.647C102.81 108.865 103.731 110.139 104.581 111.46C105.39 112.743 106.686 113.639 108.172 113.945C108.176 113.945 108.18 113.946 108.184 113.945C108.188 113.945 108.193 113.944 108.197 113.944C108.2 113.944 108.203 113.944 108.206 113.946C108.207 113.947 108.21 113.948 108.212 113.948C108.664 114.011 109.119 114.016 109.57 113.961C109.715 113.944 109.861 113.936 110.006 113.937C110.083 113.938 110.16 113.937 110.236 113.934C110.334 113.93 110.431 113.916 110.527 113.893C111.207 113.726 111.852 113.431 112.421 113.023C117.747 109.157 124.154 107.068 130.733 107.053C134.794 107.059 138.815 107.871 142.559 109.442C142.562 109.443 142.565 109.444 142.568 109.445C142.57 109.446 142.573 109.447 142.576 109.448C142.93 109.596 143.244 109.827 143.592 109.987C150.196 113.111 155.665 118.209 159.244 124.577C161.736 128.867 163.377 133.598 164.07 138.511C164.28 140.08 165.121 141.498 166.402 142.43C167.559 143.247 168.991 143.571 170.389 143.333C170.524 143.313 170.656 143.359 170.791 143.328C172.701 142.924 174.648 142.73 176.6 142.748C192.881 142.75 206.506 155.485 209.658 172.36C210.118 174.821 210.347 177.319 210.345 179.822C210.345 200.265 195.203 216.899 176.593 216.899Z" fill="#F8F8F8" fill-opacity="0.05"/>
<path d="M176.593 216.899H38.9804C20.3702 216.899 5.22852 200.265 5.22852 179.822C5.22852 164.005 14.3449 149.941 27.9101 144.825C30.469 143.818 31.9659 141.149 31.489 138.44C31.4361 137.959 31.4184 137.475 31.4405 136.989C31.4405 112.61 49.523 92.7744 71.7453 92.7744C79.6517 92.8142 87.344 95.34 93.738 99.992C94.2767 100.381 94.7956 100.793 95.3167 101.206C95.9768 101.734 96.6237 102.282 97.2574 102.851C97.7696 103.313 98.2774 103.785 98.7676 104.273C99.4366 104.942 100.079 105.646 100.706 106.368C101.079 106.792 101.463 107.205 101.821 107.647C102.81 108.865 103.731 110.139 104.581 111.46C105.39 112.743 106.686 113.639 108.172 113.945C108.176 113.945 108.18 113.946 108.184 113.945C108.188 113.945 108.193 113.944 108.197 113.944C108.2 113.944 108.203 113.944 108.206 113.946C108.207 113.947 108.21 113.948 108.212 113.948C108.664 114.011 109.119 114.016 109.57 113.961C109.715 113.944 109.861 113.936 110.006 113.937C110.083 113.938 110.16 113.937 110.236 113.934C110.334 113.93 110.431 113.916 110.527 113.893C111.207 113.726 111.852 113.431 112.421 113.023C117.747 109.157 124.154 107.068 130.733 107.053C134.794 107.059 138.815 107.871 142.559 109.442C142.562 109.443 142.565 109.444 142.568 109.445C142.57 109.446 142.573 109.447 142.576 109.448C142.93 109.596 143.244 109.827 143.592 109.987C150.196 113.111 155.665 118.209 159.244 124.577C161.736 128.867 163.377 133.598 164.07 138.511C164.28 140.08 165.121 141.498 166.402 142.43C167.559 143.247 168.991 143.571 170.389 143.333C170.524 143.313 170.656 143.359 170.791 143.328C172.701 142.924 174.648 142.73 176.6 142.748C192.881 142.75 206.506 155.485 209.658 172.36C210.118 174.821 210.347 177.319 210.345 179.822C210.345 200.265 195.203 216.899 176.593 216.899Z" fill="url(#paint0_linear_919_390381)" fill-opacity="0.2"/>
<path d="M108.072 114.427C108.079 114.429 108.086 114.428 108.093 114.43C108.086 114.428 108.079 114.427 108.072 114.425M108.072 114.427V114.425M108.072 114.427V114.425M108.072 114.427L108.071 114.426M108.072 114.425H108.071M108.071 114.426V114.425M108.071 114.426V114.425M108.071 114.426C108.063 114.424 108.056 114.421 108.048 114.419C108.055 114.422 108.064 114.423 108.071 114.425M71.7432 93.2744C79.5445 93.3137 87.1351 95.8062 93.4443 100.396L93.4453 100.397C93.9729 100.778 94.4827 101.183 95.0059 101.598C95.4951 101.989 95.9769 102.391 96.4512 102.805L96.9229 103.223C97.4309 103.68 97.9321 104.146 98.4141 104.626V104.627C99.0723 105.285 99.7063 105.98 100.328 106.696L100.331 106.698C100.716 107.136 101.083 107.53 101.433 107.961V107.962C102.41 109.166 103.32 110.425 104.16 111.729C105.042 113.126 106.453 114.102 108.07 114.435H108.071C108.085 114.437 108.107 114.441 108.135 114.443H108.144C108.637 114.511 109.135 114.518 109.63 114.458C109.752 114.443 109.877 114.436 110.003 114.438C110.087 114.438 110.172 114.437 110.256 114.434C110.388 114.428 110.518 114.41 110.646 114.379C111.387 114.197 112.091 113.875 112.713 113.429L112.715 113.428C117.955 109.624 124.259 107.568 130.732 107.553C134.478 107.559 138.189 108.261 141.672 109.622L142.365 109.903C142.371 109.906 142.377 109.906 142.383 109.908V109.909C142.527 109.969 142.669 110.049 142.836 110.146C142.994 110.237 143.18 110.347 143.378 110.438V110.439C149.888 113.519 155.279 118.544 158.808 124.821L158.812 124.828C161.271 129.061 162.89 133.729 163.574 138.576V138.577C163.788 140.175 164.605 141.628 165.853 142.638L166.107 142.834L166.113 142.838C167.375 143.729 168.937 144.083 170.461 143.826L170.462 143.827C170.462 143.827 170.471 143.827 170.551 143.833C170.615 143.838 170.747 143.848 170.894 143.816L170.895 143.817C172.769 143.421 174.68 143.23 176.596 143.247V143.248H176.6C192.603 143.25 206.051 155.775 209.167 172.451C209.621 174.883 209.847 177.349 209.845 179.822L209.834 180.767C209.377 200.541 194.598 216.399 176.593 216.399H38.9805C20.6896 216.399 5.72852 200.034 5.72852 179.822C5.72853 164.188 14.7387 150.327 28.0869 145.293L28.0928 145.29C30.863 144.2 32.4866 141.317 31.9854 138.385C31.9351 137.928 31.9196 137.47 31.9404 137.012V136.989C31.9405 112.842 49.8406 93.2757 71.7432 93.2744ZM108.255 114.44H108.254C108.256 114.44 108.258 114.44 108.259 114.439H108.261C108.261 114.439 108.258 114.44 108.255 114.44ZM107.928 114.362H107.929H107.928Z" stroke="#13F584" stroke-opacity="0.3"/>
<path d="M227.487 174.067H222.955C221.935 174.067 221.073 173.3 220.903 172.295C220.854 172.001 220.803 171.708 220.755 171.413C220.671 170.892 220.616 170.362 220.517 169.847C220.259 168.516 219.938 167.211 219.583 165.924C219.53 165.739 219.499 165.544 219.444 165.361C219.02 163.886 218.532 162.444 217.98 161.034C217.832 160.656 217.651 160.296 217.497 159.923C217.073 158.91 216.642 157.901 216.159 156.925C215.918 156.439 215.644 155.98 215.39 155.505C214.942 154.673 214.496 153.84 214.006 153.041C213.699 152.54 213.366 152.065 213.043 151.579C212.553 150.838 212.059 150.102 211.531 149.394C211.173 148.912 210.796 148.455 210.422 147.989C209.882 147.318 209.336 146.654 208.764 146.016C208.36 145.565 207.943 145.135 207.524 144.702C206.934 144.093 206.336 143.496 205.715 142.922C205.274 142.514 204.823 142.119 204.368 141.728C203.728 141.18 203.077 140.653 202.41 140.143C201.938 139.781 201.458 139.425 200.973 139.083C200.282 138.597 199.575 138.138 198.86 137.692C198.361 137.383 197.862 137.074 197.352 136.784C196.608 136.363 195.848 135.976 195.082 135.599C194.565 135.345 194.055 135.084 193.53 134.853C192.729 134.497 191.909 134.188 191.088 133.883C190.565 133.689 190.05 133.481 189.52 133.309C188.651 133.024 187.761 132.797 186.869 132.57C186.361 132.439 185.864 132.287 185.35 132.177C184.354 131.962 183.341 131.817 182.325 131.675C181.892 131.616 181.471 131.523 181.036 131.477C179.565 131.318 178.086 131.236 176.607 131.234H176.593C176.284 131.234 175.976 131.237 175.671 131.244C174.714 131.264 173.858 130.639 173.59 129.721C172.476 125.907 170.913 122.237 168.932 118.788C163.916 109.848 156.087 102.818 146.661 98.789C141.625 96.6606 136.216 95.5567 130.747 95.539H130.722C124.287 95.539 117.944 97.0241 112.188 99.8706C111.317 100.301 110.258 100.088 109.629 99.3476C107.779 97.1691 105.755 95.143 103.577 93.2914C103.146 92.9215 102.971 92.3133 103.106 91.7616C107.001 75.8117 120.423 64.2203 135.71 64.2203C142.294 64.2313 148.708 66.3222 154.035 70.1904C155.254 71.0691 156.784 71.4025 158.259 71.1133C159.745 70.8108 161.041 69.9144 161.851 68.6338C169.323 56.9276 181.614 49.9419 194.731 49.9419C216.949 49.9419 235.025 69.7775 235.025 94.1569C235.047 94.6493 235.029 95.1394 234.974 95.6274C234.508 98.3298 236.003 100.988 238.555 101.993C252.118 107.108 261.228 121.173 261.228 136.99C261.228 157.433 246.093 174.067 227.487 174.067Z" fill="#F8F8F8" fill-opacity="0.05"/>
<path d="M227.487 174.067H222.955C221.935 174.067 221.073 173.3 220.903 172.295C220.854 172.001 220.803 171.708 220.755 171.413C220.671 170.892 220.616 170.362 220.517 169.847C220.259 168.516 219.938 167.211 219.583 165.924C219.53 165.739 219.499 165.544 219.444 165.361C219.02 163.886 218.532 162.444 217.98 161.034C217.832 160.656 217.651 160.296 217.497 159.923C217.073 158.91 216.642 157.901 216.159 156.925C215.918 156.439 215.644 155.98 215.39 155.505C214.942 154.673 214.496 153.84 214.006 153.041C213.699 152.54 213.366 152.065 213.043 151.579C212.553 150.838 212.059 150.102 211.531 149.394C211.173 148.912 210.796 148.455 210.422 147.989C209.882 147.318 209.336 146.654 208.764 146.016C208.36 145.565 207.943 145.135 207.524 144.702C206.934 144.093 206.336 143.496 205.715 142.922C205.274 142.514 204.823 142.119 204.368 141.728C203.728 141.18 203.077 140.653 202.41 140.143C201.938 139.781 201.458 139.425 200.973 139.083C200.282 138.597 199.575 138.138 198.86 137.692C198.361 137.383 197.862 137.074 197.352 136.784C196.608 136.363 195.848 135.976 195.082 135.599C194.565 135.345 194.055 135.084 193.53 134.853C192.729 134.497 191.909 134.188 191.088 133.883C190.565 133.689 190.05 133.481 189.52 133.309C188.651 133.024 187.761 132.797 186.869 132.57C186.361 132.439 185.864 132.287 185.35 132.177C184.354 131.962 183.341 131.817 182.325 131.675C181.892 131.616 181.471 131.523 181.036 131.477C179.565 131.318 178.086 131.236 176.607 131.234H176.593C176.284 131.234 175.976 131.237 175.671 131.244C174.714 131.264 173.858 130.639 173.59 129.721C172.476 125.907 170.913 122.237 168.932 118.788C163.916 109.848 156.087 102.818 146.661 98.789C141.625 96.6606 136.216 95.5567 130.747 95.539H130.722C124.287 95.539 117.944 97.0241 112.188 99.8706C111.317 100.301 110.258 100.088 109.629 99.3476C107.779 97.1691 105.755 95.143 103.577 93.2914C103.146 92.9215 102.971 92.3133 103.106 91.7616C107.001 75.8117 120.423 64.2203 135.71 64.2203C142.294 64.2313 148.708 66.3222 154.035 70.1904C155.254 71.0691 156.784 71.4025 158.259 71.1133C159.745 70.8108 161.041 69.9144 161.851 68.6338C169.323 56.9276 181.614 49.9419 194.731 49.9419C216.949 49.9419 235.025 69.7775 235.025 94.1569C235.047 94.6493 235.029 95.1394 234.974 95.6274C234.508 98.3298 236.003 100.988 238.555 101.993C252.118 107.108 261.228 121.173 261.228 136.99C261.228 157.433 246.093 174.067 227.487 174.067Z" fill="url(#paint1_linear_919_390381)"/>
<path d="M194.731 50.4419C216.63 50.4421 234.524 70.009 234.524 94.1567V94.1685L234.525 94.1792C234.546 94.6426 234.529 95.1045 234.478 95.5649C233.984 98.493 235.606 101.369 238.372 102.458L238.379 102.46C251.725 107.494 260.728 121.356 260.728 136.99C260.728 157.202 245.774 173.567 227.487 173.567H222.955C222.192 173.567 221.528 172.989 221.396 172.211L221.249 171.333C221.173 170.857 221.107 170.268 221.008 169.752L220.801 168.748C220.583 167.748 220.333 166.763 220.064 165.791L220.063 165.787C220.042 165.711 220.024 165.63 220.002 165.532L219.923 165.217C219.495 163.73 219.002 162.275 218.445 160.851C218.366 160.649 218.279 160.455 218.196 160.271C218.112 160.084 218.031 159.909 217.958 159.732V159.73L217.637 158.968C217.312 158.207 216.975 157.446 216.606 156.703C216.363 156.212 216.068 155.712 215.831 155.269L215.83 155.268L215.151 154.018C214.92 153.601 214.681 153.187 214.432 152.78H214.433C214.12 152.269 213.772 151.774 213.46 151.303H213.459C212.968 150.56 212.468 149.815 211.932 149.095H211.933C211.568 148.604 211.179 148.135 210.812 147.677L210.812 147.675C210.405 147.171 209.993 146.666 209.567 146.172L209.137 145.682L208.512 145.007L207.883 144.354C207.289 143.74 206.684 143.137 206.055 142.555C205.607 142.141 205.151 141.742 204.694 141.349L204.693 141.348L204.206 140.937C203.879 140.665 203.55 140.398 203.217 140.135L202.714 139.746C202.237 139.381 201.753 139.021 201.261 138.674V138.673L200.732 138.309C200.202 137.95 199.664 137.605 199.124 137.268L199.123 137.267L198.369 136.803C198.115 136.649 197.859 136.497 197.599 136.349C197.22 136.135 196.838 135.93 196.455 135.731L195.303 135.15C194.795 134.901 194.269 134.632 193.731 134.395H193.732C193.324 134.214 192.912 134.045 192.499 133.883L191.262 133.415C190.756 133.227 190.217 133.01 189.675 132.833H189.674C188.786 132.543 187.882 132.312 186.993 132.085C186.518 131.964 185.98 131.801 185.455 131.688C184.439 131.469 183.408 131.321 182.394 131.18L181.765 131.079C181.657 131.06 181.547 131.042 181.434 131.025L181.089 130.98C179.601 130.819 178.104 130.736 176.607 130.734H176.594C176.281 130.734 175.969 130.737 175.66 130.744C174.929 130.759 174.275 130.281 174.07 129.582C172.945 125.729 171.366 122.022 169.365 118.539C164.295 109.505 156.383 102.402 146.857 98.3296L146.855 98.3286L145.896 97.937C141.074 96.0392 135.937 95.0553 130.748 95.0386H130.723C124.21 95.0386 117.792 96.5419 111.967 99.4224C111.299 99.7525 110.49 99.5876 110.011 99.0239C108.143 96.8252 106.1 94.7806 103.901 92.9116H103.902C103.625 92.6732 103.498 92.2628 103.592 91.8804C107.44 76.1218 120.685 64.7207 135.709 64.7202C142.187 64.7311 148.499 66.7889 153.741 70.5952L153.743 70.5962C155.074 71.5559 156.745 71.9198 158.355 71.604L158.358 71.603C159.977 71.2734 161.39 70.2971 162.272 68.9028C169.659 57.3305 181.797 50.4419 194.731 50.4419Z" stroke="#13F584" stroke-opacity="0.3"/>
</g>
<defs>
<linearGradient id="paint0_linear_919_390381" x1="107.787" y1="92.7744" x2="107.787" y2="216.899" gradientUnits="userSpaceOnUse">
<stop stop-color="#13F584" stop-opacity="0.51"/>
<stop offset="1" stop-color="#13F584" stop-opacity="0"/>
</linearGradient>
<linearGradient id="paint1_linear_919_390381" x1="182.062" y1="49.9419" x2="182.062" y2="174.067" gradientUnits="userSpaceOnUse">
<stop stop-color="#13F584" stop-opacity="0.51"/>
<stop offset="1" stop-color="#13F584" stop-opacity="0"/>
</linearGradient>
<clipPath id="clip0_919_390381">
<rect width="256" height="256" fill="white" transform="translate(5.22852 5.3335)"/>
</clipPath>
</defs>
</svg>
