<svg width="266" height="266" viewBox="0 0 266 266" fill="none" xmlns="http://www.w3.org/2000/svg">
<rect x="70.5527" y="104.617" width="124.021" height="124.021" rx="62.0104" fill="#F8F8F8" fill-opacity="0.05"/>
<rect x="70.5527" y="104.617" width="124.021" height="124.021" rx="62.0104" fill="url(#paint0_linear_928_443158)" fill-opacity="0.2"/>
<rect x="70.8843" y="104.948" width="123.358" height="123.358" rx="61.6788" stroke="#13F584" stroke-opacity="0.3" stroke-width="0.663212"/>
<rect x="64.9156" y="98.9796" width="135.959" height="135.959" rx="67.9793" stroke="#13F584" stroke-opacity="0.3" stroke-width="0.663212"/>
<path d="M164.235 159.742L160.179 158.931C159.699 158.835 159.313 158.482 159.158 158.017C158.745 156.775 158.244 155.565 157.659 154.396C157.44 153.959 157.463 153.436 157.735 153.028L160.028 149.588C160.542 148.817 160.441 147.791 159.786 147.136L152.458 139.809C151.803 139.154 150.777 139.052 150.007 139.566L146.566 141.86C146.158 142.131 145.636 142.154 145.198 141.935C144.029 141.351 142.819 140.85 141.577 140.436C141.113 140.281 140.759 139.895 140.663 139.415L139.852 135.36C139.671 134.452 138.873 133.798 137.947 133.798H127.584C126.658 133.798 125.86 134.452 125.679 135.36L124.868 139.415C124.772 139.895 124.418 140.281 123.954 140.436C122.712 140.85 121.502 141.351 120.333 141.935C119.895 142.154 119.372 142.131 118.965 141.86L115.524 139.566C114.754 139.052 113.728 139.154 113.073 139.809L105.745 147.136C105.09 147.791 104.989 148.817 105.502 149.588L107.796 153.028C108.068 153.436 108.09 153.959 107.871 154.396C107.287 155.566 106.786 156.775 106.372 158.017C106.218 158.482 105.832 158.835 105.352 158.931L101.296 159.742C100.388 159.924 99.7344 160.721 99.7344 161.648V172.01C99.7344 172.936 100.388 173.734 101.296 173.915L105.352 174.727C105.832 174.823 106.218 175.176 106.372 175.641C106.786 176.883 107.287 178.092 107.872 179.261C108.09 179.699 108.068 180.222 107.796 180.629L105.503 184.07C104.989 184.84 105.09 185.867 105.745 186.522L113.073 193.849C113.728 194.504 114.754 194.606 115.524 194.092L118.952 191.807C119.321 191.561 119.543 191.147 119.543 190.703V179.741C119.543 179.403 119.413 179.08 119.189 178.828C116.355 175.633 114.631 171.436 114.631 166.829C114.631 156.813 122.75 148.694 132.765 148.694C142.781 148.694 150.9 156.813 150.9 166.829C150.9 171.436 149.176 175.633 146.342 178.828C146.118 179.08 145.988 179.403 145.988 179.741V190.703C145.988 191.147 146.21 191.561 146.579 191.807L150.007 194.092C150.335 194.311 150.711 194.418 151.084 194.418C151.585 194.418 152.083 194.225 152.458 193.849L159.786 186.522C160.44 185.867 160.542 184.841 160.028 184.07L157.735 180.629C157.463 180.222 157.44 179.699 157.659 179.261C158.244 178.092 158.744 176.883 159.158 175.641C159.313 175.176 159.699 174.823 160.179 174.727L164.234 173.916C165.143 173.734 165.797 172.936 165.797 172.01V161.648C165.797 160.721 165.143 159.924 164.235 159.742Z" fill="#F8F8F8" fill-opacity="0.05"/>
<path d="M164.235 159.742L160.179 158.931C159.699 158.835 159.313 158.482 159.158 158.017C158.745 156.775 158.244 155.565 157.659 154.396C157.44 153.959 157.463 153.436 157.735 153.028L160.028 149.588C160.542 148.817 160.441 147.791 159.786 147.136L152.458 139.809C151.803 139.154 150.777 139.052 150.007 139.566L146.566 141.86C146.158 142.131 145.636 142.154 145.198 141.935C144.029 141.351 142.819 140.85 141.577 140.436C141.113 140.281 140.759 139.895 140.663 139.415L139.852 135.36C139.671 134.452 138.873 133.798 137.947 133.798H127.584C126.658 133.798 125.86 134.452 125.679 135.36L124.868 139.415C124.772 139.895 124.418 140.281 123.954 140.436C122.712 140.85 121.502 141.351 120.333 141.935C119.895 142.154 119.372 142.131 118.965 141.86L115.524 139.566C114.754 139.052 113.728 139.154 113.073 139.809L105.745 147.136C105.09 147.791 104.989 148.817 105.502 149.588L107.796 153.028C108.068 153.436 108.09 153.959 107.871 154.396C107.287 155.566 106.786 156.775 106.372 158.017C106.218 158.482 105.832 158.835 105.352 158.931L101.296 159.742C100.388 159.924 99.7344 160.721 99.7344 161.648V172.01C99.7344 172.936 100.388 173.734 101.296 173.915L105.352 174.727C105.832 174.823 106.218 175.176 106.372 175.641C106.786 176.883 107.287 178.092 107.872 179.261C108.09 179.699 108.068 180.222 107.796 180.629L105.503 184.07C104.989 184.84 105.09 185.867 105.745 186.522L113.073 193.849C113.728 194.504 114.754 194.606 115.524 194.092L118.952 191.807C119.321 191.561 119.543 191.147 119.543 190.703V179.741C119.543 179.403 119.413 179.08 119.189 178.828C116.355 175.633 114.631 171.436 114.631 166.829C114.631 156.813 122.75 148.694 132.765 148.694C142.781 148.694 150.9 156.813 150.9 166.829C150.9 171.436 149.176 175.633 146.342 178.828C146.118 179.08 145.988 179.403 145.988 179.741V190.703C145.988 191.147 146.21 191.561 146.579 191.807L150.007 194.092C150.335 194.311 150.711 194.418 151.084 194.418C151.585 194.418 152.083 194.225 152.458 193.849L159.786 186.522C160.44 185.867 160.542 184.841 160.028 184.07L157.735 180.629C157.463 180.222 157.44 179.699 157.659 179.261C158.244 178.092 158.744 176.883 159.158 175.641C159.313 175.176 159.699 174.823 160.179 174.727L164.234 173.916C165.143 173.734 165.797 172.936 165.797 172.01V161.648C165.797 160.721 165.143 159.924 164.235 159.742Z" fill="url(#paint1_linear_928_443158)"/>
<path d="M127.584 134.13H137.947C138.715 134.13 139.376 134.672 139.526 135.425L140.338 139.48C140.458 140.082 140.9 140.56 141.473 140.751C142.7 141.16 143.895 141.654 145.05 142.231C145.589 142.501 146.239 142.476 146.75 142.136L150.19 139.842C150.829 139.416 151.68 139.5 152.224 140.043L159.551 147.371C160.094 147.914 160.179 148.765 159.753 149.404L157.459 152.845C157.119 153.355 157.093 154.005 157.362 154.545C157.94 155.7 158.435 156.895 158.844 158.122C159.035 158.694 159.512 159.136 160.114 159.257L164.17 160.067C164.923 160.218 165.465 160.88 165.465 161.647V172.011C165.465 172.779 164.922 173.44 164.169 173.591L160.114 174.401C159.512 174.522 159.035 174.964 158.844 175.536C158.435 176.763 157.94 177.958 157.362 179.113C157.093 179.653 157.119 180.303 157.459 180.813L159.752 184.254C160.178 184.893 160.094 185.744 159.551 186.287L152.224 193.614C151.913 193.925 151.5 194.087 151.084 194.087C150.775 194.087 150.463 193.998 150.19 193.816L146.763 191.531C146.486 191.347 146.319 191.036 146.319 190.703V179.741C146.319 179.49 146.417 179.243 146.591 179.048C149.475 175.795 151.231 171.521 151.231 166.829C151.231 156.63 142.964 148.362 132.766 148.362C122.567 148.362 114.299 156.63 114.299 166.829C114.299 171.521 116.056 175.795 118.94 179.048C119.114 179.243 119.211 179.49 119.211 179.741V190.703C119.211 191.036 119.045 191.347 118.769 191.531L115.341 193.816C114.702 194.242 113.851 194.157 113.308 193.614L105.979 186.287C105.436 185.744 105.352 184.893 105.778 184.254L108.072 180.813C108.413 180.303 108.438 179.653 108.168 179.113C107.591 177.958 107.096 176.763 106.688 175.536C106.497 174.964 106.019 174.522 105.417 174.401L101.361 173.59C100.608 173.439 100.067 172.779 100.066 172.011V161.647C100.066 160.879 100.608 160.218 101.361 160.067L105.417 159.257C106.019 159.136 106.496 158.694 106.687 158.122C107.096 156.895 107.591 155.7 108.168 154.545C108.438 154.005 108.413 153.355 108.072 152.845L105.778 149.404L105.704 149.282C105.364 148.66 105.47 147.88 105.979 147.371L113.307 140.043C113.85 139.5 114.702 139.416 115.341 139.842L118.781 142.136C119.292 142.476 119.942 142.501 120.481 142.231C121.636 141.654 122.831 141.16 124.059 140.751C124.631 140.56 125.073 140.082 125.193 139.48L126.004 135.425C126.155 134.672 126.816 134.13 127.584 134.13Z" stroke="#13F584" stroke-opacity="0.3" stroke-width="0.663212"/>
<path d="M138.92 156.183C137.942 155.616 136.701 156.217 136.54 157.336L135.52 164.397C135.425 165.049 134.866 165.534 134.207 165.534H131.323C130.663 165.534 130.104 165.049 130.01 164.397L128.99 157.336C128.828 156.217 127.587 155.616 126.61 156.183C122.816 158.38 120.459 162.46 120.459 166.829C120.459 171.564 123.111 175.799 127.379 177.883C127.504 177.944 127.583 178.071 127.583 178.21V198.176C127.583 199.249 128.453 200.119 129.526 200.119H136.003C137.076 200.119 137.946 199.249 137.946 198.176V178.21C137.946 178.071 138.025 177.944 138.151 177.883C142.419 175.799 145.07 171.564 145.07 166.829C145.07 162.46 142.714 158.38 138.92 156.183Z" fill="#F8F8F8" fill-opacity="0.05"/>
<path d="M138.92 156.183C137.942 155.616 136.701 156.217 136.54 157.336L135.52 164.397C135.425 165.049 134.866 165.534 134.207 165.534H131.323C130.663 165.534 130.104 165.049 130.01 164.397L128.99 157.336C128.828 156.217 127.587 155.616 126.61 156.183C122.816 158.38 120.459 162.46 120.459 166.829C120.459 171.564 123.111 175.799 127.379 177.883C127.504 177.944 127.583 178.071 127.583 178.21V198.176C127.583 199.249 128.453 200.119 129.526 200.119H136.003C137.076 200.119 137.946 199.249 137.946 198.176V178.21C137.946 178.071 138.025 177.944 138.151 177.883C142.419 175.799 145.07 171.564 145.07 166.829C145.07 162.46 142.714 158.38 138.92 156.183Z" fill="url(#paint2_linear_928_443158)"/>
<path d="M136.868 157.383C136.996 156.497 137.979 156.021 138.754 156.47C142.445 158.609 144.739 162.579 144.739 166.829C144.739 171.436 142.16 175.557 138.005 177.584C137.766 177.701 137.614 177.944 137.614 178.21V198.176C137.614 199.066 136.893 199.788 136.003 199.788H129.526C128.636 199.788 127.915 199.066 127.915 198.176V178.21C127.915 177.944 127.763 177.701 127.524 177.584C123.37 175.557 120.791 171.436 120.791 166.829C120.791 162.579 123.084 158.609 126.775 156.47C127.55 156.021 128.533 156.497 128.661 157.383L129.682 164.445C129.8 165.26 130.498 165.866 131.322 165.866H134.207C135.031 165.866 135.73 165.26 135.848 164.445L136.868 157.383Z" stroke="#13F584" stroke-opacity="0.3" stroke-width="0.663212"/>
<rect x="107.029" y="31" width="50.4041" height="50.4041" rx="25.2021" fill="#F8F8F8" fill-opacity="0.05"/>
<rect x="107.029" y="31" width="50.4041" height="50.4041" rx="25.2021" fill="url(#paint3_linear_928_443158)" fill-opacity="0.2"/>
<rect x="107.361" y="31.3316" width="49.7409" height="49.7409" rx="24.8705" stroke="#13F584" stroke-opacity="0.3" stroke-width="0.663212"/>
<path fill-rule="evenodd" clip-rule="evenodd" d="M123.329 48.0965C125.747 47.8166 127.854 46.7418 129.467 45.5908H134.87C136.482 46.7418 138.59 47.8166 141.008 48.0965C141.226 48.1218 141.389 48.3048 141.389 48.5249V56.1903C141.389 61.3887 136.112 65.7569 132.168 66.8136C128.225 65.7569 122.947 61.3887 122.947 56.1904V48.5249C122.947 48.3048 123.11 48.1218 123.329 48.0965ZM124.241 49.2688V56.1904C124.241 56.7779 124.323 57.3603 124.474 57.9276C125.365 61.267 128.884 64.4424 132.168 65.4664C134.224 64.8222 136.303 63.3285 137.7 61.7536C139.061 60.2186 140.095 58.2858 140.095 56.1904V49.2688C138.072 48.9037 136.167 48.0412 134.464 46.8849H129.873C128.17 48.0412 126.265 48.9037 124.241 49.2688ZM125.104 49.9699V56.1904C125.104 56.7023 125.176 57.2109 125.308 57.7052C126.103 60.6867 129.26 63.5457 132.167 64.5578C133.976 63.9241 135.806 62.5885 137.054 61.1812C138.271 59.8093 139.233 58.0667 139.233 56.1904V49.9699C137.437 49.5452 135.743 48.7614 134.202 47.7476H130.135C128.594 48.7614 126.899 49.5452 125.104 49.9699ZM133.55 51.2991H130.787C130.668 51.2991 130.571 51.396 130.571 51.5148V53.7017H128.384C128.265 53.7017 128.168 53.7986 128.168 53.9174V56.681C128.168 56.7998 128.265 56.8967 128.384 56.8967H130.571V59.0836C130.571 59.2024 130.668 59.2993 130.787 59.2993H133.55C133.669 59.2993 133.766 59.2024 133.766 59.0836V56.8967H135.953C136.072 56.8967 136.168 56.7998 136.168 56.681V53.9174C136.168 53.7986 136.072 53.7017 135.953 53.7017H133.766V51.5148C133.766 51.396 133.669 51.2991 133.55 51.2991Z" fill="#F8F8F8" fill-opacity="0.05"/>
<path fill-rule="evenodd" clip-rule="evenodd" d="M123.329 48.0965C125.747 47.8166 127.854 46.7418 129.467 45.5908H134.87C136.482 46.7418 138.59 47.8166 141.008 48.0965C141.226 48.1218 141.389 48.3048 141.389 48.5249V56.1903C141.389 61.3887 136.112 65.7569 132.168 66.8136C128.225 65.7569 122.947 61.3887 122.947 56.1904V48.5249C122.947 48.3048 123.11 48.1218 123.329 48.0965ZM124.241 49.2688V56.1904C124.241 56.7779 124.323 57.3603 124.474 57.9276C125.365 61.267 128.884 64.4424 132.168 65.4664C134.224 64.8222 136.303 63.3285 137.7 61.7536C139.061 60.2186 140.095 58.2858 140.095 56.1904V49.2688C138.072 48.9037 136.167 48.0412 134.464 46.8849H129.873C128.17 48.0412 126.265 48.9037 124.241 49.2688ZM125.104 49.9699V56.1904C125.104 56.7023 125.176 57.2109 125.308 57.7052C126.103 60.6867 129.26 63.5457 132.167 64.5578C133.976 63.9241 135.806 62.5885 137.054 61.1812C138.271 59.8093 139.233 58.0667 139.233 56.1904V49.9699C137.437 49.5452 135.743 48.7614 134.202 47.7476H130.135C128.594 48.7614 126.899 49.5452 125.104 49.9699ZM133.55 51.2991H130.787C130.668 51.2991 130.571 51.396 130.571 51.5148V53.7017H128.384C128.265 53.7017 128.168 53.7986 128.168 53.9174V56.681C128.168 56.7998 128.265 56.8967 128.384 56.8967H130.571V59.0836C130.571 59.2024 130.668 59.2993 130.787 59.2993H133.55C133.669 59.2993 133.766 59.2024 133.766 59.0836V56.8967H135.953C136.072 56.8967 136.168 56.7998 136.168 56.681V53.9174C136.168 53.7986 136.072 53.7017 135.953 53.7017H133.766V51.5148C133.766 51.396 133.669 51.2991 133.55 51.2991Z" fill="url(#paint4_linear_928_443158)"/>
<path d="M134.771 45.9062C136.4 47.0545 138.526 48.127 140.972 48.4102C141.031 48.4172 141.073 48.4658 141.073 48.5254V56.1904C141.073 58.681 139.808 60.9984 138.031 62.8359C136.279 64.6475 134.061 65.9571 132.168 66.4844C130.276 65.9569 128.057 64.6472 126.306 62.8359C124.529 60.9984 123.263 58.681 123.263 56.1904V48.5254C123.263 48.4657 123.306 48.4171 123.365 48.4102C125.811 48.127 127.937 47.0546 129.566 45.9062H134.771ZM134.11 48.0635C135.586 49.0234 137.203 49.778 138.917 50.2158V56.1904C138.917 57.9596 138.008 59.6305 136.818 60.9717C135.624 62.3187 133.882 63.5934 132.165 64.2207C130.793 63.722 129.358 62.8002 128.165 61.6436C126.94 60.4558 125.992 59.0431 125.613 57.624C125.488 57.1541 125.42 56.6727 125.42 56.1904V50.2158C127.134 49.7779 128.751 49.0234 130.227 48.0635H134.11ZM130.786 50.9834C130.493 50.9836 130.255 51.2217 130.255 51.5146V53.3857H128.384C128.091 53.3858 127.853 53.6241 127.853 53.917V56.6807C127.853 56.9738 128.091 57.2128 128.384 57.2129H130.255V59.084C130.255 59.3769 130.493 59.615 130.786 59.6152H133.55C133.843 59.6152 134.082 59.377 134.082 59.084V57.2129H135.953C136.246 57.2127 136.484 56.9737 136.484 56.6807V53.917C136.484 53.6241 136.246 53.3859 135.953 53.3857H134.082V51.5146C134.082 51.2217 133.843 50.9834 133.55 50.9834H130.786ZM140.411 49.0049L140.151 48.958C138.179 48.6021 136.315 47.7602 134.642 46.624L134.561 46.5693H129.775L129.695 46.624C128.022 47.7602 126.158 48.6021 124.186 48.958L123.926 49.0049V56.1904C123.926 56.8072 124.011 57.4169 124.169 58.0088C124.634 59.75 125.776 61.4274 127.206 62.7939C128.637 64.1613 130.379 65.239 132.074 65.7676L132.168 65.7969L132.263 65.7676C134.383 65.103 136.509 63.5718 137.937 61.9629C139.328 60.3945 140.411 58.3901 140.411 56.1904V49.0049Z" stroke="#13F584" stroke-opacity="0.3" stroke-width="0.631455"/>
<rect x="210.49" y="98.6479" width="50.4041" height="50.4041" rx="25.2021" fill="#F8F8F8" fill-opacity="0.05"/>
<rect x="210.49" y="98.6479" width="50.4041" height="50.4041" rx="25.2021" fill="url(#paint5_linear_928_443158)" fill-opacity="0.2"/>
<rect x="210.822" y="98.9796" width="49.7409" height="49.7409" rx="24.8705" stroke="#13F584" stroke-opacity="0.3" stroke-width="0.663212"/>
<path fill-rule="evenodd" clip-rule="evenodd" d="M243.749 121.876V132.258H245.434C245.549 132.258 245.642 132.351 245.642 132.465V133.922C245.642 134.036 245.549 134.129 245.434 134.129H225.289C225.175 134.129 225.082 134.036 225.082 133.922V132.465C225.082 132.351 225.175 132.258 225.289 132.258H226.975V121.875C227.231 121.951 227.502 121.991 227.782 121.991C228.092 121.991 228.4 121.941 228.695 121.842C229.404 121.603 229.973 121.103 230.308 120.47C230.788 121.375 231.74 121.991 232.835 121.991C233.146 121.991 233.454 121.941 233.748 121.842C234.458 121.603 235.026 121.103 235.362 120.47C235.841 121.375 236.793 121.991 237.888 121.991C238.199 121.991 238.507 121.941 238.801 121.842C239.511 121.603 240.08 121.103 240.415 120.47C240.895 121.375 241.846 121.991 242.942 121.991C243.215 121.991 243.487 121.953 243.749 121.876ZM230.739 118.801L232.03 113.901H235.03V118.801H230.739ZM231.344 113.901H228.407C228.373 113.901 228.35 113.915 228.334 113.946L225.802 118.801H230.053L231.344 113.901ZM225.612 119.465C225.772 120.52 226.682 121.328 227.782 121.328C228.02 121.328 228.257 121.29 228.483 121.214C229.268 120.949 229.829 120.268 229.952 119.465L225.612 119.465ZM230.665 119.465C230.825 120.52 231.735 121.328 232.835 121.328C233.074 121.328 233.31 121.29 233.536 121.214C234.322 120.949 234.883 120.268 235.005 119.465L230.665 119.465ZM235.718 119.465C235.878 120.52 236.789 121.328 237.888 121.328C238.127 121.328 238.363 121.29 238.59 121.214C239.375 120.949 239.936 120.268 240.058 119.465L235.718 119.465ZM239.985 118.801L238.693 113.901H235.693V118.801H239.985ZM240.772 119.465C240.931 120.52 241.842 121.328 242.942 121.328C243.18 121.328 243.417 121.29 243.643 121.214C244.428 120.949 244.989 120.268 245.112 119.465L240.772 119.465ZM239.379 113.901H242.316C242.351 113.901 242.374 113.915 242.39 113.946L244.922 118.801H240.671L239.379 113.901ZM236.744 128.536C236.516 128.536 236.33 128.722 236.33 128.951V129.405C236.33 129.634 236.516 129.82 236.744 129.82H241.203C241.431 129.82 241.617 129.634 241.617 129.405V128.951C241.617 128.722 241.431 128.536 241.203 128.536H236.744ZM236.744 123.737C236.516 123.737 236.33 123.924 236.33 124.152V126.685C236.33 126.913 236.516 127.1 236.744 127.1H241.203C241.431 127.1 241.617 126.913 241.617 126.685V124.152C241.617 123.924 241.431 123.737 241.203 123.737H236.744ZM229.699 123.737C229.471 123.737 229.285 123.924 229.285 124.152V132.258H233.9V124.152C233.9 123.924 233.714 123.737 233.485 123.737H229.699Z" fill="#F8F8F8" fill-opacity="0.05"/>
<path fill-rule="evenodd" clip-rule="evenodd" d="M243.749 121.876V132.258H245.434C245.549 132.258 245.642 132.351 245.642 132.465V133.922C245.642 134.036 245.549 134.129 245.434 134.129H225.289C225.175 134.129 225.082 134.036 225.082 133.922V132.465C225.082 132.351 225.175 132.258 225.289 132.258H226.975V121.875C227.231 121.951 227.502 121.991 227.782 121.991C228.092 121.991 228.4 121.941 228.695 121.842C229.404 121.603 229.973 121.103 230.308 120.47C230.788 121.375 231.74 121.991 232.835 121.991C233.146 121.991 233.454 121.941 233.748 121.842C234.458 121.603 235.026 121.103 235.362 120.47C235.841 121.375 236.793 121.991 237.888 121.991C238.199 121.991 238.507 121.941 238.801 121.842C239.511 121.603 240.08 121.103 240.415 120.47C240.895 121.375 241.846 121.991 242.942 121.991C243.215 121.991 243.487 121.953 243.749 121.876ZM230.739 118.801L232.03 113.901H235.03V118.801H230.739ZM231.344 113.901H228.407C228.373 113.901 228.35 113.915 228.334 113.946L225.802 118.801H230.053L231.344 113.901ZM225.612 119.465C225.772 120.52 226.682 121.328 227.782 121.328C228.02 121.328 228.257 121.29 228.483 121.214C229.268 120.949 229.829 120.268 229.952 119.465L225.612 119.465ZM230.665 119.465C230.825 120.52 231.735 121.328 232.835 121.328C233.074 121.328 233.31 121.29 233.536 121.214C234.322 120.949 234.883 120.268 235.005 119.465L230.665 119.465ZM235.718 119.465C235.878 120.52 236.789 121.328 237.888 121.328C238.127 121.328 238.363 121.29 238.59 121.214C239.375 120.949 239.936 120.268 240.058 119.465L235.718 119.465ZM239.985 118.801L238.693 113.901H235.693V118.801H239.985ZM240.772 119.465C240.931 120.52 241.842 121.328 242.942 121.328C243.18 121.328 243.417 121.29 243.643 121.214C244.428 120.949 244.989 120.268 245.112 119.465L240.772 119.465ZM239.379 113.901H242.316C242.351 113.901 242.374 113.915 242.39 113.946L244.922 118.801H240.671L239.379 113.901ZM236.744 128.536C236.516 128.536 236.33 128.722 236.33 128.951V129.405C236.33 129.634 236.516 129.82 236.744 129.82H241.203C241.431 129.82 241.617 129.634 241.617 129.405V128.951C241.617 128.722 241.431 128.536 241.203 128.536H236.744ZM236.744 123.737C236.516 123.737 236.33 123.924 236.33 124.152V126.685C236.33 126.913 236.516 127.1 236.744 127.1H241.203C241.431 127.1 241.617 126.913 241.617 126.685V124.152C241.617 123.924 241.431 123.737 241.203 123.737H236.744ZM229.699 123.737C229.471 123.737 229.285 123.924 229.285 124.152V132.258H233.9V124.152C233.9 123.924 233.714 123.737 233.485 123.737H229.699Z" fill="url(#paint6_linear_928_443158)"/>
<path d="M240.414 121.05C240.993 121.813 241.909 122.307 242.941 122.307C243.106 122.307 243.27 122.292 243.433 122.267V132.574H245.326V133.813H225.397V132.574H227.291V122.268C227.451 122.293 227.615 122.307 227.782 122.307C228.126 122.307 228.468 122.251 228.795 122.141C229.412 121.933 229.932 121.545 230.308 121.05C230.887 121.813 231.802 122.307 232.835 122.307C233.179 122.307 233.522 122.252 233.849 122.142C234.466 121.934 234.985 121.545 235.36 121.05C235.94 121.813 236.856 122.307 237.889 122.307C238.233 122.307 238.575 122.252 238.902 122.142C239.52 121.934 240.038 121.545 240.414 121.05ZM229.699 123.422C229.297 123.422 228.969 123.75 228.969 124.152V132.574H234.216V124.152C234.216 123.75 233.888 123.422 233.485 123.422H229.699ZM236.744 128.221C236.342 128.221 236.014 128.548 236.014 128.95V129.405C236.014 129.808 236.341 130.136 236.744 130.136H241.203C241.606 130.136 241.933 129.808 241.933 129.405V128.95C241.932 128.548 241.606 128.221 241.203 128.221H236.744ZM236.744 123.422C236.341 123.422 236.014 123.75 236.014 124.152V126.685C236.014 127.087 236.341 127.415 236.744 127.415H241.203C241.606 127.415 241.933 127.087 241.933 126.685V124.152C241.933 123.75 241.606 123.422 241.203 123.422H236.744ZM229.546 119.78C229.353 120.305 228.932 120.73 228.382 120.915C228.189 120.98 227.987 121.013 227.782 121.013C226.972 121.013 226.281 120.499 226.018 119.78H229.546ZM234.6 119.78C234.407 120.305 233.985 120.73 233.436 120.915C233.242 120.98 233.04 121.013 232.835 121.013C232.025 121.013 231.335 120.499 231.071 119.78H234.6ZM239.652 119.78C239.46 120.305 239.039 120.73 238.489 120.915C238.296 120.98 238.093 121.013 237.889 121.013C237.078 121.013 236.389 120.499 236.125 119.78H239.652ZM244.706 119.78C244.513 120.305 244.092 120.73 243.542 120.915C243.349 120.98 243.146 121.013 242.941 121.013C242.131 121.013 241.441 120.499 241.178 119.78H244.706ZM242.175 114.217L244.4 118.485H240.913L239.789 114.217H242.175ZM238.45 114.217L239.575 118.485H236.009V114.217H238.45ZM234.715 114.217V118.485H231.148L232.273 114.217H234.715ZM230.935 114.217L229.811 118.485H226.323L228.549 114.217H230.935Z" stroke="#13F584" stroke-opacity="0.3" stroke-width="0.631455"/>
<rect x="4.89453" y="98.6479" width="50.4041" height="50.4041" rx="25.2021" fill="#F8F8F8" fill-opacity="0.05"/>
<rect x="4.89453" y="98.6479" width="50.4041" height="50.4041" rx="25.2021" fill="url(#paint7_linear_928_443158)" fill-opacity="0.2"/>
<rect x="5.22614" y="98.9796" width="49.7409" height="49.7409" rx="24.8705" stroke="#13F584" stroke-opacity="0.3" stroke-width="0.663212"/>
<path d="M23.8996 117.218H30.988L32.5178 115.994C33.0387 115.578 33.2332 114.903 33.013 114.274C32.7928 113.644 32.2207 113.238 31.5557 113.238H23.3319C22.6669 113.238 22.0948 113.645 21.8746 114.274C21.6544 114.903 21.8489 115.578 22.3689 115.993L23.8996 117.218Z" fill="#F8F8F8" fill-opacity="0.05"/>
<path d="M23.8996 117.218H30.988L32.5178 115.994C33.0387 115.578 33.2332 114.903 33.013 114.274C32.7928 113.644 32.2207 113.238 31.5557 113.238H23.3319C22.6669 113.238 22.0948 113.645 21.8746 114.274C21.6544 114.903 21.8489 115.578 22.3689 115.993L23.8996 117.218Z" fill="url(#paint8_linear_928_443158)"/>
<path d="M23.332 113.554H31.5557C32.0862 113.554 32.5389 113.875 32.7148 114.378C32.8907 114.881 32.7372 115.415 32.3213 115.747H32.3203L30.8779 116.901H24.0098L22.5664 115.746H22.5654C22.1506 115.415 21.997 114.88 22.1729 114.378C22.3489 113.876 22.8017 113.554 23.332 113.554Z" stroke="#13F584" stroke-opacity="0.3" stroke-width="0.631455"/>
<path d="M34.9588 128.272C38.1332 128.272 40.7066 127.48 40.7066 126.503C40.7066 125.526 38.1332 124.734 34.9588 124.734C31.7843 124.734 29.2109 125.526 29.2109 126.503C29.2109 127.48 31.7843 128.272 34.9588 128.272Z" fill="#F8F8F8" fill-opacity="0.05"/>
<path d="M34.9588 128.272C38.1332 128.272 40.7066 127.48 40.7066 126.503C40.7066 125.526 38.1332 124.734 34.9588 124.734C31.7843 124.734 29.2109 125.526 29.2109 126.503C29.2109 127.48 31.7843 128.272 34.9588 128.272Z" fill="url(#paint9_linear_928_443158)"/>
<path d="M34.959 125.05C36.5237 125.05 37.9282 125.245 38.9307 125.554C39.4337 125.709 39.8179 125.887 40.0693 126.07C40.3275 126.258 40.3906 126.408 40.3906 126.503C40.3906 126.598 40.3275 126.748 40.0693 126.936C39.8179 127.118 39.4337 127.297 38.9307 127.452C37.9282 127.761 36.5237 127.956 34.959 127.956C33.3943 127.956 31.9898 127.761 30.9873 127.452C30.4841 127.297 30.1001 127.119 29.8486 126.936C29.5903 126.748 29.5264 126.598 29.5264 126.503C29.5264 126.408 29.5903 126.258 29.8486 126.07C30.1001 125.887 30.4841 125.709 30.9873 125.554C31.9898 125.245 33.3943 125.05 34.959 125.05Z" stroke="#13F584" stroke-opacity="0.3" stroke-width="0.631455"/>
<path d="M34.9588 131.366C38.1334 131.366 40.7066 130.575 40.7066 129.597V128.477C38.8974 129.522 35.7829 129.597 34.9588 129.597C34.1346 129.597 31.0202 129.521 29.2109 128.477V129.597C29.2109 130.575 31.7842 131.366 34.9588 131.366Z" fill="#F8F8F8" fill-opacity="0.05"/>
<path d="M34.9588 131.366C38.1334 131.366 40.7066 130.575 40.7066 129.597V128.477C38.8974 129.522 35.7829 129.597 34.9588 129.597C34.1346 129.597 31.0202 129.521 29.2109 128.477V129.597C29.2109 130.575 31.7842 131.366 34.9588 131.366Z" fill="url(#paint10_linear_928_443158)"/>
<path d="M40.3906 129.597C40.3906 129.692 40.3276 129.843 40.0693 130.031C39.8179 130.214 39.4337 130.392 38.9307 130.546C37.9282 130.855 36.5237 131.05 34.959 131.05C33.3942 131.05 31.9898 130.855 30.9873 130.546C30.4843 130.392 30.1001 130.214 29.8486 130.031C29.5903 129.843 29.5264 129.692 29.5264 129.597V128.989C30.4103 129.388 31.4682 129.614 32.4121 129.742C33.5389 129.894 34.539 129.914 34.959 129.914C35.379 129.914 36.3792 129.894 37.5059 129.742C38.4495 129.614 39.5068 129.388 40.3906 128.989V129.597Z" stroke="#13F584" stroke-opacity="0.3" stroke-width="0.631455"/>
<path d="M27.8851 132.692V129.597V129.274V126.179L27.924 126.201C28.268 123.912 32.4197 123.494 34.2758 123.423C33.4976 121.548 32.3825 119.795 31.1083 118.544H23.7776C21.3626 120.915 19.4844 125.074 19.4844 128.492C19.4844 131.462 21.0566 134.461 24.569 134.461H28.8905C28.2848 134.028 27.8851 133.455 27.8851 132.692Z" fill="#F8F8F8" fill-opacity="0.05"/>
<path d="M27.8851 132.692V129.597V129.274V126.179L27.924 126.201C28.268 123.912 32.4197 123.494 34.2758 123.423C33.4976 121.548 32.3825 119.795 31.1083 118.544H23.7776C21.3626 120.915 19.4844 125.074 19.4844 128.492C19.4844 131.462 21.0566 134.461 24.569 134.461H28.8905C28.2848 134.028 27.8851 133.455 27.8851 132.692Z" fill="url(#paint11_linear_928_443158)"/>
<path d="M30.9756 118.859C32.0841 119.976 33.0718 121.489 33.8047 123.13C32.8711 123.187 31.5897 123.329 30.4404 123.679C29.2687 124.035 28.1096 124.648 27.7217 125.723L27.5693 125.637V132.692C27.5693 133.271 27.7695 133.75 28.0898 134.146H24.5693C22.9159 134.146 21.7372 133.445 20.9629 132.402C20.1806 131.348 19.7998 129.927 19.7998 128.492C19.7998 125.208 21.5939 121.19 23.9102 118.859H30.9756Z" stroke="#13F584" stroke-opacity="0.3" stroke-width="0.631455"/>
<path d="M34.9588 132.693C34.1346 132.693 31.0202 132.617 29.2109 131.572V132.693C29.2109 133.67 31.7842 134.461 34.9588 134.461C38.1334 134.461 40.7066 133.67 40.7066 132.693V131.572C38.8974 132.617 35.7829 132.693 34.9588 132.693Z" fill="#F8F8F8" fill-opacity="0.05"/>
<path d="M34.9588 132.693C34.1346 132.693 31.0202 132.617 29.2109 131.572V132.693C29.2109 133.67 31.7842 134.461 34.9588 134.461C38.1334 134.461 40.7066 133.67 40.7066 132.693V131.572C38.8974 132.617 35.7829 132.693 34.9588 132.693Z" fill="url(#paint12_linear_928_443158)"/>
<path d="M40.3906 132.692C40.3906 132.787 40.3276 132.938 40.0693 133.126C39.8179 133.309 39.4337 133.487 38.9307 133.642C37.9282 133.95 36.5237 134.145 34.959 134.146C33.3942 134.146 31.9898 133.95 30.9873 133.642C30.4843 133.487 30.1001 133.309 29.8486 133.126C29.5903 132.938 29.5264 132.787 29.5264 132.692V132.084C30.4103 132.483 31.4682 132.709 32.4121 132.837C33.5389 132.989 34.539 133.009 34.959 133.009C35.3791 133.009 36.3792 132.989 37.5059 132.837C38.4495 132.709 39.5069 132.483 40.3906 132.084V132.692Z" stroke="#13F584" stroke-opacity="0.3" stroke-width="0.631455"/>
<path d="M197.559 145.736L202.864 125.935H211.154" stroke="#13F584" stroke-opacity="0.3" stroke-width="0.663212"/>
<path d="M68.2305 145.736L62.9248 125.839H54.6346" stroke="#13F584" stroke-opacity="0.3" stroke-width="0.663212"/>
<path d="M133.227 81.4043V98.3162" stroke="#13F584" stroke-opacity="0.3" stroke-width="0.663212"/>
<circle cx="197.89" cy="145.736" r="3.31606" fill="#F8F8F8" fill-opacity="0.05"/>
<circle cx="197.89" cy="145.736" r="3.31606" fill="#01331A"/>
<circle cx="197.89" cy="145.736" r="2.98446" stroke="#13F584" stroke-opacity="0.3" stroke-width="0.663212"/>
<circle cx="67.9" cy="145.736" r="3.31606" fill="#F8F8F8" fill-opacity="0.05"/>
<circle cx="67.9" cy="145.736" r="3.31606" fill="#01331A"/>
<circle cx="67.9" cy="145.736" r="2.98446" stroke="#13F584" stroke-opacity="0.3" stroke-width="0.663212"/>
<circle cx="132.894" cy="98.6476" r="3.31606" fill="#F8F8F8" fill-opacity="0.05"/>
<circle cx="132.894" cy="98.6476" r="3.31606" fill="#01331A"/>
<circle cx="132.894" cy="98.6476" r="2.98446" stroke="#13F584" stroke-opacity="0.3" stroke-width="0.663212"/>
<defs>
<linearGradient id="paint0_linear_928_443158" x1="132.563" y1="104.617" x2="132.563" y2="228.637" gradientUnits="userSpaceOnUse">
<stop stop-color="#13F584" stop-opacity="0.51"/>
<stop offset="1" stop-color="#13F584" stop-opacity="0"/>
</linearGradient>
<linearGradient id="paint1_linear_928_443158" x1="132.765" y1="133.798" x2="132.765" y2="194.418" gradientUnits="userSpaceOnUse">
<stop stop-color="#13F584" stop-opacity="0.51"/>
<stop offset="1" stop-color="#13F584" stop-opacity="0"/>
</linearGradient>
<linearGradient id="paint2_linear_928_443158" x1="132.765" y1="155.966" x2="132.765" y2="200.119" gradientUnits="userSpaceOnUse">
<stop stop-color="#13F584" stop-opacity="0.51"/>
<stop offset="1" stop-color="#13F584" stop-opacity="0"/>
</linearGradient>
<linearGradient id="paint3_linear_928_443158" x1="132.231" y1="31" x2="132.231" y2="81.4041" gradientUnits="userSpaceOnUse">
<stop stop-color="#13F584" stop-opacity="0.51"/>
<stop offset="1" stop-color="#13F584" stop-opacity="0"/>
</linearGradient>
<linearGradient id="paint4_linear_928_443158" x1="132.168" y1="45.5908" x2="132.168" y2="66.8136" gradientUnits="userSpaceOnUse">
<stop stop-color="#13F584" stop-opacity="0.51"/>
<stop offset="1" stop-color="#13F584" stop-opacity="0"/>
</linearGradient>
<linearGradient id="paint5_linear_928_443158" x1="235.692" y1="98.6479" x2="235.692" y2="149.052" gradientUnits="userSpaceOnUse">
<stop stop-color="#13F584" stop-opacity="0.51"/>
<stop offset="1" stop-color="#13F584" stop-opacity="0"/>
</linearGradient>
<linearGradient id="paint6_linear_928_443158" x1="235.362" y1="113.901" x2="235.362" y2="134.129" gradientUnits="userSpaceOnUse">
<stop stop-color="#13F584" stop-opacity="0.51"/>
<stop offset="1" stop-color="#13F584" stop-opacity="0"/>
</linearGradient>
<linearGradient id="paint7_linear_928_443158" x1="30.0966" y1="98.6479" x2="30.0966" y2="149.052" gradientUnits="userSpaceOnUse">
<stop stop-color="#13F584" stop-opacity="0.51"/>
<stop offset="1" stop-color="#13F584" stop-opacity="0"/>
</linearGradient>
<linearGradient id="paint8_linear_928_443158" x1="27.4438" y1="113.238" x2="27.4438" y2="117.218" gradientUnits="userSpaceOnUse">
<stop stop-color="#13F584" stop-opacity="0.51"/>
<stop offset="1" stop-color="#13F584" stop-opacity="0"/>
</linearGradient>
<linearGradient id="paint9_linear_928_443158" x1="34.9588" y1="124.734" x2="34.9588" y2="128.272" gradientUnits="userSpaceOnUse">
<stop stop-color="#13F584" stop-opacity="0.51"/>
<stop offset="1" stop-color="#13F584" stop-opacity="0"/>
</linearGradient>
<linearGradient id="paint10_linear_928_443158" x1="34.9588" y1="128.477" x2="34.9588" y2="131.366" gradientUnits="userSpaceOnUse">
<stop stop-color="#13F584" stop-opacity="0.51"/>
<stop offset="1" stop-color="#13F584" stop-opacity="0"/>
</linearGradient>
<linearGradient id="paint11_linear_928_443158" x1="26.8801" y1="118.544" x2="26.8801" y2="134.461" gradientUnits="userSpaceOnUse">
<stop stop-color="#13F584" stop-opacity="0.51"/>
<stop offset="1" stop-color="#13F584" stop-opacity="0"/>
</linearGradient>
<linearGradient id="paint12_linear_928_443158" x1="34.9588" y1="131.572" x2="34.9588" y2="134.461" gradientUnits="userSpaceOnUse">
<stop stop-color="#13F584" stop-opacity="0.51"/>
<stop offset="1" stop-color="#13F584" stop-opacity="0"/>
</linearGradient>
</defs>
</svg>
