<svg width="100" height="100" viewBox="0 0 100 100" fill="none" xmlns="http://www.w3.org/2000/svg">
<g clip-path="url(#clip0_127_88119)">
<path d="M97.0703 47.0703H76.3672V39.2578H87.3047C88.9219 39.2578 90.2344 37.9453 90.2344 36.3281C90.2344 34.7109 88.9219 33.3984 87.3047 33.3984H76.3672V26.9902C76.3672 25.373 75.0547 24.0605 73.4375 24.0605H67.7812V11.7188H78.125C79.334 15.1289 82.5898 17.5781 86.4102 17.5781C91.2559 17.5781 95.1992 13.6348 95.1992 8.78906C95.1992 3.94336 91.2559 0 86.4102 0C82.5898 0 79.334 2.44922 78.125 5.85938H64.8516C63.2344 5.85938 61.9219 7.17188 61.9219 8.78906V24.0605H52.9297V2.92969C52.9297 1.3125 51.6172 0 50 0C48.3828 0 47.0703 1.3125 47.0703 2.92969V24.0605H38.0781V8.78906C38.0781 7.17188 36.7656 5.85938 35.1484 5.85938H21.875C20.666 2.44922 17.4102 0 13.5898 0C8.74414 0 4.80078 3.94336 4.80078 8.78906C4.80078 13.6348 8.74414 17.5781 13.5898 17.5781C17.4102 17.5781 20.666 15.1289 21.875 11.7188H32.2188V24.0605H26.5625C24.9453 24.0605 23.6328 25.373 23.6328 26.9902V33.3984H12.6953C11.0781 33.3984 9.76562 34.7109 9.76562 36.3281C9.76562 37.9453 11.0781 39.2578 12.6953 39.2578H23.6328V47.0703H2.92969C1.3125 47.0703 0 48.3828 0 50C0 51.6172 1.3125 52.9297 2.92969 52.9297H23.6328V60.7422H12.6953C11.0781 60.7422 9.76562 62.0547 9.76562 63.6719C9.76562 65.2891 11.0781 66.6016 12.6953 66.6016H23.6328V73.0098C23.6328 74.627 24.9453 75.9395 26.5625 75.9395H32.2188V88.2812H21.875C20.666 84.8711 17.4102 82.4219 13.5898 82.4219C8.74414 82.4219 4.80078 86.3652 4.80078 91.2109C4.80078 96.0566 8.74414 100 13.5898 100C17.4102 100 20.666 97.5508 21.875 94.1406H35.1484C36.7656 94.1406 38.0781 92.8281 38.0781 91.2109V75.9395H47.0703V97.0703C47.0703 98.6875 48.3828 100 50 100C51.6172 100 52.9297 98.6875 52.9297 97.0703V75.9395H61.9219V91.2109C61.9219 92.8281 63.2344 94.1406 64.8516 94.1406H78.125C79.334 97.5508 82.5898 100 86.4102 100C91.2559 100 95.1992 96.0566 95.1992 91.2109C95.1992 86.3652 91.2559 82.4219 86.4102 82.4219C82.5898 82.4219 79.334 84.8711 78.125 88.2812H67.7812V75.9395H73.4375C75.0547 75.9395 76.3672 74.627 76.3672 73.0098V66.6016H87.3047C88.9219 66.6016 90.2344 65.2891 90.2344 63.6719C90.2344 62.0547 88.9219 60.7422 87.3047 60.7422H76.3672V52.9297H97.0703C98.6875 52.9297 100 51.6172 100 50C100 48.3828 98.6875 47.0703 97.0703 47.0703ZM41.2109 54.5293V60.3145C41.2109 61.9316 39.8984 63.2441 38.2812 63.2441C36.6641 63.2441 35.3516 61.9316 35.3516 60.3145V45.5449C35.3516 40.6992 39.2949 36.7559 44.1406 36.7559C48.9863 36.7559 52.9297 40.6992 52.9297 45.5449V60.3145C52.9297 61.9316 51.6172 63.2441 50 63.2441C48.3828 63.2441 47.0703 61.9316 47.0703 60.3145V54.5293H41.2109ZM64.6484 60.3145C64.6484 61.9316 63.3359 63.2441 61.7188 63.2441C60.1016 63.2441 58.7891 61.9316 58.7891 60.3145V39.6855C58.7891 38.0684 60.1016 36.7559 61.7188 36.7559C63.3359 36.7559 64.6484 38.0684 64.6484 39.6855V60.3145Z" fill="#13F584"/>
<path d="M47.0703 45.5449V48.6699H41.2109V45.5449C41.2109 43.9297 42.5254 42.6152 44.1406 42.6152C45.7559 42.6152 47.0703 43.9297 47.0703 45.5449Z" fill="#13F584"/>
</g>
<defs>
<clipPath id="clip0_127_88119">
<rect width="100" height="100" fill="white"/>
</clipPath>
</defs>
</svg>
